<?xml version="1.0" standalone="no"?>
<!DOCTYPE svg PUBLIC "-//W3C//DTD SVG 1.1//EN" "http://www.w3.org/Graphics/SVG/1.1/DTD/svg11.dtd" >
<svg xmlns="http://www.w3.org/2000/svg">
<metadata>
This is a custom SVG webfont generated by Font Squirrel.
Foundry URL : http://mplus-fonts.sourceforge.jp
</metadata>
<defs>
<font id="webfontypsiWUxP" horiz-adv-x="648" >
<font-face units-per-em="1000" ascent="860" descent="-140" />
<missing-glyph horiz-adv-x="388" />
<glyph unicode=" "  horiz-adv-x="388" />
<glyph unicode="&#x09;" horiz-adv-x="388" />
<glyph unicode="&#xa0;" horiz-adv-x="388" />
<glyph unicode="!" horiz-adv-x="419" d="M108 730h203l-25 -500h-153zM123 0v150h173v-150h-173z" />
<glyph unicode="&#x22;" horiz-adv-x="526" d="M63 770h170l-25 -300h-120zM293 770h170l-25 -300h-120z" />
<glyph unicode="#" horiz-adv-x="704" d="M43 163v129h102l29 166h-79v129h102l25 143h154l-26 -143h80l26 143h153l-25 -143h78v-129h-101l-29 -166h78v-129h-101l-29 -163h-154l29 163h-79l-29 -163h-154l29 163h-79zM378 292l29 166h-79l-30 -166h80z" />
<glyph unicode="$" horiz-adv-x="606" d="M426 578v-177q72 -32 102 -76t30 -107q0 -95 -65.5 -147t-194.5 -56v-100h-115v108q-59 9 -113 32v143q56 -32 113 -45v187q-135 65 -135 183q0 89 67 140.5t196 51.5v100h115v-108q56 -7 107 -22v-137q-49 19 -107 30zM311 589q-103 -1 -103 -66q0 -55 88 -78l15 -4v148 zM298 300v-159q98 4 98 74q0 30 -22 50t-76 35z" />
<glyph unicode="%" horiz-adv-x="909" d="M578 730h123l-370 -730h-123zM685 393q91 0 141 -53t50 -148q0 -96 -50 -149t-141 -53t-141.5 53t-50.5 149q0 95 50.5 148t141.5 53zM225 740q91 0 141 -53t50 -149q0 -95 -50 -148t-141 -53t-141.5 53t-50.5 148q0 96 50.5 149t141.5 53zM685 94q56 0 56 98 q0 53 -14 75t-42 22q-57 0 -57 -97q0 -98 57 -98zM225 441q28 0 42 22t14 75q0 98 -56 98q-57 0 -57 -98q0 -97 57 -97z" />
<glyph unicode="&#x26;" horiz-adv-x="786" d="M297 288q-76 -53 -76 -96q0 -73 105 -73q62 0 120 29zM417 359l103 -100v132h154v-281l114 -110h-183l-48 44q-128 -54 -239 -54q-270 0 -270 187q0 50 35 97.5t118 102.5q-63 59 -86.5 100t-23.5 90q0 76 65 124.5t179 48.5q121 0 183 -46t62 -129q0 -53 -37.5 -102 t-125.5 -104zM322 451q60 37 78.5 57.5t18.5 44.5q0 33 -21 51t-60 18t-61.5 -17.5t-22.5 -44.5q0 -24 12 -44.5t56 -64.5z" />
<glyph unicode="'" horiz-adv-x="322" d="M68 770h187l-25 -300h-137z" />
<glyph unicode="(" horiz-adv-x="447" d="M218 292q0 -273 192 -477h-140q-99 91 -153 215.5t-54 261.5q0 138 54 262.5t153 215.5h140q-192 -204 -192 -478z" />
<glyph unicode=")" horiz-adv-x="447" d="M230 292q0 274 -192 478h140q99 -91 153 -215.5t54 -262.5q0 -137 -54 -261.5t-153 -215.5h-140q192 204 192 477z" />
<glyph unicode="*" horiz-adv-x="544" d="M502 536l-133 -37l85 -109l-105 -76l-77 114l-76 -114l-106 76l86 109l-133 37l40 124l130 -48l-6 138h130l-5 -138l129 48z" />
<glyph unicode="+" horiz-adv-x="739" d="M438 580v-226h228v-128h-228v-226h-137v226h-228v128h228v226h137z" />
<glyph unicode="," horiz-adv-x="372" d="M116 190h194l-117 -300h-140z" />
<glyph unicode="-" horiz-adv-x="492" d="M73 226v128h347v-128h-347z" />
<glyph unicode="." horiz-adv-x="366" d="M88 0v190h190v-190h-190z" />
<glyph unicode="/" horiz-adv-x="567" d="M525 730l-349 -770h-148l348 770h149z" />
<glyph unicode="0" d="M323 740q147 0 218.5 -88t71.5 -287t-71.5 -287t-218.5 -88t-218.5 88t-71.5 287t71.5 287t218.5 88zM323 119q60 0 88.5 55t28.5 191t-28.5 191t-88.5 55t-88.5 -55t-28.5 -191t28.5 -191t88.5 -55z" />
<glyph unicode="1" d="M288 730h177v-730h-177v543h-1l-192 -140v187z" />
<glyph unicode="2" d="M300 139v-2h276v-137h-500v137q136 104 206 171t93 109t23 90q0 92 -102 92q-82 0 -205 -56v155q108 42 230 42q121 0 186.5 -57.5t65.5 -159.5q0 -88 -55.5 -168.5t-217.5 -215.5z" />
<glyph unicode="3" d="M378 430q87 0 139.5 -54t52.5 -146q0 -116 -71 -178t-204 -62q-114 0 -217 35v147q115 -47 203 -47q59 0 90.5 26.5t31.5 75.5q0 50 -38 70t-144 20h-50v114l185 160v2h-283v137h487v-137l-195 -161v-2h13z" />
<glyph unicode="4" d="M335 273v251h-2l-173 -249v-2h175zM497 273h106v-133h-106v-140h-162v140h-325v133l325 457h162v-457z" />
<glyph unicode="5" d="M349 477q111 0 172 -59.5t61 -169.5q0 -258 -306 -258q-101 0 -190 28v144q108 -37 183 -37q147 0 147 123q0 100 -100 100q-44 0 -87 -38h-145l20 420h445v-137h-292l-7 -136h3q48 20 96 20z" />
<glyph unicode="6" d="M527 720v-132q-70 29 -151 29q-70 0 -114 -43.5t-53 -126.5l2 -1q57 44 149 44q118 0 182 -62.5t64 -177.5q0 -122 -75 -191t-206 -69q-135 0 -208.5 82.5t-73.5 247.5q0 210 85 315t242 105q80 0 157 -20zM325 113q56 0 87 34t31 100q0 62 -31.5 95.5t-86.5 33.5 t-86.5 -34.5t-31.5 -94.5q0 -63 32.5 -98.5t85.5 -35.5z" />
<glyph unicode="7" d="M68 730h513v-137q-84 -140 -145.5 -276.5t-120.5 -316.5h-182q119 324 287 589v4h-352v137z" />
<glyph unicode="8" d="M323 740q126 0 197 -52.5t71 -134.5q0 -97 -124 -158v-2q146 -60 146 -193q0 -96 -76.5 -153t-213.5 -57t-213.5 57t-76.5 153q0 109 139 174v2q-117 65 -117 177q0 82 71 134.5t197 52.5zM330 438q55 20 78 44t23 55q0 37 -29 60.5t-79 23.5q-49 0 -77.5 -23.5 t-28.5 -60.5q0 -32 25 -56t88 -43zM306 322q-60 -24 -84 -51t-24 -63q0 -43 35 -71t90 -28t89.5 28t34.5 71q0 40 -28 64t-113 50z" />
<glyph unicode="9" d="M109 142q74 -29 161 -29q76 0 119.5 43t47.5 127l-2 1q-57 -44 -149 -44q-119 0 -182.5 64t-63.5 186q0 115 75.5 182.5t205.5 67.5q135 0 208.5 -81t73.5 -239q0 -430 -327 -430q-82 0 -167 20v132zM321 617q-55 0 -86.5 -32.5t-31.5 -91.5q0 -68 31 -103.5t87 -35.5 q55 0 86.5 36t31.5 103q0 56 -33 90t-85 34z" />
<glyph unicode=":" horiz-adv-x="446" d="M128 0v190h190v-190h-190zM128 377v190h190v-190h-190z" />
<glyph unicode=";" horiz-adv-x="452" d="M136 377v190h190v-190h-190zM136 190h194l-117 -300h-140z" />
<glyph unicode="&#x3c;" horiz-adv-x="692" d="M605 445l-452 -154v-2l452 -154v-138l-547 201v184l547 201v-138z" />
<glyph unicode="=" horiz-adv-x="759" d="M83 352v128h593v-128h-593zM83 100v128h593v-128h-593z" />
<glyph unicode="&#x3e;" horiz-adv-x="692" d="M88 445v138l547 -201v-184l-547 -201v138l452 154v2z" />
<glyph unicode="?" horiz-adv-x="649" d="M360 232h-157q0 39 11 71.5t34 59t39.5 41t47.5 37.5q29 22 41 32.5t24.5 29t12.5 37.5q0 66 -108 66q-99 0 -227 -39v143q122 30 252 30q123 0 192 -49t69 -128q0 -37 -9.5 -66t-31 -52.5t-37.5 -36.5t-46 -34q-27 -19 -39.5 -29t-31 -28.5t-27 -39t-9.5 -45.5zM195 0 v150h173v-150h-173z" />
<glyph unicode="@" horiz-adv-x="816" d="M578 119v-95q-75 -34 -170 -34q-159 0 -267 105t-108 270q0 164 106.5 269.5t268.5 105.5q164 0 269.5 -104.5t105.5 -270.5q0 -98 -53.5 -148.5t-155.5 -50.5q-42 0 -75 15q-31 14 -40 35h-2q-44 -50 -120 -50q-68 0 -111 51q-50 59 -34 150q18 92 71 142.5t128 50.5 q22 0 44 -8q22 -10 34 -22h2l6 29h128l-44 -234q-12 -65 3 -77q5 -4 16 -4q58 0 84.5 28.5t26.5 92.5q0 131 -77.5 209.5t-205.5 78.5q-126 0 -204.5 -80t-78.5 -208t78.5 -208t204.5 -80q95 0 170 42zM360 275q31 0 53.5 23.5t31.5 68.5q9 43 -8 70q-16 21 -43 21 q-30 0 -53 -24t-32 -68t9 -70q14 -21 42 -21z" />
<glyph unicode="A" horiz-adv-x="699" d="M23 0l237 730h180l236 -730h-180l-40 158h-217l-39 -158h-177zM272 287h151l-74 296h-2z" />
<glyph unicode="B" horiz-adv-x="634" d="M245 441h33q146 0 146 87q0 83 -123 83q-31 0 -56 -6v-164zM245 319v-194q27 -6 60 -6q71 0 104 26.5t33 81.5q0 92 -151 92h-46zM601 210q0 -112 -73 -166t-230 -54q-116 0 -220 15v720q99 15 210 15q290 0 290 -187q0 -63 -41 -107.5t-109 -56.5v-2q80 -10 126.5 -59 t46.5 -118z" />
<glyph unicode="C" horiz-adv-x="649" d="M207 365q0 -114 54 -177t144 -63q80 0 171 32v-144q-89 -23 -191 -23q-164 0 -258 97t-94 278q0 178 91 276.5t254 98.5q99 0 190 -23v-146q-92 32 -170 32q-90 0 -140.5 -61t-50.5 -177z" />
<glyph unicode="D" horiz-adv-x="694" d="M661 375q0 -190 -97 -287.5t-276 -97.5q-111 0 -210 15v720q99 15 210 15q179 0 276 -95t97 -270zM500 375q0 120 -49.5 176t-149.5 56q-31 0 -56 -6v-472q26 -6 56 -6q101 0 150 59t49 193z" />
<glyph unicode="E" horiz-adv-x="612" d="M248 593v-149h277v-129h-277v-178h297v-137h-467v730h467v-137h-297z" />
<glyph unicode="F" horiz-adv-x="597" d="M78 730h457v-137h-287v-166h267v-128h-267v-299h-170v730z" />
<glyph unicode="G" horiz-adv-x="719" d="M410 740q108 0 198 -23v-140q-97 28 -178 28q-224 0 -224 -240q0 -120 53.5 -180t153.5 -60q39 0 72 10v180h-159v129h320v-412q-112 -42 -243 -42q-168 0 -269 99.5t-101 275.5q0 177 99 276t278 99z" />
<glyph unicode="H" horiz-adv-x="719" d="M471 315h-223v-315h-170v730h170v-286h223v286h170v-730h-170v315z" />
<glyph unicode="I" horiz-adv-x="372" d="M93 0v730h187v-730h-187z" />
<glyph unicode="J" horiz-adv-x="577" d="M33 23v148q93 -44 183 -44q61 0 90 37t29 126v440h175v-463q0 -148 -64 -212.5t-206 -64.5q-114 0 -207 33z" />
<glyph unicode="K" horiz-adv-x="686" d="M248 730v-313h2l201 313h197l-240 -350l250 -380h-197l-211 343h-2v-343h-170v730h170z" />
<glyph unicode="L" horiz-adv-x="614" d="M253 730v-589h308v-141h-483v730h175z" />
<glyph unicode="M" horiz-adv-x="856" d="M617 447h-2l-119 -280h-140l-119 280h-2v-447h-157v730h171l176 -430h2l176 430h175v-730h-161v447z" />
<glyph unicode="N" horiz-adv-x="719" d="M78 0v730h163l236 -448h2v448h162v-730h-162l-236 448h-2v-448h-163z" />
<glyph unicode="O" horiz-adv-x="749" d="M375 600q-168 0 -168 -235t168 -235q167 0 167 235t-167 235zM375 -10q-158 0 -250 99.5t-92 275.5t92 275.5t250 99.5t249.5 -99.5t91.5 -275.5t-91.5 -275.5t-249.5 -99.5z" />
<glyph unicode="P" horiz-adv-x="646" d="M78 725q103 15 220 15q320 0 320 -238q0 -129 -74.5 -195.5t-218.5 -66.5q-36 0 -80 4v-244h-167v725zM245 370q32 -5 63 -5q73 0 112 33t39 94q0 119 -151 119q-34 0 -63 -6v-235z" />
<glyph unicode="Q" horiz-adv-x="782" d="M375 600q-168 0 -168 -235t168 -235q167 0 167 235t-167 235zM375 -10q-158 0 -250 99.5t-92 275.5t92 275.5t250 99.5t249.5 -99.5t91.5 -275.5q0 -104 -37 -183.5t-104 -127.5v-2q67 -31 127 -86t93 -116h-184q-52 92 -92.5 116t-143.5 24z" />
<glyph unicode="R" horiz-adv-x="672" d="M245 395h56q70 0 107 29.5t37 82.5q0 104 -137 104q-38 0 -63 -6v-210zM245 270v-270h-167v725q110 15 240 15q150 0 223.5 -56.5t73.5 -160.5q0 -67 -39 -120.5t-103 -76.5v-2q52 -29 85 -119l77 -205h-175l-69 198q-14 42 -34 57t-62 15h-50z" />
<glyph unicode="S" horiz-adv-x="602" d="M526 557q-104 52 -210 52q-92 0 -92 -72q0 -61 81 -87q137 -43 191 -98.5t54 -146.5q0 -215 -272 -215q-116 0 -207 52v145q95 -64 197 -64q53 0 80.5 20.5t27.5 58.5q0 33 -18.5 53.5t-66.5 36.5q-126 40 -182 99.5t-56 145.5q0 94 65.5 148.5t187.5 54.5q127 0 220 -40 v-143z" />
<glyph unicode="T" horiz-adv-x="666" d="M613 730v-141h-193v-589h-174v589h-193v141h560z" />
<glyph unicode="U" horiz-adv-x="696" d="M240 730v-477q0 -67 26 -96.5t84 -29.5t84 29.5t26 96.5v477h168v-465q0 -275 -280 -275t-280 275v465h172z" />
<glyph unicode="V" horiz-adv-x="699" d="M204 730l144 -567h2l150 567h176l-236 -730h-180l-237 730h181z" />
<glyph unicode="W" horiz-adv-x="916" d="M210 730l76 -557h2l69 557h206l69 -557h2l76 557h168l-145 -730h-198l-76 557h-2l-76 -557h-198l-145 730h172z" />
<glyph unicode="X" horiz-adv-x="696" d="M347 272h-2l-110 -272h-187l187 370l-182 360h187l109 -262h2l109 262h183l-182 -360l187 -370h-191z" />
<glyph unicode="Y" horiz-adv-x="696" d="M217 730l132 -313h2l132 313h190l-237 -450v-280h-176v280l-237 450h194z" />
<glyph unicode="Z" horiz-adv-x="642" d="M68 730h507v-137l-308 -454v-2h308v-137h-507v137l307 454v2h-307v137z" />
<glyph unicode="[" horiz-adv-x="522" d="M255 657v-729h190v-113h-337v955h337v-113h-190z" />
<glyph unicode="\" horiz-adv-x="567" d="M43 730h148l349 -770h-149z" />
<glyph unicode="]" horiz-adv-x="522" d="M268 -72v729h-190v113h337v-955h-337v113h190z" />
<glyph unicode="^" horiz-adv-x="699" d="M350 640h-1l-159 -360h-157l215 450h203l215 -450h-157z" />
<glyph unicode="_" horiz-adv-x="606" d="M0 -185v113h607v-113h-607z" />
<glyph unicode="`" horiz-adv-x="364" d="M215 810l116 -303h-136l-187 303h207z" />
<glyph unicode="a" horiz-adv-x="582" d="M280 530q130 0 185 -47t55 -156v-327h-151l-2 69h-2q-62 -79 -164 -79q-69 0 -113.5 44.5t-44.5 115.5q0 182 270 182h45v13q0 38 -19.5 55t-65.5 17q-85 0 -200 -33v116q105 30 207 30zM358 238h-45q-122 0 -122 -75q0 -26 16.5 -42t42.5 -16q48 0 78 30.5t30 81.5v21z " />
<glyph unicode="b" horiz-adv-x="627" d="M235 730v-262h2q66 62 149 62q94 0 149 -70t55 -200q0 -126 -57.5 -198t-146.5 -72q-95 0 -158 76h-2l-2 -66h-151v730h162zM431 260q0 150 -100 150q-40 0 -70 -27t-30 -61v-124q0 -34 30 -61t70 -27q46 0 73 37t27 113z" />
<glyph unicode="c" horiz-adv-x="526" d="M33 260q0 131 66.5 200.5t190.5 69.5q75 0 165 -18v-124q-74 21 -139 21q-57 0 -85 -35.5t-28 -113.5q0 -79 30 -114t93 -35q66 0 137 22v-123q-82 -20 -163 -20q-129 0 -198 68t-69 202z" />
<glyph unicode="d" horiz-adv-x="627" d="M393 730h162v-730h-151l-2 66h-2q-65 -76 -159 -76q-89 0 -146 71.5t-57 198.5q0 130 55 200t148 70q82 0 150 -62h2v262zM196 260q0 -76 27 -113t73 -37q40 0 70 27t30 61v124q0 34 -30 61t-70 27q-100 0 -100 -150z" />
<glyph unicode="e" horiz-adv-x="567" d="M193 309h186q-1 112 -88 112q-46 0 -69.5 -25.5t-28.5 -86.5zM193 213q7 -60 41 -85.5t106 -25.5q57 0 151 28v-116q-92 -24 -175 -24q-136 0 -209.5 69t-73.5 201q0 131 65.5 200.5t189.5 69.5q242 0 242 -268q0 -21 -4 -49h-333z" />
<glyph unicode="f" horiz-adv-x="547" d="M48 387v113h110v27q0 110 50.5 161.5t157.5 51.5q60 0 119 -15v-117q-37 15 -79 15q-49 0 -65 -18.5t-16 -76.5v-28h150v-113h-150v-387h-167v387h-110z" />
<glyph unicode="g" horiz-adv-x="612" d="M545 520v-475q0 -135 -74.5 -205t-215.5 -70q-85 0 -164 20v133q77 -30 157 -30q72 0 105 34.5t33 115.5v29h-2q-58 -62 -146 -62q-87 0 -143.5 69.5t-56.5 190.5q0 124 54 192t146 68q47 0 82.5 -18t69.5 -58h2l2 66h151zM196 270q0 -70 25.5 -105t69.5 -35 q39 0 67 26.5t28 61.5v97q0 40 -27.5 67.5t-67.5 27.5q-95 0 -95 -140z" />
<glyph unicode="h" horiz-adv-x="622" d="M235 730v-265h2q71 65 151 65q92 0 132 -52.5t40 -187.5v-290h-158v270q0 80 -15.5 106t-58.5 26q-34 0 -63.5 -29.5t-29.5 -62.5v-310h-162v730h162z" />
<glyph unicode="i" horiz-adv-x="356" d="M93 0v520h170v-520h-170zM93 620v130h170v-130h-170z" />
<glyph unicode="j" horiz-adv-x="406" d="M-17 -220v126q105 0 132.5 18.5t27.5 85.5v510h170v-510q0 -92 -27 -139.5t-97 -69t-206 -21.5zM143 620v130h170v-130h-170z" />
<glyph unicode="k" horiz-adv-x="621" d="M235 730v-407h2l161 197h185l-213 -250l213 -270h-185l-161 210h-2v-210h-162v730h162z" />
<glyph unicode="l" horiz-adv-x="356" d="M93 0v750h170v-750h-170z" />
<glyph unicode="m" horiz-adv-x="854" d="M68 520h150l3 -67h2q59 77 137 77q45 0 72.5 -17t51.5 -60h2q69 77 144 77q85 0 123 -45.5t38 -154.5v-330h-157v320q0 54 -12 71.5t-45 17.5q-23 0 -45 -18.5t-22 -37.5v-353h-157v320q0 54 -12 71.5t-45 17.5q-23 0 -44.5 -18.5t-21.5 -37.5v-353h-162v520z" />
<glyph unicode="n" horiz-adv-x="617" d="M68 520h154l2 -66h2q65 76 157 76q91 0 131.5 -52t40.5 -175v-303h-158v298q0 61 -16 83t-58 22q-35 0 -64 -28.5t-29 -61.5v-313h-162v520z" />
<glyph unicode="o" horiz-adv-x="589" d="M295 530q124 0 192.5 -71t68.5 -199t-68.5 -199t-192.5 -71t-193 71t-69 199t69 199t193 71zM295 103q50 0 74.5 37t24.5 120t-24.5 120t-74.5 37t-74.5 -37t-24.5 -120t24.5 -120t74.5 -37z" />
<glyph unicode="p" horiz-adv-x="622" d="M68 520h154l2 -66h2q65 76 155 76q94 0 149 -70t55 -200q0 -126 -57.5 -198t-146.5 -72q-81 0 -149 62h-2v-272h-162v740zM426 260q0 150 -100 150q-39 0 -69.5 -27.5t-30.5 -60.5v-124q0 -33 30.5 -60.5t69.5 -27.5q46 0 73 37.5t27 112.5z" />
<glyph unicode="q" horiz-adv-x="622" d="M555 520v-740h-162v272h-2q-68 -62 -150 -62q-89 0 -146 71.5t-57 198.5q0 130 55 200t148 70q91 0 156 -76h2l2 66h154zM196 260q0 -75 27 -112.5t73 -37.5q39 0 69.5 27.5t30.5 60.5v124q0 33 -30.5 60.5t-69.5 27.5q-100 0 -100 -150z" />
<glyph unicode="r" horiz-adv-x="509" d="M68 520h162v-100h2q34 47 89 73.5t120 26.5h20v-122h-20q-97 0 -151.5 -48t-54.5 -130v-220h-167v520z" />
<glyph unicode="s" horiz-adv-x="536" d="M466 390q-85 27 -173 27q-75 0 -75 -40q0 -39 60 -50q114 -19 159.5 -60t45.5 -119q0 -75 -55.5 -116.5t-162.5 -41.5q-109 0 -204 30v122q87 -35 184 -35q73 0 73 43q0 20 -13 31t-50 19q-108 20 -155 62t-47 111q0 74 55.5 115.5t167.5 41.5q101 0 190 -22v-118z" />
<glyph unicode="t" horiz-adv-x="541" d="M310 500h163v-113h-163v-180q0 -63 11.5 -80t51.5 -17q46 0 88 14v-121q-58 -13 -128 -13q-102 0 -143.5 43.5t-41.5 156.5v197h-105v113h105v190h162v-190z" />
<glyph unicode="u" horiz-adv-x="612" d="M63 520h157v-302q0 -58 16 -79.5t54 -21.5q34 0 63.5 28.5t29.5 61.5v313h162v-520h-154l-2 66h-2q-65 -76 -157 -76q-88 0 -127.5 49t-39.5 168v313z" />
<glyph unicode="v" horiz-adv-x="592" d="M201 520l96 -427h2l97 427h169l-162 -520h-213l-162 520h173z" />
<glyph unicode="w" horiz-adv-x="832" d="M201 520l58 -390h2l64 390h187l64 -390h2l58 390h159l-119 -520h-191l-68 380h-2l-67 -380h-192l-118 520h163z" />
<glyph unicode="x" horiz-adv-x="599" d="M222 520l79 -174h2l79 174h169l-148 -255l153 -265h-173l-84 182h-2l-84 -182h-170l153 265l-148 255h174z" />
<glyph unicode="y" horiz-adv-x="599" d="M294 153h2l107 367h168l-275 -740h-168l92 220l-192 520h177z" />
<glyph unicode="z" horiz-adv-x="576" d="M68 520h440v-113l-238 -292v-2h238v-113h-440v113l238 292v2h-238v113z" />
<glyph unicode="{" horiz-adv-x="549" d="M466 770v-113h-46q-61 0 -76.5 -15.5t-15.5 -79.5v-100q0 -69 -26 -107t-86 -61v-2q60 -24 86 -62t26 -107v-100q0 -64 15.5 -79.5t76.5 -15.5h46v-113h-123q-86 0 -124 38t-38 127v138q0 63 -20 88.5t-68 25.5h-40v121h40q48 0 68 25.5t20 88.5v138q0 89 38 127t124 38 h123z" />
<glyph unicode="|" horiz-adv-x="402" d="M128 -220v1030h147v-1030h-147z" />
<glyph unicode="}" horiz-adv-x="549" d="M83 770h123q86 0 124 -38t38 -127v-138q0 -62 20.5 -88t67.5 -26h40v-121h-40q-47 0 -67.5 -26t-20.5 -88v-138q0 -89 -38 -127t-124 -38h-123v113h47q60 0 75.5 15.5t15.5 79.5v100q0 69 26 107t86 62v2q-60 23 -86 61t-26 107v100q0 64 -15.5 79.5t-75.5 15.5h-47v113z " />
<glyph unicode="~" horiz-adv-x="736" d="M246 290q-28 0 -52 -18t-56 -65l-90 86q77 134 198 134q85 0 158 -72q45 -45 86 -45q28 0 52 18t56 65l90 -86q-77 -134 -198 -134q-85 0 -158 72q-45 45 -86 45z" />
<glyph unicode="&#xa5;" horiz-adv-x="706" d="M81 120v97h185v63l-2 3h-183v97h132l-185 350h194l132 -313h2l132 313h190l-185 -350h132v-97h-183l-2 -3v-63h185v-97h-185v-120h-174v120h-185z" />
<glyph unicode="&#xaa;" horiz-adv-x="582" d="M280 530q130 0 185 -47t55 -156v-327h-151l-2 69h-2q-62 -79 -164 -79q-69 0 -113.5 44.5t-44.5 115.5q0 182 270 182h45v13q0 38 -19.5 55t-65.5 17q-85 0 -200 -33v116q105 30 207 30zM358 238h-45q-122 0 -122 -75q0 -26 16.5 -42t42.5 -16q48 0 78 30.5t30 81.5v21z " />
<glyph unicode="&#xad;" horiz-adv-x="492" d="M73 226v128h347v-128h-347z" />
<glyph unicode="&#xb2;" d="M300 139v-2h276v-137h-500v137q136 104 206 171t93 109t23 90q0 92 -102 92q-82 0 -205 -56v155q108 42 230 42q121 0 186.5 -57.5t65.5 -159.5q0 -88 -55.5 -168.5t-217.5 -215.5z" />
<glyph unicode="&#xb3;" d="M378 430q87 0 139.5 -54t52.5 -146q0 -116 -71 -178t-204 -62q-114 0 -217 35v147q115 -47 203 -47q59 0 90.5 26.5t31.5 75.5q0 50 -38 70t-144 20h-50v114l185 160v2h-283v137h487v-137l-195 -161v-2h13z" />
<glyph unicode="&#xb9;" d="M288 730h177v-730h-177v543h-1l-192 -140v187z" />
<glyph unicode="&#xba;" horiz-adv-x="589" d="M295 530q124 0 192.5 -71t68.5 -199t-68.5 -199t-192.5 -71t-193 71t-69 199t69 199t193 71zM295 103q50 0 74.5 37t24.5 120t-24.5 120t-74.5 37t-74.5 -37t-24.5 -120t24.5 -120t74.5 -37z" />
<glyph unicode="&#xc0;" horiz-adv-x="699" d="M302 1103l116 -303h-136l-187 303h207zM23 0l237 730h180l236 -730h-180l-40 158h-217l-39 -158h-177zM272 287h151l-74 296h-2z" />
<glyph unicode="&#xc2;" horiz-adv-x="699" d="M350 1160h-1l-159 -360h-157l215 450h203l215 -450h-157zM23 0l237 730h180l236 -730h-180l-40 158h-217l-39 -158h-177zM272 287h151l-74 296h-2z" />
<glyph unicode="&#xc3;" horiz-adv-x="699" d="M228 917q-28 0 -52 -18t-56 -65l-90 86q77 134 198 134q85 0 158 -72q45 -45 86 -45q28 0 52 18t56 65l90 -86q-77 -134 -198 -134q-85 0 -158 72q-45 45 -86 45zM23 0l237 730h180l236 -730h-180l-40 158h-217l-39 -158h-177zM272 287h151l-74 296h-2z" />
<glyph unicode="&#xc8;" horiz-adv-x="612" d="M263 1103l116 -303h-136l-187 303h207zM248 593v-149h277v-129h-277v-178h297v-137h-467v730h467v-137h-297z" />
<glyph unicode="&#xca;" horiz-adv-x="612" d="M312 1160h-1l-159 -360h-157l215 450h203l215 -450h-157zM248 593v-149h277v-129h-277v-178h297v-137h-467v730h467v-137h-297z" />
<glyph unicode="&#xcc;" horiz-adv-x="372" d="M139 1103l116 -303h-136l-187 303h207zM93 0v730h187v-730h-187z" />
<glyph unicode="&#xce;" horiz-adv-x="372" d="M187 1160h-1l-159 -360h-157l215 450h203l215 -450h-157zM93 0v730h187v-730h-187z" />
<glyph unicode="&#xd1;" horiz-adv-x="719" d="M238 917q-28 0 -52 -18t-56 -65l-90 86q77 134 198 134q85 0 158 -72q45 -45 86 -45q28 0 52 18t56 65l90 -86q-77 -134 -198 -134q-85 0 -158 72q-45 45 -86 45zM78 0v730h163l236 -448h2v448h162v-730h-162l-236 448h-2v-448h-163z" />
<glyph unicode="&#xd2;" horiz-adv-x="749" d="M327 1103l116 -303h-136l-187 303h207zM375 600q-168 0 -168 -235t168 -235q167 0 167 235t-167 235zM375 -10q-158 0 -250 99.5t-92 275.5t92 275.5t250 99.5t249.5 -99.5t91.5 -275.5t-91.5 -275.5t-249.5 -99.5z" />
<glyph unicode="&#xd4;" horiz-adv-x="749" d="M376 1160h-1l-159 -360h-157l215 450h203l215 -450h-157zM375 600q-168 0 -168 -235t168 -235q167 0 167 235t-167 235zM375 -10q-158 0 -250 99.5t-92 275.5t92 275.5t250 99.5t249.5 -99.5t91.5 -275.5t-91.5 -275.5t-249.5 -99.5z" />
<glyph unicode="&#xd5;" horiz-adv-x="749" d="M253 917q-28 0 -52 -18t-56 -65l-90 86q77 134 198 134q85 0 158 -72q45 -45 86 -45q28 0 52 18t56 65l90 -86q-77 -134 -198 -134q-85 0 -158 72q-45 45 -86 45zM375 600q-168 0 -168 -235t168 -235q167 0 167 235t-167 235zM375 -10q-158 0 -250 99.5t-92 275.5 t92 275.5t250 99.5t249.5 -99.5t91.5 -275.5t-91.5 -275.5t-249.5 -99.5z" />
<glyph unicode="&#xd9;" horiz-adv-x="696" d="M300 1103l116 -303h-136l-187 303h207zM240 730v-477q0 -67 26 -96.5t84 -29.5t84 29.5t26 96.5v477h168v-465q0 -275 -280 -275t-280 275v465h172z" />
<glyph unicode="&#xdb;" horiz-adv-x="696" d="M348 1160h-1l-159 -360h-157l215 450h203l215 -450h-157zM240 730v-477q0 -67 26 -96.5t84 -29.5t84 29.5t26 96.5v477h168v-465q0 -275 -280 -275t-280 275v465h172z" />
<glyph unicode="&#xe0;" horiz-adv-x="582" d="M232 893l116 -303h-136l-187 303h207zM280 530q130 0 185 -47t55 -156v-327h-151l-2 69h-2q-62 -79 -164 -79q-69 0 -113.5 44.5t-44.5 115.5q0 182 270 182h45v13q0 38 -19.5 55t-65.5 17q-85 0 -200 -33v116q105 30 207 30zM358 238h-45q-122 0 -122 -75 q0 -26 16.5 -42t42.5 -16q48 0 78 30.5t30 81.5v21z" />
<glyph unicode="&#xe2;" horiz-adv-x="582" d="M280 950h-1l-159 -360h-157l215 450h203l215 -450h-157zM280 530q130 0 185 -47t55 -156v-327h-151l-2 69h-2q-62 -79 -164 -79q-69 0 -113.5 44.5t-44.5 115.5q0 182 270 182h45v13q0 38 -19.5 55t-65.5 17q-85 0 -200 -33v116q105 30 207 30zM358 238h-45 q-122 0 -122 -75q0 -26 16.5 -42t42.5 -16q48 0 78 30.5t30 81.5v21z" />
<glyph unicode="&#xe3;" horiz-adv-x="582" d="M158 707q-28 0 -52 -18t-56 -65l-90 86q77 134 198 134q85 0 158 -72q45 -45 86 -45q28 0 52 18t56 65l90 -86q-77 -134 -198 -134q-85 0 -158 72q-45 45 -86 45zM280 530q130 0 185 -47t55 -156v-327h-151l-2 69h-2q-62 -79 -164 -79q-69 0 -113.5 44.5t-44.5 115.5 q0 182 270 182h45v13q0 38 -19.5 55t-65.5 17q-85 0 -200 -33v116q105 30 207 30zM358 238h-45q-122 0 -122 -75q0 -26 16.5 -42t42.5 -16q48 0 78 30.5t30 81.5v21z" />
<glyph unicode="&#xe8;" horiz-adv-x="567" d="M240 893l116 -303h-136l-187 303h207zM193 309h186q-1 112 -88 112q-46 0 -69.5 -25.5t-28.5 -86.5zM193 213q7 -60 41 -85.5t106 -25.5q57 0 151 28v-116q-92 -24 -175 -24q-136 0 -209.5 69t-73.5 201q0 131 65.5 200.5t189.5 69.5q242 0 242 -268q0 -21 -4 -49h-333z " />
<glyph unicode="&#xea;" horiz-adv-x="567" d="M288 950h-1l-159 -360h-157l215 450h203l215 -450h-157zM193 309h186q-1 112 -88 112q-46 0 -69.5 -25.5t-28.5 -86.5zM193 213q7 -60 41 -85.5t106 -25.5q57 0 151 28v-116q-92 -24 -175 -24q-136 0 -209.5 69t-73.5 201q0 131 65.5 200.5t189.5 69.5q242 0 242 -268 q0 -21 -4 -49h-333z" />
<glyph unicode="&#xec;" horiz-adv-x="356" d="M130 1113l116 -303h-136l-187 303h207zM93 0v520h170v-520h-170zM93 620v130h170v-130h-170z" />
<glyph unicode="&#xee;" horiz-adv-x="356" d="M178 1170h-1l-159 -360h-157l215 450h203l215 -450h-157zM93 0v520h170v-520h-170zM93 620v130h170v-130h-170z" />
<glyph unicode="&#xf1;" horiz-adv-x="617" d="M190 707q-28 0 -52 -18t-56 -65l-90 86q77 134 198 134q85 0 158 -72q45 -45 86 -45q28 0 52 18t56 65l90 -86q-77 -134 -198 -134q-85 0 -158 72q-45 45 -86 45zM68 520h154l2 -66h2q65 76 157 76q91 0 131.5 -52t40.5 -175v-303h-158v298q0 61 -16 83t-58 22 q-35 0 -64 -28.5t-29 -61.5v-313h-162v520z" />
<glyph unicode="&#xf2;" horiz-adv-x="589" d="M247 893l116 -303h-136l-187 303h207zM295 530q124 0 192.5 -71t68.5 -199t-68.5 -199t-192.5 -71t-193 71t-69 199t69 199t193 71zM295 103q50 0 74.5 37t24.5 120t-24.5 120t-74.5 37t-74.5 -37t-24.5 -120t24.5 -120t74.5 -37z" />
<glyph unicode="&#xf4;" horiz-adv-x="589" d="M296 950h-1l-159 -360h-157l215 450h203l215 -450h-157zM295 530q124 0 192.5 -71t68.5 -199t-68.5 -199t-192.5 -71t-193 71t-69 199t69 199t193 71zM295 103q50 0 74.5 37t24.5 120t-24.5 120t-74.5 37t-74.5 -37t-24.5 -120t24.5 -120t74.5 -37z" />
<glyph unicode="&#xf5;" horiz-adv-x="589" d="M173 707q-28 0 -52 -18t-56 -65l-90 86q77 134 198 134q85 0 158 -72q45 -45 86 -45q28 0 52 18t56 65l90 -86q-77 -134 -198 -134q-85 0 -158 72q-45 45 -86 45zM295 530q124 0 192.5 -71t68.5 -199t-68.5 -199t-192.5 -71t-193 71t-69 199t69 199t193 71zM295 103 q50 0 74.5 37t24.5 120t-24.5 120t-74.5 37t-74.5 -37t-24.5 -120t24.5 -120t74.5 -37z" />
<glyph unicode="&#xf9;" horiz-adv-x="612" d="M256 893l116 -303h-136l-187 303h207zM63 520h157v-302q0 -58 16 -79.5t54 -21.5q34 0 63.5 28.5t29.5 61.5v313h162v-520h-154l-2 66h-2q-65 -76 -157 -76q-88 0 -127.5 49t-39.5 168v313z" />
<glyph unicode="&#xfb;" horiz-adv-x="612" d="M304 950h-1l-159 -360h-157l215 450h203l215 -450h-157zM63 520h157v-302q0 -58 16 -79.5t54 -21.5q34 0 63.5 28.5t29.5 61.5v313h162v-520h-154l-2 66h-2q-65 -76 -157 -76q-88 0 -127.5 49t-39.5 168v313z" />
<glyph unicode="&#x152;" horiz-adv-x="1361" d="M997 593v-149h277v-129h-277v-178h297v-137h-467v730h467v-137h-297zM375 600q-168 0 -168 -235t168 -235q167 0 167 235t-167 235zM375 -10q-158 0 -250 99.5t-92 275.5t92 275.5t250 99.5t249.5 -99.5t91.5 -275.5t-91.5 -275.5t-249.5 -99.5z" />
<glyph unicode="&#x153;" horiz-adv-x="1156" d="M782 309h186q-1 112 -88 112q-46 0 -69.5 -25.5t-28.5 -86.5zM782 213q7 -60 41 -85.5t106 -25.5q57 0 151 28v-116q-92 -24 -175 -24q-136 0 -209.5 69t-73.5 201q0 131 65.5 200.5t189.5 69.5q242 0 242 -268q0 -21 -4 -49h-333zM295 530q124 0 192.5 -71t68.5 -199 t-68.5 -199t-192.5 -71t-193 71t-69 199t69 199t193 71zM295 103q50 0 74.5 37t24.5 120t-24.5 120t-74.5 37t-74.5 -37t-24.5 -120t24.5 -120t74.5 -37z" />
<glyph unicode="&#x2c6;" horiz-adv-x="699" d="M350 640h-1l-159 -360h-157l215 450h203l215 -450h-157z" />
<glyph unicode="&#x2dc;" horiz-adv-x="388" d="M-122 177q-28 0 -52 -18t-56 -65l-90 86q77 134 198 134q85 0 158 -72q45 -45 86 -45q28 0 52 18t56 65l90 -86q-77 -134 -198 -134q-85 0 -158 72q-45 45 -86 45z" />
<glyph unicode="&#x2000;" horiz-adv-x="630" />
<glyph unicode="&#x2001;" horiz-adv-x="1260" />
<glyph unicode="&#x2002;" horiz-adv-x="630" />
<glyph unicode="&#x2003;" horiz-adv-x="1260" />
<glyph unicode="&#x2004;" horiz-adv-x="420" />
<glyph unicode="&#x2005;" horiz-adv-x="315" />
<glyph unicode="&#x2006;" horiz-adv-x="210" />
<glyph unicode="&#x2007;" horiz-adv-x="210" />
<glyph unicode="&#x2008;" horiz-adv-x="157" />
<glyph unicode="&#x2009;" horiz-adv-x="252" />
<glyph unicode="&#x200a;" horiz-adv-x="70" />
<glyph unicode="&#x2010;" horiz-adv-x="492" d="M73 226v128h347v-128h-347z" />
<glyph unicode="&#x2011;" horiz-adv-x="492" d="M73 226v128h347v-128h-347z" />
<glyph unicode="&#x2013;" horiz-adv-x="475" d="M0 226v128h475v-128h-475z" />
<glyph unicode="&#x2014;" horiz-adv-x="950" d="M0 226v128h950v-128h-950z" />
<glyph unicode="&#x2018;" horiz-adv-x="357" d="M231 470h-193l117 300h140z" />
<glyph unicode="&#x2019;" horiz-adv-x="357" d="M126 770h194l-117 -300h-140z" />
<glyph unicode="&#x201a;" horiz-adv-x="372" d="M116 190h194l-117 -300h-140z" />
<glyph unicode="&#x201c;" horiz-adv-x="564" d="M443 470h-177l117 300h123zM210 470h-177l117 300h123z" />
<glyph unicode="&#x201d;" horiz-adv-x="564" d="M355 770h176l-116 -300h-124zM121 770h177l-117 -300h-123z" />
<glyph unicode="&#x201e;" horiz-adv-x="579" d="M345 190h176l-116 -300h-124zM111 190h177l-117 -300h-123z" />
<glyph unicode="&#x2022;" horiz-adv-x="502" d="M251 423q56 0 95 -39t39 -94t-39 -94t-95 -39q-55 0 -94 39t-39 94t39 94t94 39z" />
<glyph unicode="&#x2026;" horiz-adv-x="1000" d="M80 269v190h190v-190h-190zM413 269v190h190v-190h-190zM746 269v190h190v-190h-190z" />
<glyph unicode="&#x202f;" horiz-adv-x="252" />
<glyph unicode="&#x2039;" horiz-adv-x="692" d="M605 445l-452 -154v-2l452 -154v-138l-547 201v184l547 201v-138z" />
<glyph unicode="&#x203a;" horiz-adv-x="692" d="M88 445v138l547 -201v-184l-547 -201v138l452 154v2z" />
<glyph unicode="&#x205f;" horiz-adv-x="315" />
<glyph unicode="&#x2122;" horiz-adv-x="1522" d="M1283 447h-2l-119 -280h-140l-119 280h-2v-447h-157v730h171l176 -430h2l176 430h175v-730h-161v447zM613 730v-141h-193v-589h-174v589h-193v141h560z" />
</font>
</defs>
</svg>
