<?xml version="1.0" standalone="no"?>
<!DOCTYPE svg PUBLIC "-//W3C//DTD SVG 1.1//EN" "http://www.w3.org/Graphics/SVG/1.1/DTD/svg11.dtd" >
<svg xmlns="http://www.w3.org/2000/svg">
<metadata>
This is a custom SVG webfont generated by Font Squirrel.
Copyright   : Copyright c Vangelis Makridakis 2006 All rights reserved
Designer    : Vangelis Makridakis
Foundry     : Vangelis Makridakis
Foundry URL : httpwwwvagdesigncom
</metadata>
<defs>
<font id="webfont9wvG140X" horiz-adv-x="1024" >
<font-face units-per-em="2048" ascent="1638" descent="-410" />
<missing-glyph horiz-adv-x="500" />
<glyph unicode=" " />
<glyph unicode="!" horiz-adv-x="434" d="M109 147q10 43 45 78q43 12 71 -14q10 -4 31 -39q12 -45 -18 -72q-12 -70 -66 -65q-45 6 -61 55q-10 26 -2 57zM129 545q0 2 2 4q4 39 8 114.5t6 104.5q47 555 50 664q4 238 -9 311q-2 2 -2 6q-8 61 43.5 75.5t81.5 -36.5q14 -27 7 -129.5t-19 -189.5l-27 -186 q-14 -99 -16 -120q-16 -158 -6 -397q0 -23 6 -84t8 -98t-8 -86q-20 -39 -56 -45.5t-58.5 21.5t-10.5 71z" />
<glyph unicode="&#x22;" horiz-adv-x="792" d="M139 1126q29 53 56 91q2 6 18 38l29 56l31 58q19 36 35 59.5l33 47t30.5 33t21.5 2.5q20 -14 25 -65q0 -10 4 -31.5t4 -32t-4 -30.5q-27 -80 -112 -147.5t-169 -80.5q-8 -10 -2 2zM403 1087q86 244 220 377q51 49 78.5 20.5t7.5 -91.5q-39 -104 -82 -159.5t-129 -94.5 q-2 0 -14 -5l-23 -12l-26 -12q-13 -6 -22.5 -12.5t-9.5 -10.5z" />
<glyph unicode="#" horiz-adv-x="1202" d="M26.5 403.5q8.5 22.5 32.5 26.5l273 37l112 340l-346 -12q-29 0 -41 20.5t-0.5 41t37.5 20.5l377 14l123 377q8 27 30.5 31t39 -13.5t8.5 -42.5l-115 -348l258 10l119 367q8 27 30.5 31t39 -13.5t8.5 -42.5l-109 -340l248 11q27 0 39 -20.5t2 -41t-37 -20.5l-278 -13 l-97 -297l324 45q27 2 40 -16t6 -40.5t-34 -25.5l-362 -49l-125 -389q-8 -27 -31 -31t-39 13.5t-8 42.5l113 352l-271 -37l-100 -309q-8 -27 -30.5 -31t-39 13.5t-8.5 41.5l88 273l-231 -31q-27 -4 -40.5 14.5t-5 41zM422 479l268 35l98 307l-258 -10z" />
<glyph unicode="$" horiz-adv-x="1077" d="M23.5 463q17.5 33 54.5 16q63 -63 129.5 -73.5t161.5 6.5q51 0 100 6q31 215 47 524q-10 2 -44 4t-50 4t-41 9.5t-45 19.5q-16 16 -17 39q2 53 27 89t44.5 48t74.5 41l61 31q0 33 4 110v60q0 31 1 58.5t6.5 56t17.5 53.5q45 41 68 -19q8 -18 8 -49q-4 -35 -19 -47 q-8 -59 -20 -197q55 20 115 33q4 51 13 141.5t11 112.5v4q12 43 43 41t41 -47v-29q0 -27 -12 -41l-6 -67q0 6 -2 4t-3 -15l-2 -28q-1 -14 -2 -19q-4 -8 -6 -22t-4 -23q111 16 209 5q37 -14 33 -58.5t-43 -48.5q-102 18 -219 2q-12 -57 -19 -125q-12 -49 -18 -106 q78 -29 135 -74t127 -129q18 -18 29.5 -45t24 -65t18.5 -54q20 -55 -36 -104.5t-116.5 -72t-79.5 -22.5q-49 -16 -143 -36q4 -150 35 -254q8 -35 -7.5 -55.5t-39 -14.5t-33.5 37q-27 104 -23 274q-14 -4 -40.5 -8t-43.5 -6q0 -6 -2 -20.5t-2 -20.5q-4 -29 -10 -85t-10 -85 q-8 -16 -10 -37q6 -29 -9.5 -51.5t-44.5 -15.5l-4 2q-23 16 -26 38q-6 39 16 93q23 131 29 172q-53 -4 -84 -6q-109 -20 -184.5 -12.5t-155.5 81.5q-25 39 -7.5 72zM379 1034q18 -16 141 -28q0 37 4 131l-37 -15l-14 -8q-14 -6 -28 -14l-28 -19q-15 -10 -25.5 -22.5 t-12.5 -24.5zM537 422q27 6 79 10q2 45 29 264q16 147 23 224q-14 4 -32 7l-37 6l-32 5zM571 997q6 0 86 -10q2 0 8.5 -2t8.5 -4q8 84 22 207q-51 -12 -112 -31zM678 442l133 27q137 33 184 80q4 4 7.5 18.5t5.5 20.5q-10 23 -25.5 62.5t-22 53t-20.5 38t-31.5 43 t-44.5 42.5q-63 53 -149 80q-37 -242 -37 -465zM791 1370v2q4 10 6 29z" />
<glyph unicode="%" d="M12 64.5q-8 25.5 8 56.5q31 43 72 91l65 74l81 85q57 59 69 73q166 176 299 369q102 150 162 250l40 67l45 76q17 29 46 64t57 55q33 12 53.5 -13.5t2.5 -60.5q-2 -6 -33 -55q-16 -16 -35 -18q-41 -41 -55 -66q-195 -272 -244 -336q-156 -211 -403 -514q0 -6 -6 -6 l-15 -18l4 2l4 4l-137 -191q-20 -25 -46 -19.5t-34 31zM201 924.5q2 33.5 30 93.5q8 18 39 72q8 16 54 81l18 24l18 23l17 19q10 12 18 20.5t18.5 16.5t22.5 14q20 43 64 23l22 -15q23 -14 29 -24q63 -86 -25 -221.5t-176 -159.5q-43 -12 -71.5 -14.5t-54 6t-23.5 42z M260 928q70 2 125 55q25 25 67 87.5t46 100.5q-18 -4 -39 17q-61 -33 -124 -113.5t-75 -146.5zM526 101.5q-4 35.5 3.5 64.5t25.5 80q31 76 78 151q-29 49 16 82l47 27l37 21q12 7 23 12q31 20 90 34q39 0 49 -35.5t-16 -56.5q14 -57 14 -65q4 -61 -45 -181t-96 -157 q-76 -55 -84 -60q-14 -6 -28.5 -7t-34 3t-27.5 4q-12 0 -23 13q-25 35 -29 70.5zM592 76q6 0 19.5 -3t20.5 -4t21 1q76 29 129.5 159.5t28.5 214.5q-18 4 -29 -2q-80 -59 -153.5 -184t-36.5 -182z" />
<glyph unicode="&#x26;" horiz-adv-x="1181" d="M27 131q-14 55 10 127t63 125q86 117 179 227q-31 37 -60 78q-4 6 -23.5 29.5t-25.5 33.5l-22 31q-15 23 -22 37.5t-16.5 36t-12.5 40.5t-3 40q-2 37 10.5 72.5t26.5 61.5t47 55l52 46q19 16 67 42l63 35q16 9 68.5 34t59 27t32 15t37.5 18.5t36.5 13.5t40 10t36 0 t37.5 -10q70 -35 7 -187.5t-114 -222.5q-53 -82 -233 -307q119 -150 221 -246q109 166 141 209q29 37 101.5 143.5t128 159.5t141.5 94q53 16 69.5 -29.5t-30.5 -70.5q-72 -33 -131.5 -85t-90 -91t-88 -126t-86.5 -126q-90 -129 -94 -133q111 -86 187 -115 q35 -33 18.5 -69.5t-63.5 -28.5q-98 41 -199 133q-145 -184 -238 -215q-45 -18 -93 -25.5t-97 -3.5t-87 34t-50 83zM92 143q0 -41 56.5 -54t99.5 -5q129 18 282 229q-102 102 -219 252l-65 -86q-127 -164 -150 -250q-4 -16 -4 -86zM170 936q0 -53 117 -197q33 -37 49 -59 q166 217 215 295q43 70 89 180.5t36 140.5q-23 2 -33 3t-34.5 -8t-35.5 -14l-31 -16l-30 -16l-65 -31q-60 -29 -79.5 -40t-68.5 -42.5t-69.5 -55t-40 -61.5t-19.5 -79z" />
<glyph unicode="'" horiz-adv-x="503" d="M76 1237l39.5 129t63.5 190t57 117q35 39 67.5 57.5t61 1t38.5 -78.5q-6 -45 -37.5 -61.5t-60.5 1.5q-20 -20 -35.5 -42.5t-26 -53.5t-16.5 -51.5t-10 -60t-5 -55t-3 -62.5t-2 -58q-29 -53 -78 -44.5t-53 71.5z" />
<glyph unicode="(" horiz-adv-x="776" d="M68 350q-66 287 170 805q20 47 86 170l25 43l32 52q25 40 42 61l45 54q28 34 52.5 50.5t53 30.5t57 11t55.5 -19q49 -45 18.5 -93.5t-90.5 -19.5l-30 -18q-51 -37 -80 -72q-10 -14 -34 -44t-32 -41l-25 -35l-27 -37q-9 -13 -22 -36l-26 -45l-27 -49q-51 -94 -90 -201.5 t-66.5 -233.5t-9 -243.5t85.5 -197.5q23 -27 77 -65l65 -46q29 -53 -6 -91t-86 -5q-16 16 -51 40.5t-59 47t-34 51.5q-57 125 -69 176z" />
<glyph unicode=")" horiz-adv-x="634" d="M82 51q-33 53 24 92q33 27 58 37q182 119 264 254t81 300t-50 382q-29 129 -72 219t-125 154q-43 45 -13 87t89 21q4 -4 36 -26.5t42 -40.5q88 -154 131 -402q78 -391 6 -624.5t-379 -472.5q-59 -33 -92 20zM158 176l6 4q-4 -4 -6 -4z" />
<glyph unicode="*" horiz-adv-x="536" d="M65.5 1556.5q2.5 28.5 30.5 38.5q18 0 39 -10t52.5 -34.5t37.5 -28.5l4 -4q-18 74 -8 110q23 35 53 8q4 -2 11 -8l8 -8q12 -25 4 -44.5t-27 -23.5q-4 -12 0 -28q43 55 86 116q18 16 38 8t22 -28.5t-15 -40.5l-12 -10q-12 -12 -20 -17v-2q-27 -23 -60 -61q78 10 142 10 q31 -14 27.5 -45t-36.5 -35l-104 25q72 -57 111 -113q10 -23 1.5 -44t-24.5 -23t-35 18q-35 78 -92 129q4 -12 13.5 -33.5t11.5 -27.5q-2 -25 -16.5 -35t-30 -3t-23.5 27q0 2 -6 76l-49 -74q-25 -16 -43.5 1.5t-12.5 43.5l-2 -4q-29 -16 -48 8.5t1 53.5q39 29 94 39l-67 24 q-6 4 -25 6l-8 5q-25 10 -22.5 38.5z" />
<glyph unicode="+" horiz-adv-x="950" d="M30.5 504q-10.5 31 41.5 63q33 23 135 47q12 4 223 43q-14 137 -27 238q8 35 32 47t47.5 -2t31.5 -49q-12 -111 -8 -227q195 20 381 -19q53 -25 40.5 -77t-69.5 -40q-180 74 -348 66q8 -127 39 -352q-4 -41 -30.5 -56.5t-52.5 2t-28 58.5q14 162 -2 340q-66 -6 -121 -27 q-100 -35 -127 -49q12 -27 -3 -53.5t-48 -30.5q-37 10 -66.5 28.5t-40 49.5zM115 461v2v-2z" />
<glyph unicode="," horiz-adv-x="278" d="M61.5 -195q-34.5 41 1.5 89q66 41 89 102q-49 -16 -86 35q-43 63 12 123q27 29 76 47q39 0 58 -25.5t11 -56.5q23 -98 11.5 -172t-84.5 -154q-54 -29 -88.5 12z" />
<glyph unicode="-" horiz-adv-x="946" d="M15 592q-3 51 57 67q229 -18 395 -10q270 12 407 -6q66 -25 49.5 -82t-83.5 -45q-70 25 -140.5 38t-116.5 18.5t-128 0t-111 -8.5t-133 -17l-133 -19q-60 13 -63 64z" />
<glyph unicode="." horiz-adv-x="231" d="M45 53q-25 68 31 101q27 16 67 18q37 -16 45 -43q20 -31 -4 -66q-8 -23 -32.5 -42t-47.5 -19q-39 0 -59 51z" />
<glyph unicode="/" horiz-adv-x="956" d="M37 98q330 479 561 924q6 10 41 86l64 138q30 62 72 124t71 74q76 20 94 -53l6 -19q-8 -63 -59 -67l-21 -27q-14 -18 -20 -29q-6 -6 -87 -135t-85 -135q-106 -176 -283 -505l-239 -441q-45 -45 -88 -19.5t-27 84.5z" />
<glyph unicode="0" horiz-adv-x="1181" d="M31 109q72 78 190 225q0 23 2 37q14 211 78 445.5t168 373.5l102 133q18 20 65.5 41.5t53.5 24.5q72 37 127 -60q12 -51 -26.5 -69.5t-73.5 20.5l-2 2q-6 -4 -16.5 -8t-16.5 -8q27 14 59 -13l101 -90q125 162 237 213q37 10 66 -10l22 -23q25 -45 -4.5 -76.5t-70.5 -6.5 q-84 -41 -191 -162q12 -25 23.5 -77t17.5 -69q37 -113 -24.5 -295t-147.5 -303q-238 -315 -422 -235q-63 23 -100 98q-100 -143 -129 -180q-39 -45 -80 -11t-8 83zM289 418q100 123 364 485q23 27 65 90.5t62 89.5q-18 16 -59 45t-57 43q-23 27 -20 52.5t28 38.5 q-2 -2 -13.5 -7.5t-15.5 -9.5q-123 -109 -211 -307.5t-125 -390.5q-6 -35 -18 -129zM295 283q2 -27 12 -45q6 -14 16.5 -24.5t23.5 -21t22 -18.5q12 0 34.5 -1t40 0t33.5 7q88 33 172 131.5t135.5 221t68.5 252.5t-28 227l-69 -84q-156 -188 -461 -645z" />
<glyph unicode="1" horiz-adv-x="571" d="M38 42q-15 30 3 56q-10 37 25 64q51 16 100 28q2 0 23.5 3.5t37.5 7.5q-8 39 2 149q6 57 7 221q0 57 -3.5 170t-4.5 169.5t1 170.5q-18 -27 -43 -45q-53 -29 -88 12.5t2 88.5q25 18 44.5 49t29.5 56.5t23.5 66.5t21.5 61q6 16 22.5 43t22.5 39q27 41 65 24.5t33 -61.5 q-49 -147 -58 -421.5t3 -424.5q0 -29 2 -110.5t2 -110.5q0 -20 -2 -47l-3 -41q-1 -14 2 -32.5t14 -37.5q215 0 215 -98q-8 -35 -29 -55q-16 -16 -41 -21q-41 -6 -64 15q-35 -8 -135 -4q-43 2 -174 -23q-41 8 -56 38zM276 211l3 2q-1 -2 -3 -2z" />
<glyph unicode="2" d="M23.5 56.5q-19.5 58.5 11.5 103.5q63 90 229 125q49 10 115 10q31 35 35 41l83 106q38 49 83 117t74.5 126t61.5 131t42 135.5t16 138t-14 139.5q-29 115 -125 143.5t-196.5 -18.5t-147.5 -133q-8 -12 -23 -72q-20 -39 -56 -45t-58.5 21.5t-10.5 70.5q29 84 43 100 q53 57 126 104.5t156 78t168 14.5t144 -88q14 -18 25.5 -42t23 -55.5t19.5 -47.5q43 -94 12 -242q-43 -193 -178 -418q-135 -209 -213 -309l-2 -2q66 -10 218.5 -62.5t234.5 -56.5q31 25 67.5 2.5t32.5 -74.5q-14 -49 -59 -57q-100 -8 -294 66.5t-280 82.5q-6 -8 -39 -36 q-20 -18 -42.5 -41t-39 -37.5t-37.5 -24.5q-10 -4 -36.5 -20.5t-48 -24.5t-42.5 -8q-59 0 -78.5 58.5zM104 92q0 -6 2 -8q61 0 166 100q-156 -29 -168 -92zM889 125q2 4 5 11t3 9q-6 -8 -8 -20z" />
<glyph unicode="3" horiz-adv-x="1107" d="M24.5 77q10.5 34 51.5 46q238 33 452.5 145.5t356.5 288.5q43 55 78 121q125 250 -84 246q-123 -4 -306 -82l-4 -2q-4 0 -6 -2q-37 -12 -57 -15q-31 6 -35 28.5t18 43.5q6 4 18.5 6t18.5 4h6q92 35 203 154t129 188q18 68 -30 103.5t-112.5 33.5t-111.5 -10 q-88 -29 -141 -67q-29 -18 -55.5 -40t-61.5 -54l-49 -44q-53 -29 -88 12.5t2 88.5l90 68l59 45q9 7 43.5 27t62.5 31l97 38q37 14 99.5 15t125 -12.5t109.5 -50t51 -90.5q0 -12 5.5 -40.5t4.5 -40t-8 -37.5q-8 -14 -22 -45t-25.5 -52.5t-25.5 -40.5q-31 -41 -101 -104 q236 47 293 -90q12 -29 11 -64.5t-6 -57t-21.5 -67t-18.5 -55.5q-20 -59 -88 -143q-150 -199 -373 -330t-475 -180q-43 -4 -66.5 22.5t-13 60.5zM541 907h4h-4z" />
<glyph unicode="4" horiz-adv-x="1077" d="M23 469q31 43 92 82q23 29 84 123q244 362 313 506q16 33 41 94t41 92q12 31 29.5 61.5t46 70.5t54.5 50.5t56 -4.5q29 -29 23 -69q-2 -14 -17 -50q-27 -31 -53 -24q-37 -45 -87 -145.5t-60 -118.5q-74 -135 -254 -387l-96 -142q154 63 284 76q41 4 156 -8l100 -12 q2 47 -2 144t1 171t28 141q27 49 64.5 31t33.5 -76q-16 -37 -47 -172q-2 -4 -2 2v13q2 12 2 18q-8 -51 -13 -149.5t-7 -124.5v-3q106 0 124 41q27 49 64 32t33 -77q-27 -59 -37 -69q-59 -51 -197 -37q-37 -287 -84 -508q-16 -37 -43.5 -42t-45 20.5t-7.5 66.5 q100 305 125 469q-45 6 -98 20q-119 23 -274.5 -2.5t-256.5 -87.5q-8 -8 -74 -69q-18 -12 -32 0l-4 4q-14 20 -4 49zM854 938q2 2 2 4q0 -2 -2 -4z" />
<glyph unicode="5" horiz-adv-x="1114" d="M27.5 264q7.5 35 34 42t57.5 -15q20 -20 35 -41q33 -37 51 -49q104 -72 276 -89.5t287 13.5q203 35 244 186q25 102 -8 245.5t-95 217.5q-57 70 -149 88q-117 20 -246 -37q-63 -29 -86 -55q-12 -12 -25 -14q-33 -8 -45 32q-12 12 -0.5 72t11.5 74q2 12 0 91t12 91 q12 29 36.5 44.5t71 24.5t52.5 11q39 12 108.5 39t128 44t113.5 21q35 0 50 -29.5t3 -62t-49 -37.5q-68 -4 -190.5 -40.5l-145.5 -43.5q-14 -4 -45 -9t-47 -9l-10 -6q-4 -33 -4 -51q0 -8 -7 -53l-10 -72q59 31 139 47t125 12q164 -18 242 -117.5t125 -308.5 q41 -209 -16 -295q-45 -76 -62 -90q-86 -76 -247.5 -108.5t-322.5 -15t-257 76.5q-27 16 -119 109q-23 32 -15.5 67z" />
<glyph unicode="6" d="M27.5 428q9.5 162 84 335t167 313.5t180.5 223.5q186 186 291 203q57 10 80.5 -13.5t12 -67.5t-25.5 -79.5t-35 -68.5q-39 -41 -74.5 -16.5t-23.5 77.5q12 20 21 29q-80 -39 -183 -141q-270 -240 -381 -607q-10 -35 -21 -96t-20 -90v-2q-12 -240 125 -317q90 -57 204 -35 t215 85.5t177 165t90 203.5q16 139 -72.5 223.5t-213.5 43.5q-18 -6 -55 -25l-40 -20q-20 -10 -41.5 -27.5t-31.5 -27.5l-37 -34l-31 -30q-53 -55 -76 -86q-12 -18 -37 -49q-45 -45 -84.5 -9.5t-3.5 89.5q150 170 256 243q236 162 447 13q47 -35 70 -95l26 -92 q20 -80 0 -133q-39 -147 -101.5 -228t-193.5 -173q-47 -33 -128 -66t-128 -33q-82 0 -128 5.5t-107.5 34t-102.5 87.5q-80 125 -70.5 287zM102 440v17v-6v-11z" />
<glyph unicode="7" horiz-adv-x="1150" d="M16 1190q-2 31 11 57q23 20 53.5 31.5t53 13.5t64.5 3t56 3q86 6 262 33t289 55q117 139 170 58q29 -45 -24.5 -77t-131.5 -50q-61 -70 -119 -209q-53 -121 -106 -303q242 53 418 14q8 -2 88 -39q35 -35 17.5 -79t-62.5 -31q-199 127 -482 57q-8 -27 -20 -84t-21 -84 q-72 -305 -79 -418v-8q6 -6 16 -22q14 -70 -31 -113q-33 -20 -63 2q-37 27 -21 156q14 123 105 436q20 76 33 110q-121 -33 -156 -65v-4l2 2l-2 -4q4 -25 -9.5 -46.5t-41.5 -25.5q-31 -2 -56 6q-43 37 -26 80q37 76 211 119q16 2 102 24q33 106 76 218q14 39 23 61l17 39 l16 35l15 28q5 10 22 41l30 54l2 4q2 4 7 11t9 15q-215 -66 -475 -104q-18 -4 -64.5 -8t-70.5 -11v-2q4 2 16 5h2q-12 -8 -22 -13q-18 -39 -64 -26q-33 14 -39 55z" />
<glyph unicode="8" horiz-adv-x="929" d="M35 111q-55 92 5 263t144 267l183 174l133 125q-8 4 -18.5 11l-18.5 12q-35 20 -123 45.5t-136 63.5t-57 114q-8 39 31 94q45 59 72 82q0 18 14 39q74 49 119 75.5t123 49t141 4.5q23 -8 63 -20.5t48 -14.5t30.5 -14.5t25.5 -17.5t16.5 -25.5t18.5 -38t17 -53.5 q4 -25 2 -29q-37 -104 -61.5 -145.5t-101.5 -133.5q-39 -47 -80 -84q86 -74 151 -176q39 -57 49 -125q2 -18 4 -53t7 -51q12 -147 -115 -284.5t-281 -198.5q-72 -29 -142.5 -41.5t-147 6.5t-115.5 80zM80 264q-31 -168 106 -182q119 -12 245 43t208 150.5t111.5 216 t-39.5 239.5q-49 86 -148 164l-6 -6l-141 -129q-18 -18 -117 -107q-180 -158 -219 -389zM254 1174q12 -25 34.5 -38.5t54.5 -24.5t46 -19q94 -37 172 -88q12 12 78 88q127 156 133 237q0 10 -3 19.5t-10 20.5t-9 20q-100 33 -150.5 38t-105.5 -12q-2 -18 -21 -37 q-25 -12 -58.5 -32.5t-78.5 -52t-69.5 -64t-12.5 -55.5z" />
<glyph unicode="9" horiz-adv-x="950" d="M39 63.5q0 28.5 27 53.5q250 137 425 337.5t228 458.5q-2 -4 -2 -6q6 53 8 62q-121 -72 -270.5 -72t-243.5 76q-45 39 -56.5 103.5t1 121.5t37.5 113q53 121 166.5 223t224.5 80q20 -4 82 -37q29 10 59 6q156 -33 178 -283q4 -25 -22 -133q-6 -39 -25 -69l4 -13 q0 -6 2 -8q-4 -23 -14 -37q-8 -20 -16.5 -61t-16.5 -61q-39 -129 -88 -216q-195 -387 -604 -684q-31 -18 -57.5 -0.5t-26.5 46zM227.5 1179q-22.5 -89 26.5 -157q33 -49 120 -57.5t164.5 8t123.5 39.5q43 23 86 67q0 12 8 27q12 16 26 24q12 23 23 60q8 45 10 106.5 t-25.5 116.5t-80.5 60h-11q-12 -16 -41 -13q-2 -2 -6 -3l-8 -2q-4 -1 -6 -1q-57 -8 -70 49h-2q-59 14 -135 -34t-128 -124.5t-74.5 -165.5zM711 887q0 2 2 8q4 8 4 12q0 -6 -4 -22q-2 -2 -2 2z" />
<glyph unicode=":" horiz-adv-x="462" d="M91 377q5 29 34 49q37 12 65 12q20 6 56 -4q4 0 4 -2q4 -2 6 -2q25 -20 27 -45q2 0 2 -4q18 -35 6 -71t-49 -48q-20 -8 -37 -2q-33 -2 -53 31q-6 6 -9 12q-27 2 -42 23.5t-10 50.5zM115 813q-12 66 52 112t126 -3q59 -12 61 -70q2 -59 -61 -84q-27 -10 -62 -8 q-35 -27 -69.5 -14.5t-46.5 67.5z" />
<glyph unicode=";" horiz-adv-x="514" d="M45 -301q-18 47 31 84l70 28q60 24 94 29v-2q51 35 59 72t-12 88q-45 -29 -88 16q-47 49 -9 103q25 35 84 55q39 0 58.5 -25.5t11.5 -56.5q4 -14 10 -43t11 -43q8 -39 7 -71.5t-4 -56t-19.5 -48.5t-27 -38t-40 -34.5t-43.5 -29.5l-56 -32l-57 -34q-62 -8 -80 39zM205 471 q10 55 53 84q59 18 88 -35q2 0 2 -2t2 -4v-6q14 -29 4 -66q0 -66 -55 -80q-53 -12 -82 33q-20 31 -12 76z" />
<glyph unicode="&#x3c;" horiz-adv-x="892" d="M23 485q-6 20 30 54q47 35 125 57q193 145 479 475q47 33 89 1t14 -85q-123 -121 -359 -309l-77 -64q266 0 444 -174q2 -2 6 -4l8 -4h2q43 0 62.5 -30.5t3.5 -63.5t-59 -37q-63 -6 -125 70q-6 10 -21 22l-22 20q-8 7 -5 7l27 -17l-2 3q-98 74 -221 108q-127 31 -217 10 q-63 -45 -137 -67q-35 -6 -43 24q0 2 -2 4z" />
<glyph unicode="=" d="M78 447.5q-12 31.5 4 61.5t53 30q31 0 217 26q25 4 75 0t75 0q225 10 377 -16q53 -25 39.5 -82t-68.5 -45q-59 23 -68 27h-2q-225 63 -403 34q-25 -8 -78 -28.5t-95 -32.5t-79 -14q-35 8 -47 39.5zM86 777q-8 42 27 71q20 16 52 20t73 4t55 2q215 14 602 -36 q53 -25 40 -82.5t-69 -44.5q-72 23 -78 24l23 -4l16 -4q-289 117 -553 47l-2 -2q-4 -2 -34.5 -14.5t-47.5 -16.5q-14 -16 -36 -18l-21 4q-39 8 -47 50zM262 770h4l4 2l-4 -2h-4zM272 772l2 2q-2 0 -2 -2zM780 449l37 -11q-19 9 -37 11z" />
<glyph unicode="&#x3e;" horiz-adv-x="1171" d="M51 111l119 85l135 96l115 78q78 52 142.5 88t129.5 68q158 72 244 92q18 4 53 9l53 6q-53 33 -126.5 55.5t-128 30.5t-145.5 18.5t-122 14.5q-96 12 -233 53q-53 29 -40 78t75 49q92 -37 271 -71t323.5 -82t236.5 -140q20 -39 -16 -59q-27 -6 -91.5 -11.5t-95.5 -17.5 q-113 -41 -215 -95.5t-222 -144.5t-175 -135l-199 -166q-53 -29 -87 11.5t-1 89.5z" />
<glyph unicode="?" horiz-adv-x="782" d="M23 985q6 70 60 132.5t133 104.5t154.5 69.5t145.5 41.5q23 6 107 -8q14 -2 26.5 -11t31.5 -30.5t21 -23.5q23 -23 29 -94.5t-2 -96.5q-33 -188 -115 -310t-237 -210q-12 -16 -33.5 -26.5t-31 -15.5t-2.5 -19.5t38 -43.5q33 -37 76 -43q66 -25 49.5 -82t-84.5 -45 q-53 10 -98 54q-156 137 -70 227q33 35 176 111l9 4q55 27 126 116q117 145 132 295q16 172 -121 170q-121 -4 -264 -121q-100 -78 -123 -147q6 -16 22 -45q16 -59 -32 -81.5t-85 22.5q-42 79 -38 106zM242 109q2 51 63 65q16 23 45 35q29 0 53 -19l17 -11q10 -7 12 -9 q23 -37 6 -72l-6 -24q-20 -47 -67 -64q-27 -6 -39 10q-39 -8 -70 29q-16 48 -14 60z" />
<glyph unicode="@" horiz-adv-x="1359" d="M16 268q4 20 6.5 61.5t8.5 73t20 58.5l103 172q94 154 329.5 298t442.5 169q29 2 184 -13q123 -10 76 -219q-16 -59 -69.5 -217.5t-69.5 -247.5q16 -45 16 -69.5t-16 -83.5q-6 -20 -11 -27v-2q16 -121 111 -98q12 43 55 55q121 4 172 99.5t45 228.5q10 43 44 53 t61.5 -13.5t25.5 -66.5q-57 -217 -198 -352q0 -23 -25 -41q-109 -68 -176.5 -70t-173.5 70q-23 16 -35 41q-102 -70 -227 -82t-201 61q-57 47 -63 76q-6 23 -6.5 45.5t0.5 34.5t14.5 40t16.5 33l24 40q14 27 82 94q125 115 264 123q47 0 67 -33q4 -10 17 -31q29 -20 43 -28 q51 160 102 286q2 4 10 29l14 41l13 44q8 28 10 47.5t2 40t-8 30.5t-22 12q-135 14 -158 12q-180 -20 -375.5 -145t-319.5 -301t-102 -328q4 -35 54 -123l18 -12q74 -143 94 -172q4 -6 27.5 -32.5t34.5 -45.5q172 -139 410.5 -144t410.5 130q57 16 82.5 -28t-15.5 -85 q-111 -72 -194 -86q-178 -31 -406.5 7t-357.5 141q-72 57 -193 235q-2 2 -2 4q-16 10 -24 29q-6 18 -25.5 56t-30 69.5t-6.5 56.5zM526 201q12 -74 133 -92q63 -12 140.5 23.5t124.5 90.5q4 78 18 152l-2 2q-2 4 -5 8t-7 8q-14 12 -90 58q-6 0 -9 8l-6 4l-12 26 q-84 0 -186 -98q-113 -106 -99 -190z" />
<glyph unicode="A" horiz-adv-x="1081" d="M16 438q0 35 30 63.5t55.5 42t77.5 32t54 18.5q82 23 91 24q6 29 8 31q92 268 123 338q16 39 48 108l56 126q25 57 41 112q0 14 14 23h9q14 0 20 -23q0 -2 2 -4q0 -6 -2 -16t-2 -15q-1 -10 -1 -24q0 -28 3 -70q16 -274 21 -325q18 -150 28 -197q36 2 72 2q136 0 264 -31 q23 -10 28 -36q1 -7 1 -13q0 -17 -10 -31q-14 -18 -39 -10q-162 51 -301 53q47 -184 118 -305q10 -16 125 -186l13 -25q12 -25 20 -34q0 -2 2 -3q18 -14 29 -43v-10q-5 -48 -44 -48q-6 0 -12 1q-14 6 -79.5 114.5t-79.5 139.5q-104 182 -146 397q-131 -2 -282 -49l-41 -147 q-6 -29 -23.5 -99.5t-25.5 -107.5q-2 -4 -10.5 -53t-23 -83t-36.5 -42q-35 -4 -46 26.5t9 53.5q14 31 35 131l43 147l45 152q-10 -2 -10 -4q-72 -25 -144 -62q-10 -6 -34 -31l-5 -4q4 -49 -41 -57q-10 0 -22 6q-23 20 -25 47zM391 637q133 31 248 39q-35 197 -35 532 q-23 -59 -92 -221q-4 -4 -4 0q-68 -172 -117 -350z" />
<glyph unicode="B" horiz-adv-x="1114" d="M29 977q25 43 119 78t163 51q4 2 23.5 9t32.5 11v35h2q4 25 18 33q6 4 13 4q8 0 15 -6q13 -10 17 -35v-2v-10q12 2 51 10l60 12q82 12 127 13q14 -2 49 -3t53 -6q43 -8 80 -38q33 -31 43 -96q3 -19 3 -36q0 -41 -17 -73l-50 -82q-33 -51 -120 -121q6 0 18 1t21 1 q4 0 41.5 1t53 0t47.5 -5t54.5 -12.5t40.5 -22.5q80 -68 80 -146.5t-55 -191.5q-23 -43 -83.5 -93t-109.5 -77q-49 -29 -114 -59q-147 -59 -279 -98q-8 -10 -33 -9q-20 -4 -55 -14l-49 -14q-2 0 -4 -1q-20 0 -31 19q-12 20 -6 46t28 36q76 14 103 20q10 72 10 287 q0 25 -1 70t-1 67q-47 -22 -71 -21q-6 0 -11 1q-2 -2 -8 -4q0 2 2 6q-2 0 -2 2q-23 23 0 47q57 43 86 57q-12 279 -14 418l-138 -53q-109 -37 -137 -61q-4 -25 -19.5 -34t-35.5 5q-6 2 -8 10q-11 17 -11 37q0 18 9 37zM426 639q68 37 158 63q205 129 254 263q4 10 8 59 l-21 47q-37 32 -131 32q-16 0 -32 -1q-94 -8 -236 -47q-5 -89 -5 -193t5 -223zM428 551q4 -49 4 -78q16 -175 16 -288q0 -34 -2 -62q209 51 353 133q51 27 83.5 49.5t73.5 69.5t54 104v92q-29 45 -47 60q-66 42 -171 42q-85 0 -196 -28q-115 -68 -143 -80q-2 -2 -6.5 -4 t-9.5 -5t-9 -5z" />
<glyph unicode="C" horiz-adv-x="980" d="M39 368v14q0 73 19 140q22 74 60 155t74.5 139t75.5 112q49 63 94.5 108t72.5 66l110 82q18 14 40.5 22t54.5 16.5t46 12.5q41 0 48 -42q1 -7 1 -13q0 -33 -30 -54q-20 -6 -62.5 -17t-52.5 -14t-37 -16.5t-48 -29.5l-56 -45q-139 -113 -248 -291q-49 -88 -80 -170 q-33 -99 -33 -165q0 -100 46 -161q48 -63 119 -78.5t149 -20.5q26 -2 51 -2q48 0 88 7q29 0 82 -3t79 -3v2q14 4 43 8t42.5 8t35 14.5t41.5 26.5q10 3 18 3q24 0 39 -25q8 -14 7 -29q0 -21 -17 -43q-45 -31 -98 -44t-82 -14q-4 0 -9 -1q-30 0 -95 6q-76 6 -92 6 q-20 2 -70.5 3t-76.5 4t-71 9t-72.5 18.5t-62.5 32t-61.5 50t-46.5 71.5q-33 64 -35 145z" />
<glyph unicode="D" horiz-adv-x="1165" d="M4 1114q4 4 10 11.5l9 11.5q19 16 34 16q18 0 31 -23q31 8 96.5 38t89.5 36q10 4 29 7t29 6v61q6 31 24 42q9 5 18 5l19 -6q18 -12 25 -43q0 -14 -4 -47q91 14 168 13q179 0 284 -73l42 -32l32 -25q8 -6 19.5 -16.5t22.5 -23.5l24 -29l36 -48q57 -80 66 -153 q2 -12 10 -57q7 -39 7 -54q0 -11 -9 -55q-8 -18 -19.5 -52t-21.5 -59.5t-22 -46.5q-104 -190 -457 -379q-68 -37 -170 -78q-10 -4 -29.5 -11t-29.5 -11q-18 -10 -29 -8q-49 -16 -195 -27q-40 9 -40 57q0 38 36 50q12 0 59.5 -1t59.5 3q4 0 22.5 3t28.5 5q31 115 42 235 q9 95 9 165q0 19 -1 36q-3 80 -12 227.5t-11 229.5q0 18 -2 55t-2 57q-8 -4 -20.5 -6t-18.5 -6q-27 -6 -83 -36.5t-106 -47.5q-26 -9 -48 -9q-20 0 -38 7q-28 24 -27 50q0 18 13 36zM399 143q289 90 496 279q88 78 133 156q43 74 43 167q0 103 -67 213q-55 92 -160 150 q-103 53 -250 53q-86 0 -186 -18q-9 -84 -9 -145v-23q0 -94 8.5 -263t8 -307.5t-16.5 -261.5z" />
<glyph unicode="E" d="M55 138q6 62 23.5 166t17.5 159q0 10 -4 76q-4 18 0 41q-12 172 -12 275.5t12 139.5q16 53 42 91t69 65t69.5 39t86 31.5t75.5 25.5q12 4 60.5 23.5l68 27t57 19.5t68.5 18t64 8q50 0 50 -66q0 -53 -46 -60q-158 -6 -475 -127q-117 -43 -131 -125q-10 -39 -11 -142 q0 -79 6 -196q31 4 88.5 29.5t79.5 31.5q147 27 266 27q73 0 136 -10q29 -16 35 -50t-12.5 -58t-49.5 -15q-4 2 -26.5 9t-34.5 15q-93 28 -173 28q-36 0 -69 -5h6q-18 -8 -57 -20.5t-60 -20.5q-25 -12 -64.5 -43t-59.5 -41q0 -20 -5 -53q-2 -29 -14 -115t-18 -157 q-4 -42 -4 -78q0 -24 2 -46q10 14 32 33q109 72 239 88q65 8 147.5 8t183.5 -8q201 -16 248 -16q36 -19 36 -64q0 -57 -47 -61q-45 2 -235 32q-149 23 -259 23q-30 0 -57 -2q-125 -8 -227 -70q-12 -6 -30.5 -28.5t-28.5 -28.5q-11 -7 -20 -7q-17 0 -25 28q-14 71 -14 123 q-1 17 1 33zM365 625q8 0 10 2q-4 -2 -10 -2zM375 627q4 0 6 2h2l-2 -2h-6zM627 606l2 -2q-2 0 -2 2zM637 602l20 -6z" />
<glyph unicode="F" d="M37 1188q0 25 20 37l4 4q6 1 12 1q30 0 40 -30q14 -12 55 -18t83 -8.5t48 -4.5q100 -14 155 -18q36 -3 85 -3q24 0 52 1q83 2 150.5 25.5t128.5 70.5q13 3 24 3q34 0 53 -27q10 -14 10 -29q0 -23 -25 -47q-59 -39 -128 -59.5t-116 -27.5q-24 -4 -57.5 -4t-77.5 4 q-88 7 -121 12t-141 24q-14 2 -73.5 8t-92.5 14q6 -49 12 -144t6 -104q4 -41 9 -118l6 -117q74 -23 158 -26q28 -1 54 -1q50 0 87 4q55 6 161 23q39 0 56.5 -26.5t2.5 -55.5t-54 -33q-2 0 -56 5l-114 12q-61 6 -86 6q-203 -18 -205 -19q2 -35 5 -101.5t7 -101.5 q6 -199 8 -221q2 -8 4 -10q0 -6 1 -14t1 -13v-2h-2q-8 -53 -51 -56h-5q-39 0 -58 42q-2 4 -2 14q-2 2 -2 13q-2 8 0 16q-1 34 -2 56q0 11 1 20q1 25 4 76t3 79q2 80 2 238q-10 23 0 45v268q-14 240 -25 291q-6 7 -14 27z" />
<glyph unicode="G" horiz-adv-x="1087" d="M43 455q4 80 4 92t7 54t8 42t21.5 53.5l33.5 87.5q55 145 197.5 269.5t306.5 212.5q18 10 40.5 15t51 8t45.5 7q45 0 52 -44q1 -7 1 -13q0 -34 -31 -53q-109 -14 -129 -23q-139 -45 -270 -158.5t-207 -259.5q-71 -139 -71 -258q0 -72 26 -137q70 -172 268 -223 q104 -28 193 -28q151 0 260 81q57 41 72 130q4 28 4 55q0 60 -22 116q-32 82 -95 103h-74q-12 0 -22 10q-66 -20 -140 -62q-8 -8 -28.5 -16t-30.5 -16q-6 -27 -26.5 -36t-45.5 9q-12 16 -17 30.5t-4 26t5 20.5t14 16l19 14q8 6 23.5 11t23.5 8t23.5 7t19.5 6q20 8 45 16 l54 16l48 15q12 37 52 37h69l158 41q31 0 45 -26q8 -15 8 -31q0 -12 -5 -25q-11 -29 -44 -30h-59q2 -8 6 -9q90 -164 90 -274q0 -71 -37 -121q-4 -6 -35 -49t-51 -61q-49 -43 -124 -61q-64 -15 -120 -15q-10 0 -19 1q-65 3 -128 5q-100 0 -237.5 76t-170.5 176 q-6 18 -20.5 50t-22.5 59.5t-8 52.5z" />
<glyph unicode="H" d="M30 527q-1 6 -2 13q0 32 44 46q18 4 58 10t58 10q-23 172 -26 207q-2 23 -9.5 88.5t-13.5 102.5l2 -25q-2 6 -8 38t-10 48q-18 14 -21 41v8q0 4 2 10q12 39 60 39q23 -4 38 -28.5t19 -64.5t6 -69q1 -14 1 -32t-1 -39q-2 -43 -2 -45q0 -141 21 -267q164 35 491 97 q0 25 -1 92q-1 34 -0.5 59.5t0.5 43.5q1 36 3 91.5t9.5 100.5t17.5 88q0 12 2 18q0 2 4 6q19 27 42 27q9 0 19 -4q34 -14 33 -55q-14 -57 -28 -101v2q-33 -170 -50 -358q23 4 68 10t68 10q35 0 50 -21q9 -12 8 -25q0 -10 -5 -20q-12 -24 -47 -26q-98 0 -146 -2 q-4 -68 -4 -133q0 -178 33 -328q6 -14 21 -40q3 -10 3 -19q0 -25 -28 -39q-13 -7 -26 -6q-22 0 -40 20q-25 49 -31 123q-5 47 -5 86q0 22 2 41q4 53 13 143.5t11 118.5q0 25 2 31q-152 -12 -229 -31q-96 -18 -250 -67q17 -142 17 -253t-17 -189q-2 -12 -9 -23.5t-17.5 -26 t-14.5 -22.5q-21 -18 -42 -18q-12 0 -25 6q-25 12 -24 37q0 9 3 20q4 8 19.5 27.5t21.5 31.5q39 87 39 237q0 70 -8 152l-55 -18q-36 -12 -52 -18q-9 -1 -16 -2q-38 0 -46 35z" />
<glyph unicode="I" horiz-adv-x="641" d="M57 70q4 16 11.5 28.5t14.5 19.5t21 13l22 9q7 3 27.5 8.5t26.5 7.5q18 6 41 6q2 14 6 38.5t4 30.5q0 20 2.5 50l4.5 55q4 133 20 416.5t21 433.5q-59 -18 -121 -60q-37 -4 -50 30q-4 10 -4 19q0 23 23 42q141 29 158 30q10 23 29 25h4q17 0 32 -17q34 3 68.5 3t68.5 -3 q27 -10 33 -35.5t-10 -44t-43 -10.5q-41 18 -45 21q-41 10 -64 10q-6 -61 -23.5 -190t-27.5 -227.5t-12 -190.5v-28q0 -62 6 -178q4 -72 4 -127.5t-4 -94.5l75 -12q51 -8 67 -7h6q10 2 73 9q27 0 39 -22q7 -12 7 -24q0 -10 -5 -21q-10 -24 -37 -28q-61 0 -132.5 24.5 t-82.5 26.5q-10 -35 -37 -34q-6 0 -14 2q-23 6 -31 24q-66 -29 -90 -43v-4q-18 -32 -44 -32h-7q-31 6 -31 51zM444 1178h2h-2z" />
<glyph unicode="J" horiz-adv-x="788" d="M70 221q-7 18 -7 33q0 28 26 43q13 7 24 7q25 0 45 -34q37 -92 86 -125q4 -4 16 -9t16 -11v-2q52 -19 88 -19q72 0 80 76l2 51q0 45 -5 93q-7 74 -26.5 180t-25.5 143q-25 171 -25 351q0 104 9 210q-25 -2 -83.5 -10t-82.5 -10q-12 -1 -33.5 -1t-52.5 1q-31 4 -41 30.5 t5 51t48 24.5q23 -6 58.5 -12t50.5 -8q2 0 0 -2q17 -2 51.5 -2t85.5 2v4q12 45 49 45t49 -39q102 10 197 29q33 0 47 -25q8 -13 8 -27q0 -12 -6 -25q-12 -28 -45 -32q-90 8 -207 8q-4 -18 -8 -53l-6 -53v2q-16 -175 -17 -305q0 -80 6 -144q20 -197 27 -229q2 -16 14.5 -73.5 t14.5 -77t6 -77.5q1 -17 1 -30q0 -33 -7 -45q-14 -55 -58 -81q-38 -23 -83 -23q-5 0 -11 1q-51 3 -100 21t-84 47q-49 37 -96 131zM459 1130v13v-13z" />
<glyph unicode="K" horiz-adv-x="976" d="M39 59q39 305 63 705q1 14 1 41q0 66 -4 211q-1 53 -1 96q0 119 11 154q8 27 26 37q9 5 18 4l19 -5q18 -11 25 -38l6 -68q-6 -31 -19 -45q-25 -258 -41 -754q217 350 265 437q25 41 64.5 127t77.5 149.5t87 108.5q25 20 50.5 10t28.5 -37t-18 -55q-35 -31 -69.5 -76 t-55.5 -81l-53 -96l-51 -91q-61 -102 -254 -383q60 55 119 55q16 0 31 -4q76 -18 163.5 -117.5t122.5 -122.5q39 -31 80 -44q38 -12 75 -12h6q40 1 89 3q33 0 45 -25q6 -13 7 -26q0 -13 -6 -26q-11 -28 -42 -32q-70 0 -108.5 3.5t-93 25t-95.5 62.5q-29 27 -75 87t-89 101 t-92 55q-15 5 -29 5q-23 0 -44 -12q-35 -19 -78 -63t-60 -57q-2 -37 -4 -104.5t-4 -104.5t-24 -51q-11 -7 -22 -7l-24 8q-22 15 -24 52z" />
<glyph unicode="L" horiz-adv-x="886" d="M25 61q12 25 44.5 75t47.5 91q39 98 69.5 211t62.5 253t50 212l-2 -4l-6 -14q27 141 100 284q19 25 45 26q10 0 20 -4q38 -13 33 -54q-39 -59 -104 -240q-29 -74 -53.5 -156t-54 -190.5t-46.5 -159.5q-27 -82 -88 -246l2 2q76 45 226 58h14q76 0 206 -38q110 -32 169 -33 q17 0 31 3q49 0 57 -36q1 -6 1 -11q0 -27 -36 -41q-18 -3 -40 -3q-76 0 -187 40q-143 51 -211 51q-137 0 -193 -39q-8 -6 -34.5 -30.5t-49.5 -35.5q-19 -10 -38 -10l-7 1q-31 2 -31 25q1 5 3 13z" />
<glyph unicode="M" horiz-adv-x="1044" d="M23 78q-1 6 -1 11q0 17 10 29q13 15 36 17q4 16 10 45t10 43q92 383 115 592q2 10 4 73.5t9 118t20 66.5q23 16 45 8q16 -8 25 -34.5t11 -64.5t2 -69.5t-2 -65.5t-2 -36q10 -301 60 -508q35 -117 41 -133q20 70 26 86q92 276 174 492l16 44l17 50q8 82 12.5 115.5 t19.5 96t42 107.5q11 17 31 17q7 0 16 -2q2 -2 6 -2q10 -8 19 -27q0 -57 -52 -221q-4 -10 -10 -28.5t-8 -23.5q-17 -180 -17 -310q0 -84 7 -148q4 -63 30 -137q43 -125 148 -236q12 -12 34.5 -31.5t33.5 -31.5q12 -16 22 -23q39 -12 39 -55v-4l-2 -4q-18 -35 -51 -37 q-12 2 -21.5 5t-18.5 10l-15 11q-5 4 -15 15.5t-14 15.5q-170 152 -219 312q-38 124 -38 290q0 48 3 100q-29 -80 -31 -84l-141 -391q-4 -10 -6 -31.5t-9 -31.5q-13 -21 -26 -21q-12 0 -25 17q-16 25 -53 137q-55 168 -80 387q-16 -125 -70 -371q-33 -150 -55 -190 q-12 -12 -45 -21h-10q-35 6 -49 39zM381 272v-2q-2 4 -2 6q-1 0 -1 -0.5t3 -3.5z" />
<glyph unicode="N" horiz-adv-x="980" d="M49 1184v6h2q10 24 34 23h2q26 -1 36 -29h2q0 -162 58.5 -316.5t182 -367.5t160.5 -289v39q27 264 92 471q43 156 115 278q8 16 54.5 70.5t52.5 83.5q-2 7 -2 14q0 28 28 42q14 7 30 8q21 0 42 -15q21 -23 21 -48q0 -18 -11 -37q-12 -22 -26.5 -40t-36 -40.5t-29.5 -35.5 q-31 -43 -53 -86q-133 -250 -185 -577q-4 -20 -17 -160.5t-21 -159.5q-15 -26 -33 -25q-15 0 -33 17v-2q-4 0 -4 8q-10 4 -10 23q-10 27 -15 86q-4 31 -19 68.5t-25.5 58l-37 69t-30.5 56.5l-84 148l-101.5 184.5t-68.5 150.5q4 -242 18 -358q4 -55 28 -205q22 -138 22 -216 q0 -7 -1 -13q-4 -35 -31.5 -47.5t-54 2t-28.5 49.5q1 8 0 21q0 54 -13 198q0 -27 2 -41q-25 250 -25 526q0 197 13 408zM61 250q0 -14 2 -19v-2q0 13 -2 21z" />
<glyph unicode="O" horiz-adv-x="929" d="M43 575q16 242 123 476q18 35 58 97t46 73q23 39 67 73.5t87 40.5q7 1 14 1q14 0 28 -3q22 -4 48.5 -13t42.5 -13q29 -10 38 -33t-3 -43q35 -8 65.5 -27.5t56 -55.5t43 -63.5t36.5 -78.5l26 -75q8 -24 23.5 -78t17.5 -62q40 -160 40 -296q0 -121 -32 -223 q-47 -133 -218 -205q-131 -56 -248 -56q-37 0 -72 5q-113 12 -194 114.5t-85 215.5q-9 123 -9 191q0 22 1 38zM117 350q10 -66 19 -101.5t39 -68.5t47 -45l85 -57q16 -12 64 -12q20 -2 41 -3q92 0 194 45q125 54 180 148q42 65 43 178q0 12 -1 26q-5 132 -28.5 239.5 t-58.5 203.5q-49 129 -110 193q-14 14 -30.5 22t-26 13.5t-32 3.5t-26.5 -3l-34 -9q-30 -7 -33 -7q-8 -2 -16 -1q-31 0 -46 28q-8 14 -7 27q0 18 15 32q-27 -16 -45 -35q-125 -139 -186 -368q-56 -185 -56 -336q0 -59 9 -113zM422 1217q2 0 2 2q27 6 33 6l-15 6q-2 -2 -9 -6 t-11 -8z" />
<glyph unicode="P" horiz-adv-x="929" d="M49 74q6 47 37 141t39 143q51 363 51 557v15q-4 82 -12 166q-16 2 -31 24q-29 4 -41 24.5t-2 42t39 30.5h2q2 12 3 38.5t1 38.5q10 31 34 38q7 2 13 2q18 0 37 -13q0 -4 3 -12.5l5 -14.5q2 0 2 2v-10q10 -31 13 -63q4 2 15 3t15 1q33 2 64 1q223 0 369 -77q82 -43 92 -53 q6 -6 22.5 -20.5t26.5 -26t16 -23.5q4 -10 15.5 -27.5t17.5 -32t6 -28.5q-4 -76 -8 -88q-14 -43 -52 -79t-101.5 -60.5t-117 -41t-135 -28.5t-118.5 -16l-103 -11q-29 2 -43 25l-18 -285q-4 -43 -23.5 -127t-23.5 -125q6 -14 6 -34q-4 -4 -6 -9l-4 -8q-21 -35 -52 -35 q-5 0 -11 1q-38 8 -42 55zM227 694q10 14 35 23q164 0 266 16q45 6 78 12.5t84 22.5t83 36.5t52 54.5q16 26 16 58q0 9 -1 19q-10 72 -82 119q-33 25 -82 41q-114 45 -281 44q-70 0 -149 -7q0 -14 -6 -203l-7 -119z" />
<glyph unicode="Q" horiz-adv-x="966" d="M35 537q20 162 76.5 313t128.5 235q57 70 120.5 114t142.5 44t142 -67q10 -10 16.5 -26.5t13.5 -38.5l11 -34q4 -33 -4 -45q23 -14 51 -43q72 -78 110 -218t38 -263q0 -141 -54 -254q109 -133 121 -305q-4 -37 -29 -50q-12 -6 -24 -7l-28 9q-26 15 -27 52q5 32 4 63 q0 101 -51 183q-109 -152 -324 -170q-41 -4 -76 -5q-87 0 -145 25q-131 47 -182 187q-37 99 -37 210q0 45 6 91zM100 518q-4 -34 -4 -67q0 -92 29 -187q39 -129 145 -166q46 -16 110 -16q39 0 85 6q201 29 280 166q-88 88 -233 100q-35 4 -46 32t5 52.5t53 24.5 q141 -39 250 -148q26 70 26 160q0 60 -12 129q-18 119 -68 231.5t-136 131.5q-10 2 -101 2q-35 4 -47 30.5t4.5 51t53.5 24.5h22h59q-10 45 -38 64q-18 11 -41 10q-45 0 -105 -44q-90 -67 -131 -132q-78 -119 -110 -225q-36 -105 -50 -230z" />
<glyph unicode="R" horiz-adv-x="933" d="M45 645q41 33 123 37q-2 61 -13.5 217t-13.5 242q-8 0 -10 2q-39 8 -64 36q-16 17 -16 37q0 12 5 25q15 35 91 57v2v3l3 4v2q12 35 44 38h5q28 0 41 -30q62 10 119 10q156 0 272 -78q67 -61 66 -182q0 -127 -48 -199q-82 -135 -213 -211q37 -12 84 -34q66 -37 111 -95.5 t94 -160t68 -131.5q18 -33 30.5 -49.5t18.5 -23.5t29 -28l40 -35q12 -19 12 -35q0 -19 -15 -34.5t-32 -15.5q-15 0 -32 12q-8 8 -25.5 23.5t-30 28.5t-22.5 27q-41 61 -88 163t-77 160t-100.5 112.5t-176.5 68.5q-53 -14 -103 -16q12 -197 12 -295q0 -106 -4 -135 q0 -8 -4 -20.5t-4 -20.5q6 -16 6 -35l-10 -18q-8 -16 -14 -25q-21 -21 -41 -21q-8 0 -16 4q-28 11 -31 52q4 16 16 55t16 62q18 150 23 393q-51 0 -104 6q-29 7 -30 25q0 10 9 24zM219 682h21q57 0 112 -6q141 59 228 188q56 85 56 175q0 47 -15 96q-31 84 -156 105 q-48 8 -93 8q-72 0 -136 -21q-18 -220 -19 -399q0 -60 2 -115v-31z" />
<glyph unicode="S" d="M35 377q-3 17 -3 31q0 40 25 57q7 4 14 4q20 0 33 -37q51 -160 116 -220t190 -81q74 -12 141 -12q108 0 199 31q96 31 154 115q35 51 35 123q0 48 -15 106q-12 43 -42 76.5t-50.5 47t-57.5 33.5q-61 25 -231 47q-10 2 -57.5 4.5t-82 8.5t-57.5 18q-12 6 -47 47 q-8 14 -8 37q0 80 2 88q31 96 121 180t176 126t166 67h73q30 -19 30 -60q0 -54 -38 -63q-11 1 -22 1q-187 0 -361 -161l-14 -14l-16 -16q-4 -4 -14.5 -16.5t-14.5 -18.5l-12 -19q-8 -12 -11.5 -22.5t-6.5 -24.5t-5 -29q14 -16 32.5 -27t45.5 -16.5t41 -7.5t47 -4t37 -2 q113 -18 183.5 -43.5t158.5 -87.5q68 -47 85 -159q6 -39 6 -76q0 -72 -22 -142q-33 -106 -100 -143q-154 -84 -342 -94q-16 -1 -32 -1q-166 0 -263 60q-106 66 -186 289z" />
<glyph unicode="T" horiz-adv-x="1144" d="M-4 1032.5q0 24.5 24.5 46t49 36.5t60.5 27.5t57.5 18.5t37.5 10q133 31 267 41q16 29 43.5 29t42.5 -24q162 0 266 -19.5t272 -83.5q24 -21 24 -44q0 -11 -5 -22q-13 -29 -46 -30q-7 0 -16 2q-168 86 -259 112.5t-232 26.5q-12 -63 -15.5 -183t-5.5 -140 q-2 -35 -9 -181.5t-11 -207t-16.5 -169t-28.5 -196.5q-19 -37 -49 -37q-5 0 -10 1q-36 7 -40 56q84 295 99 547v29q0 78 -9 218q-6 106 -6 180q0 44 2 77q-182 -18 -385 -133q3 -12 4 -22q0 -26 -24 -39q-11 -6 -22 -5l-44 23q-16 31 -16 55.5z" />
<glyph unicode="U" horiz-adv-x="966" d="M39 580q-9 105 -9 213q0 130 13 266q-4 8 -4 10t2 9t2 12q16 40 56 39h2q42 -1 55 -42v-20l-2 -2q-2 -2 -2 -4v-10h-2q-4 -39 -11 -64q-16 -152 -16 -248q-1 -26 -1 -50q0 -170 25 -279q14 -68 38 -124.5t64 -111.5t104 -85q53 -25 121 -25q14 0 28 2q47 0 88 34 q78 53 135 201q6 14 27 70q25 70 28 94q8 12 18.5 49t14.5 45q2 25 6 85.5t5 92t2 81.5q0 13 1 25q0 36 -3 68q-3 43 -9 84q-2 12 -8 52t-13.5 73t-21.5 56q-37 -4 -54 23q-7 11 -7 24q0 17 14 37q4 4 12 8l13 6q20 11 41 11l40 -11q57 -51 76 -207q12 -91 13 -183 q0 -184 -50 -370q0 -2 -4 -81t-4 -83q-12 -59 -11 -120q0 -152 73 -316q2 -8 2 -16q0 -20 -16 -34q-16 -15 -37 -15q-7 0 -14 1q-30 6 -44 39q-43 244 -55 330q-16 -43 -41 -69q-10 -10 -27.5 -30t-34 -35t-32.5 -28q-80 -49 -162 -49q-20 0 -41 3q-102 15 -186 83t-115 158 q-72 201 -82 328zM139 1008l2 2q2 2 2 6v-2q-2 -2 -4 -6z" />
<glyph unicode="V" horiz-adv-x="1097" d="M16 1186q-4 47 32 61q9 4 18 4q24 0 43 -30h2q0 -6 2 -7l2 -2v-10q33 -123 83 -256t115.5 -290.5t98.5 -247.5q0 -2 8 -21.5t20 -53.5l23 -65q10 51 29 123q104 397 231 631q39 74 129 204t127 195q19 31 43 31q13 0 27 -8q26 -15 25 -41q0 -15 -9 -35 q-41 -66 -125 -176.5t-117 -161.5q-145 -219 -241 -536q-80 -236 -86 -332q17 -56 17 -84q0 -12 -3 -19q-9 -19 -28 -19q-3 0 -7 1q-31 8 -31 82v2l-43 135q-27 74 -100 246q-18 43 -78.5 173t-91.5 204q-23 49 -55.5 142t-50.5 136v2v2q-2 2 -2 4q-2 2 -4.5 8.5t-2.5 8.5z " />
<glyph unicode="W" horiz-adv-x="1060" d="M29 1026q10 41 51 51q35 0 57 -37q14 -41 35 -202q29 -205 57 -334l-2 10l2 -2q20 -98 35 -145q20 100 87 270t81 227q4 18 16.5 25.5t24.5 -0.5t14 -27q68 -360 205 -616h2l49 -92q16 117 39 381t55.5 460.5t94.5 370.5q21 32 46 33q10 0 20 -5q38 -17 34 -71 q-27 -70 -50.5 -149.5t-36.5 -140t-29.5 -161t-22.5 -144.5t-20.5 -161.5l-18.5 -148.5q-4 -27 -11 -90l-12 -98q-4 -34 -16 -84t-29 -89q-14 -28 -31 -28q-14 0 -30 18q-168 262 -268 688q-16 -57 -57.5 -165.5t-55.5 -161.5q-25 -94 -25 -172q-2 -4 -2 -23q29 -74 37 -156 q-4 -33 -27 -41q-6 -2 -12 -2q-17 0 -30 19q-4 4 -4 8h-2v6q-23 68 -29 125l-35 86q-27 66 -37 102q-18 53 -72 289q-8 27 -24 141.5t-29 157.5q-30 19 -30 50q0 13 6 28z" />
<glyph unicode="X" horiz-adv-x="929" d="M66 1236q15 23 40 23q12 0 27 -6q31 -27 56.5 -57.5t52 -73.5l39 -64.5t43 -80.5t38.5 -72q23 -39 66 -123t68 -127q47 84 118 230q6 12 36 82.5l55.5 126t59.5 112t58 68.5q10 5 28 5q9 0 19 -1q40 -15 41 -51q0 -45 -47 -53q-37 -39 -89 -128.5t-108 -197.5l-63 -121 l-76 -131q0 -2 2 -2l2 -4h3l69 -105q51 -76 78 -119.5t52.5 -113.5t25.5 -131q-12 -23 -35 -37q-7 -1 -13 -1q-27 0 -48 21q-18 25 -18.5 46.5t18.5 33.5q-4 27 -17.5 62t-25 57.5l-31 58t-21.5 41.5l-73 136q-176 -313 -363 -523q-18 -11 -33 -10q-19 0 -32 18 q-12 16 -12.5 34t12.5 38q227 217 395 504l-119 221q-49 88 -125 191.5t-143 154.5q-19 21 -20 41q1 14 10 28z" />
<glyph unicode="Y" horiz-adv-x="960" d="M45 1239q-8 17 -8 32q0 24 22 40q15 11 32 11q20 0 40 -17q106 -172 238 -455q14 -35 47 -105q18 6 37 0q68 131 192 306l199 297q19 16 38 16q17 0 32 -13q20 -16 20 -38q0 -15 -10 -33l-275 -348l-44 -58l-46 -61l-37.5 -56.5t-36.5 -64.5v-8q0 -2 -5 -22.5t-11 -28.5 v-2q-6 -37 -9 -75t-5 -67q-1 -19 -2 -44q0 -13 1 -26q1 -42 2 -64.5t5 -72t6 -65.5t8 -73.5t8 -71.5q-4 -35 -29 -48q-12 -6 -25 -7q-13 0 -26 8q-25 14 -26 51q14 186 14 325q0 35 -7 133q-5 62 -5 106q0 26 2 46q-2 6 -72 131q-135 254 -264 422z" />
<glyph unicode="Z" horiz-adv-x="1107" d="M20 53q4 4 13 8q2 20 22 43l189 224q231 283 411 528q137 176 162 248h-13q-113 0 -303 -68q-202 -72 -337 -151l-19 -19l-12 -4q-4 -2 -13 -8t-14 -8q-7 -1 -13 -1q-33 0 -46 36q-5 13 -5 25q0 28 26 50v2q6 0 8 3q123 90 399 171q200 59 318 58q45 0 77 -8 q29 -18 29 -54q-6 -35 -21.5 -68.5t-41 -73.5t-41.5 -61l-52 -65q-35 -43 -41 -49l-415 -524q-12 -12 -30.5 -37t-29.5 -37q157 71 303 71q31 0 62 -3q174 -18 362 -148q23 -18 58 -63t43 -54q11 -20 11 -41q0 -10 -3 -20q-8 -31 -30 -38q-6 -2 -12 -2q-17 0 -36 13 q-12 14 -41 52t-45 55q-141 139 -355 154q-27 2 -52 2q-181 0 -316 -95q-16 -10 -32.5 -23.5t-35 -33t-30.5 -29.5q-18 -12 -32.5 -2t-16.5 37v4z" />
<glyph unicode="[" horiz-adv-x="557" d="M47 1378q8 43 92 54q29 4 78 6q23 2 66 3t65 1q29 -12 38 -40t-4 -51.5t-46 -25.5q-164 6 -191 6q-2 0 -18 -4q2 -23 9 -62.5t9 -47.5q12 -98 13 -203q2 -96 -8.5 -274.5t-10.5 -256.5q-2 -111 2 -323q96 35 348 -51q35 -35 19 -77t-64 -30q-4 2 -36 17l-44 21 q-11 5 -42 17.5t-49.5 14.5t-44 4t-46 -4t-37.5 -19v-8q-12 -23 -30.5 -29t-32.5 6.5t-14 38.5q2 82 16 383t10 465q-16 250 -24 297q-29 145 -23 172z" />
<glyph unicode="\" horiz-adv-x="677" d="M53 1376q29 41 69 25.5t36 -60.5v-2q2 0 8 -12q63 -279 278 -706q135 -274 172 -398q14 -49 23 -96q2 -18 1 -27.5t-5 -29t-4 -29.5q-16 -27 -42 -34t-46.5 8.5t-22.5 45.5q6 35 7 69t-6 75l-11 63q-4 23 -22.5 74l-23.5 64l-28 69q-45 115 -184 391.5t-191 436.5 q-22 50 -8 73z" />
<glyph unicode="]" horiz-adv-x="583" d="M26.5 51q8.5 33 45.5 45q25 4 113.5 27.5t136.5 19.5q2 0 8 -2t10 -2q2 43 -2 134.5t-4 117.5q8 254 57 748q16 160 39 235q12 49 23 74q-10 0 -25.5 -2t-28.5 -4l-12 -2q-39 -4 -276 -21h-7h-18h-6q-47 14 -47 70v2v2l2 2q8 20 14 29q4 4 9 7t10 5l12 6q2 0 6 1t6 1h6h2 q8 0 11 -2q59 0 90 -2h-37h135q82 0 123 2q45 2 75.5 0t44 -16.5t7.5 -45t-33 -83.5q-35 -66 -59 -275q-31 -211 -37 -336q0 4 2 7q-18 -313 -10 -500q2 -18 10 -77.5t8 -83t-4 -77.5q-20 -35 -47 -37q-10 2 -30.5 8.5t-31.5 8.5q-27 2 -66.5 -9.5t-87.5 -30t-67 -22.5 q-37 -4 -57.5 20.5t-12 57.5zM496 1452h4h-4z" />
<glyph unicode="^" horiz-adv-x="466" d="M53 1364q6 16 25 22q10 10 10 9l-2 -2q0 -4 -2 -4h2q18 14 81.5 112t117.5 105q8 0 20 -7q25 -31 62 -137q49 -129 79 -186q8 -37 -20.5 -48t-52.5 13q-2 6 -14.5 38t-16.5 50q-2 8 -12.5 67.5t-22.5 106.5t-26 62q-12 -10 -79 -130t-112 -120q-23 4 -33 18.5t-4 30.5z M80 1382l4 4h-2q0 -2 -2 -4z" />
<glyph unicode="_" horiz-adv-x="1060" d="M4 8q-8 43 35 74q41 16 94 25.5t91 12.5t101.5 7t92.5 6l148 17q110 12 166 15t142.5 -7.5t153.5 -40.5q45 -39 23.5 -85t-80.5 -34q-8 6 -30.5 21.5t-37.5 23.5q-129 51 -372.5 28.5t-397.5 -89.5q-27 -41 -80 -33q-2 2 -8 6l-9 6q-3 2 -7 6l-7 7q-3 3 -6.5 7.5 t-5.5 7.5t-3 8t-3 11z" />
<glyph unicode="`" horiz-adv-x="305" d="M43 1444l10 20q12 29 51 29q31 -12 46.5 -29.5t30 -52.5t22.5 -47q35 -57 69 -104q8 -25 -10 -39.5t-42.5 -10.5t-35.5 27q-23 131 -67 172q-23 -12 -46.5 -3t-27.5 38z" />
<glyph unicode="a" horiz-adv-x="987" d="M33 322q6 96 67 251q6 14 13.5 26.5t12.5 23t15 22.5l16 19q5 6 18 18t19 16l21 17q16 12 19.5 15t21.5 16.5t23 15.5q15 5 27 5q28 0 43 -27q8 -14 8 -28q0 -23 -21 -44q-78 -47 -88 -56q-113 -104 -139 -301q-3 -24 -4 -46q0 -79 40 -131q38 -50 109 -50q24 0 51 6 q78 14 143.5 63.5t104.5 122.5q-5 41 -5 86q0 76 15 162q-20 41 -61 58q-14 6 -42 7t-38 3q-52 11 -52 52q0 58 64 58q8 -2 40 -6t52.5 -10t34.5 -20q6 -6 15.5 -13.5t13.5 -11.5q4 14 20 66q2 10 8.5 18t17.5 17.5t15 15.5q19 16 37 15q18 0 36 -14q21 -18 21 -40 q0 -15 -10 -33q-41 -35 -84 -139l5 -10q3 -6 6.5 -14.5t5.5 -14.5q4 -10 5 -24.5t1 -30t-1 -27.5t-1 -23l-2 -10q-2 -84 -49 -155q18 -57 55 -80q27 -18 60.5 -20.5t58 5t64.5 23.5t54 20q49 0 59 -42q2 -7 1 -13q0 -32 -37 -53q-20 -2 -77.5 -14.5t-84.5 -14.5h-9 q-24 0 -59 8q-42 10 -75 39q-33 33 -56 82q-68 -74 -162 -115q-87 -37 -167 -37q-8 0 -16 1q-87 4 -145 79q-53 69 -53 190q0 13 1 26z" />
<glyph unicode="b" horiz-adv-x="782" d="M53 -93q-15 17 -15 37q0 21 17 44q25 18 38 51t17.5 56.5t7.5 69.5t5 62q5 63 5 145q0 41 -1 87q-49 0 -59 65q2 49 55 78q-4 88 -11.5 184.5t-17.5 213t-14 182.5q12 52 53 52h5q46 -3 59 -56q-8 -242 -9 -404q0 -81 2 -141l23 7q16 5 25 9q66 16 144 18h5q77 0 156 -33 q82 -34 116 -95q43 -76 58 -113q12 -30 12 -65t-12 -75q-25 -81 -74 -118q-84 -66 -158 -96q-43 -18 -126 -36t-107 -24q-35 -4 -55 17q-4 -43 -11 -66q-4 -16 -55 -67q-19 -10 -36 -10q-24 0 -42 21zM193 512l4 -109q9 -155 9 -235q0 -27 -1 -45q16 6 22 10q25 4 72 7 t86 8.5t72 15.5q74 20 132 68.5t76 115.5q4 14 3 28q0 55 -54 113q-76 84 -204 89h-15q-119 0 -202 -66z" />
<glyph unicode="c" horiz-adv-x="718" d="M33 293q0 23 6 44t19.5 58t15.5 43q8 25 24.5 47.5t44 50t39.5 42.5q35 43 96.5 73.5t98.5 40.5t128 27.5t103 19.5q53 0 64 -47q2 -8 2 -16q0 -35 -39 -55q-33 -4 -92.5 -7.5t-85 -6.5t-67.5 -13t-78 -28.5t-76 -47.5q-57 -41 -102 -120q-36 -65 -36 -133q0 -14 1 -28 q9 -83 100 -114q41 -14 82 -17h16l65 7q41 8 72 19l79 29l77 27q53 0 63 -48q2 -9 2 -16q0 -36 -39 -56q-12 -2 -110 -31q-81 -24 -131 -24q-11 0 -21 1q-16 2 -46 5l-48 6q-18 2 -42.5 7t-43.5 13q-70 29 -109 98q-33 58 -34 123z" />
<glyph unicode="d" horiz-adv-x="776" d="M37 303q-3 18 -3 37q0 95 71 195q85 119 194 133q15 4 30 3q20 0 42 -5q4 27 28.5 40t55.5 1l41 -21q29 -14 43 -24l7 97q5 69 9 105q0 317 33 387q20 33 47 34q6 0 13 -2q36 -9 48 -54q0 -6 4 -27q-6 -39 -28 -55q-4 -12 -29 -182q-43 -221 -45 -377q41 -72 46 -133 q1 -12 1 -26q0 -52 -16 -118q37 -106 102 -178q12 -24 12 -43q0 -28 -24 -47q-16 -13 -33 -13q-24 0 -47 29q-43 63 -66 121q-63 -92 -163 -140q-53 -25 -101 -25q-42 0 -80 20q-10 6 -29.5 15t-25.5 13.5t-18.5 10.5t-16.5 11t-11 9t-13 12.5t-11.5 13.5t-13.5 19.5 t-13 21.5t-18 29q-10 14 -14 32t-5 43.5t-3 37.5zM118 305v-11q0 -147 134 -198q33 -12 65 -12q57 0 109 40q82 62 117 169q-13 64 -13 166v53q-23 37 -71 59q-16 -29 -49 -30q-20 2 -48 8t-41.5 7t-34 -3t-44.5 -18q-119 -74 -124 -230z" />
<glyph unicode="e" horiz-adv-x="829" d="M53 299q-15 47 -15 88q0 45 19 82q14 25 43 68t35 51q14 20 34.5 36.5t52.5 34t46 27.5q51 36 145 36h24q112 -5 163 -60l18 -17q18 -16 34 -33l38 -41q23 -25 35 -47t18.5 -44.5t-6 -41t-41.5 -28.5q-27 -10 -57.5 -14.5t-67 -7.5t-59.5 -7q-20 -4 -57 -8t-56 -8 q-4 0 -49 -10.5t-77.5 -13.5t-61.5 -1h-8q-4 2 -17 2q-37 25 -37 63q0 43 50 60q2 0 7 1t8 1h9q6 0 4 0q2 0 8.5 -1t8.5 -1q68 2 262 20q84 4 135 11q-37 68 -90 104q-49 39 -131 49h-12q-88 0 -169 -54q-87 -58 -116 -153q-9 -29 -9 -55q0 -59 44 -109q63 -73 168.5 -103 t216.5 -38q20 -1 38 -1q84 0 138 30q16 6 29 6q34 0 48 -39q5 -14 5 -27q0 -35 -39 -59q-74 -29 -152 -31h-10q-73 0 -156 26q-88 28 -143 51.5t-149 70.5q-66 35 -99 135zM678 500q2 0 2 2h-2v-2z" />
<glyph unicode="f" horiz-adv-x="808" d="M29 596q-4 16 -5 29q0 30 23 48q33 26 92 42q4 178 25 356q6 43 57 180q37 106 144 144q57 20 115 19q50 0 102 -14q111 -32 174 -108q12 -23 12 -42q0 -26 -24 -44q-16 -12 -32 -12q-24 0 -48 27q-14 23 -33 37t-30 20t-41 16.5t-44 16.5l25 -4l-27 4q-27 4 -51 4 q-119 0 -176 -101q-90 -153 -90 -412q0 -36 2 -75q110 24 204 24q138 0 246 -51q28 -22 28 -46q0 -17 -13 -37q-19 -27 -44 -26q-18 0 -38 13q-99 80 -213 80q-79 0 -166 -39l11 -122q7 -77 9 -103l11 -78q9 -63 14.5 -111.5t7.5 -111.5v-17q0 -48 -10 -61q-22 -43 -55 -43 q-11 0 -22 4q-36 14 -36 51q0 13 4 29l2 4q0 4 2 6q0 84 -2 250t-2 250q-14 -39 -52 -41h-3q-35 0 -53 45z" />
<glyph unicode="g" horiz-adv-x="772" d="M45 344q0 70 23 117q49 131 112 205q68 76 131 95q39 12 93 12q34 0 73 -5q42 -13 42 -49q0 -45 -52 -49q-76 14 -86 14q-68 -2 -132.5 -63.5t-99 -142.5t-41.5 -166q-1 -11 -1 -21q0 -70 43 -115q75 -84 184 -84q18 0 37 2q133 16 207 123q-2 19 -2 43q0 55 10 133 q6 25 24 33q-6 20 -13 40.5t-19 43.5l-21 37q-8 14 -27 44l-24 40q-7 16 -7 29q0 26 28 39q13 6 25 6q26 0 46 -29l47 -88q33 -59 40 -87t15 -114q2 -22 3 -36q0 -30 -29 -99q-1 -17 -1 -36q0 -28 2 -58q3 -51 7 -83t14 -98l15 -90q12 -83 11 -144q0 -98 -30 -140 q-43 -55 -74 -70q-10 -6 -24 -10q-61 -20 -141 -33q-42 -6 -86 -6q-40 0 -83 5q-89 11 -122 60q-27 39 -33 94q-3 27 -3 50t3 43q6 39 21 98q10 43 45 44q6 0 14 -2q47 -9 43 -60q0 -2 -12.5 -36t-16.5 -51.5t-9 -47t0 -51t17 -38.5q35 -45 154 -44q29 0 61 2q172 13 201 79 q14 37 18 85q1 12 0 25q0 38 -7 84q-9 60 -18 104t-26 113l-22 95l-12 -12q-14 -14 -31 -24.5t-41.5 -21.5t-38.5 -20q-16 -8 -38.5 -12t-50.5 -6t-38 -4q-19 -3 -36 -4q-55 0 -99 35q-100 72 -134 123q-29 44 -29 125q0 14 1 30z" />
<glyph unicode="h" horiz-adv-x="755" d="M55 1122q2 41 15 58q20 29 52 28.5t50 -30.5q2 -4 6 -10.5t4 -8.5q3 -11 3 -21q0 -25 -19 -38q0 -12 2 -15q0 -49 1 -141t1 -137q0 -143 12 -422q55 162 129 287q35 63 104 87q20 7 39 7q47 0 91 -41q23 -27 39 -55.5t29.5 -67.5t20.5 -63.5t15 -74.5l10.5 -65.5t8.5 -75 t6 -65.5q2 -8 4 -43t5 -56.5t12.5 -48t23.5 -40.5q12 -21 12 -38q0 -24 -23 -40q-16 -11 -32 -12q-24 0 -47 26q-63 80 -64 359q-2 14 -6 73.5t-8 90t-20.5 74.5t-41.5 71q-8 6 -25.5 12t-19.5 6q-86 -29 -155.5 -188.5t-91.5 -319.5q5 -34 4 -63q0 -36 -6 -68 q-8 -20 -31 -20h-8q-20 2 -29 22q-4 23 -4 50q0 42 10 94q-4 45 -14 128t-15 119q-23 231 -30 453q0 10 -7.5 62.5t-10.5 86.5q-2 20 -2 43q0 15 1 31zM565 379v29v-29z" />
<glyph unicode="i" horiz-adv-x="382" d="M50 932q11 41 50 63q14 33 68 33q80 -30 79 -73q0 -14 -7 -29q-27 -49 -101 -60q-12 -2 -22 -2q-26 0 -47 10q-22 12 -23 38q0 9 3 20zM74 539q0 78 4 100q4 49 15 70.5t50 48.5q24 14 45 14q22 0 41 -16q18 -15 18 -32t-20 -36l-4 -4q-41 -20 -60 -103q-16 -69 -16 -132 v-26q4 -75 7 -124q0 -18 16 -86t33 -80q6 6 18 20.5t19 20.5q23 14 44 14q19 0 37 -12q22 -15 22 -36q0 -13 -9 -29q-4 -2 -28.5 -23.5t-41.5 -30.5q-29 -14 -51 -17q-6 -1 -12 -1q-15 0 -28 6q-17 8 -30.5 18.5t-21.5 32.5l-15 39q-6 16 -10 44t-5 43.5t-3 40t-2 28.5 q-12 119 -12 248z" />
<glyph unicode="j" horiz-adv-x="571" d="M70 -332q-8 18 -9 33q0 28 32 43q15 7 29 7q30 0 52 -34q14 -27 39 -28q3 0 7 -1q23 0 56 12q39 13 56 15q14 2 26.5 1t16.5 -2t10 1l-39 207q-4 27 -20.5 117t-21.5 133t-12 116q-5 51 -5 96q0 19 1 38q3 61 15 121q2 12 14 51l-51 -4q-27 -2 -54.5 -3t-37.5 -1 q-35 6 -48 28.5t-1 47t43 34.5q127 0 164 4q45 0 86 11q4 2 31 8q37 0 49 -28q4 -9 4 -17q0 -18 -19 -35q-18 -12 -47 -23q-53 -53 -74 -140q-12 -53 -12 -116q0 -41 5 -87q13 -116 25.5 -177t39.5 -166l53 -209q4 -29 2 -32q-4 -14 -13 -24.5t-25 -16.5l-25 -10 q-10 -4 -31 -7.5t-27 -5.5q-27 -6 -69.5 -18.5t-63.5 -15.5q-12 -2 -28 -1h-22q-30 2 -53 21.5t-48 56.5zM229 924q-15 20 -15 42q0 29 25 63q32 44 69 44q14 0 28 -6q41 -16 67 -86v-2q6 -12 7 -23q-2 -43 -37 -63q-24 -14 -52 -14q-12 0 -25 3q-42 9 -67 42z" />
<glyph unicode="k" horiz-adv-x="839" d="M50 24q-14 17 -13 34q0 19 14 40q12 12 37 123t37 217q37 322 37 558q0 113 -8 206v15v10q16 43 52 43h4q40 -2 52 -49v-4v-5v-12q-4 -61 -17.5 -168.5t-15.5 -132.5q-20 -197 -34 -473q-2 -18 -2 -59q31 35 62.5 88t70.5 130t51 99q68 141 133 158q49 0 61 -49 q4 -16 -2 -33q-18 -33 -45 -39q-39 -49 -122 -179t-134 -188h25q76 -10 141.5 -53t138 -107.5t121.5 -95.5q8 -4 33 -3t33 1q29 -12 39 -38q4 -11 4 -20q0 -14 -8 -27q-14 -22 -47 -23q-63 4 -86 10q-47 12 -153 135t-169 148q-19 7 -46 7q-42 0 -104 -18q-12 -197 -67 -256 q-19 -10 -35 -10q-22 0 -38 20z" />
<glyph unicode="l" horiz-adv-x="614" d="M23 323q-1 5 -1 10q0 25 25 40l2 4q6 4 16.5 19.5t18.5 19.5l4 4q2 2 2 4q16 117 68.5 250t100.5 223t128 227l27 45q84 160 139 170q14 0 31 -16q3 -10 3 -26q0 -61 -44 -210q-72 -242 -287 -581q-4 -6 -37 -63.5t-57 -90.5q0 -12 -1 -23q0 -116 38 -204l20 20 q18 13 35 13q16 0 31 -12q18 -14 18 -33q0 -13 -8 -29q-6 -4 -22.5 -21.5t-29 -27.5t-26.5 -15q-17 -7 -32 -7q-45 0 -69 66q-32 87 -32 208q-2 0 -6 -1t-8 -1q-41 6 -47 38zM195 569q25 39 47 70q168 248 241 475q12 18 41 133q-25 -33 -57.5 -88t-53 -93t-24.5 -46 q-151 -291 -194 -451z" />
<glyph unicode="m" horiz-adv-x="909" d="M47 599q0 15 3 28.5t9 23.5q21 30 50 30q8 0 17 -2q40 -11 40 -52q2 -6 1 -10.5t-3 -14.5t-2 -16q0 -10 1 -27.5t1 -26.5q4 -94 4 -139q0 -16 -2 -74.5t-2 -95.5q57 248 112 328q35 51 76 59q18 0 27 -8q20 -27 30.5 -95.5t15.5 -187t7 -137.5q39 74 51 107 q25 53 48.5 97t59.5 86t68 54q10 4 21 4q24 0 51 -19q39 -28 74 -103q10 -23 47 -148q12 -49 31 -188q-4 -39 -32 -53.5t-54.5 2t-28.5 55.5q-14 264 -90 356h-2q-16 0 -48 -45q-34 -47 -42 -68q-8 -12 -38 -79.5t-60.5 -116.5t-61.5 -62q-16 -4 -33 7q-27 27 -34 114.5 t-7 197t-6 146.5q-33 -45 -55.5 -102t-31.5 -94t-23 -121q-4 -20 -14.5 -80.5t-10.5 -62.5q-10 -45 -35 -76v-2l-2 -4q-2 -2 -2 -4v-3q-2 -25 -18 -35q-10 -7 -21 -7q-7 0 -14 3q-18 7 -27 27q-8 33 -11 95.5t-5 72.5q-4 55 -8.5 186.5t-10.5 202.5q0 6 -4 24.5t-5 28 t-1 24.5zM371 559q2 0 4 2v2z" />
<glyph unicode="n" horiz-adv-x="782" d="M80 588q0 14 2 18q10 39 40 49q8 3 17 3q22 0 45 -19q31 -51 35 -243.5t17 -243.5q23 53 71 196q6 16 26.5 81t33.5 89q47 101 101 101q91 0 200 -283l20 -53q12 -35 17 -45q14 -41 47 -103q3 -13 3 -23q0 -35 -31 -51q-13 -7 -26 -6q-26 0 -51 27q-12 27 -47 142.5 t-69.5 207.5t-59.5 105q-33 -18 -75 -122t-85 -230t-67 -169q-13 -15 -30 -15q-4 0 -7 1q-20 4 -31 27q-8 41 -18.5 101t-16.5 100t-6 42q-18 100 -35 232q-6 18 -10 47q-10 17 -10 37z" />
<glyph unicode="o" horiz-adv-x="698" d="M43 261v15q0 126 68 234q72 115 180 131q3 1 9 1q23 0 85 -13l2 -2q13 13 36 12q14 0 32 -4q10 -8 60 -43t73 -60q41 -49 63 -128q11 -39 11.5 -72t-11.5 -60l-12 -38q-8 -26 -16.5 -43t-22.5 -31q-6 -6 -34.5 -43t-51.5 -49q-124 -62 -221 -62q-92 0 -160 55 q-86 66 -90 200zM124 210q7 -71 52 -99q60 -41 126 -42q12 0 25 2q79 9 140 48t91 111q16 38 16 78q0 35 -13 71q-12 31 -29.5 54.5t-28.5 33.5t-46 31.5t-49 31.5q-27 -16 -54 -8q-37 12 -51 13q-51 -4 -97 -59.5t-68 -125.5q-16 -52 -16 -105q0 -17 2 -35z" />
<glyph unicode="p" horiz-adv-x="718" d="M53 -451q20 150 31 370q6 122 6 223q0 80 -4 147q-4 29 -7 84t-5 84q-25 26 -25 62q0 26 12 56q-7 59 -7 98q0 26 3 42q18 32 43 31q9 0 19 -4q33 -14 33 -58v-10q2 0 4 2q92 41 162 44h14q66 0 155 -26q127 -37 169 -172q16 -50 16 -98q0 -82 -45 -158 q-131 -227 -408 -256q-46 11 -46 62q0 41 42 53q279 0 358 180q45 98 46 148q0 27 -13 61q-29 72 -107 103q-61 25 -125 25q-18 0 -37 -2q-83 -9 -136 -50q-12 -8 -51 -62q14 -21 13 -39q0 -20 -16 -38q-4 -83 -3 -175q0 -115 6 -245q11 -195 10 -324q0 -116 -8 -178 q-19 -38 -48 -38q-5 0 -11 1q-36 8 -40 57z" />
<glyph unicode="q" horiz-adv-x="641" d="M37 209q-4 26 -4 53q0 61 20 121q29 86 90.5 155.5t132.5 82.5h7q20 20 57 20q8 -2 44 -8t54 -15q74 -41 109 -118q35 -16 43 -47q-6 -39 -10 -119v-15q0 -52 -13 -112q-20 -319 -20 -544q0 -120 6 -212q-4 -37 -32 -51q-13 -7 -26 -7l-29 8q-28 15 -30 52q35 375 41 615 q-59 -39 -127 -51q-23 -4 -44 -3q-43 0 -83 15q-12 6 -36.5 13t-43 15.5t-32.5 20.5q-62 43 -74 131zM119 308q-9 -31 -9 -61q0 -42 17 -80q29 -67 113 -81q35 -7 66 -7q121 0 171 103q1 27 1 63q0 72 -3 183q-31 63 -78 90q-18 -18 -45 -18q-8 0 -16 2q-33 12 -47 10 q-53 -6 -101.5 -67.5t-68.5 -136.5z" />
<glyph unicode="r" horiz-adv-x="677" d="M51 700q-4 49 39 63q10 3 19 3q31 0 53 -35q9 -37 9 -78q0 -14 -1 -28q68 125 203 144q24 3 46 3q107 0 195 -76q11 -20 11 -37q0 -21 -17 -38q-16 -16 -37 -17q-18 0 -39 12q-57 60 -111 61q-7 0 -13 -1q-219 -39 -252 -357q0 -8 3 -48t3 -53t1 -46t-1 -49.5t-6 -40 t-13 -39.5q-15 -24 -32 -24q-14 0 -29 16q-14 23 -15 43t7 52t10 46v10q-4 25 -9 70t-7 59q-11 70 -11 117v14q0 25 4 79q3 43 4 79v18q-2 41 -14 78z" />
<glyph unicode="s" horiz-adv-x="681" d="M33 459q-2 16 10 41q90 121 203 169q57 24 116 24q58 0 117 -23q31 -16 38 -49t-12.5 -57.5t-51.5 -16.5q-60 28 -119 28q-32 0 -65 -9q-91 -24 -160 -109v-2q61 -27 230 -50.5t241 -74.5q75 -54 75 -131q0 -90 -88 -136q-97 -53 -236 -53q-103 0 -229 29q-33 23 -32 58 q0 9 2 18q10 47 57 47q137 -42 248 -42q52 0 98 9q2 0 12.5 2t14.5 3t14 3t15.5 4l14.5 5.5t14 8.5t12.5 10t11.5 12t6 16q0 4 -1 12t-1 10q-2 2 -16.5 23.5t-24.5 29.5q-37 29 -88 42.5t-121 19.5t-92 10q-12 2 -47 4t-46.5 4t-36 9.5t-35.5 18.5t-25.5 31.5t-22.5 51.5z " />
<glyph unicode="t" horiz-adv-x="688" d="M25 582q10 16 25.5 29.5t28.5 20.5t38.5 12t38 7t43 5t39.5 6q16 94 30 141q14 43 52 43q7 0 15 -1q50 -9 46 -63v-24q0 -4 -4 -4q-4 -4 -4 -6l-19 -74q119 25 219 26q46 -15 47 -54q0 -48 -59 -52q-113 20 -189 20q-19 0 -36 -2q-10 -47 -47 -172v-4q-10 -37 -10 -67 q-2 -9 -2.5 -26t2.5 -42q4 -49 11 -101.5t36 -83.5q19 -21 44 -21q13 0 27 5q23 8 61 31t42 25q16 4 29 4q37 0 51 -34q5 -12 4 -22q0 -30 -39 -49q-20 -6 -58 -21l-57 -24q-9 -3 -24 -3q-26 0 -70 9q-25 2 -45.5 15.5t-32.5 32t-21.5 49t-13.5 54t-6 60.5t-2 56v51v37 q4 125 16 225q-53 -16 -94 -45q0 -2 -1 -4t-1 -4h-2q-12 -20 -16 -25q-2 0 -2 -1t-2 -1q-20 -10 -37 -10q-19 0 -34 12q-21 16 -21 41q0 11 4 23z" />
<glyph unicode="u" horiz-adv-x="671" d="M30 389q19 203 87 279q24 15 43 14q30 0 51 -33q0 -2 2 -6q3 -10 3 -19q0 -24 -19 -42q-37 -57 -63 -167q-17 -74 -17 -146q0 -34 4 -67q12 -103 76 -122q19 -6 36 -6q83 0 160 114q43 68 66 119q12 131 14 176v54q0 35 1 63.5t5 52.5v2q0 2 2 4q8 27 33 30h5 q21 0 36 -21q21 -57 21 -121q0 -61 -19 -129q0 -6 -1 -68q-1 -31 -0.5 -51.5t0.5 -32.5q1 -23 5 -68.5t15.5 -75.5t27.5 -52q12 -21 12 -38q0 -24 -23 -41q-16 -12 -33 -12q-24 0 -48 25q-43 72 -53 178q0 -2 -3 -8l-5 -10q-72 -135 -189 -157q-17 -3 -33 -3q-96 0 -168 111 q-37 52 -37 172q1 46 6 102z" />
<glyph unicode="v" horiz-adv-x="788" d="M45 645q-7 16 -7 29q0 27 29 41q13 6 25 6q26 0 45 -31q33 -94 80 -273t72 -257q29 156 132 297t253 250q12 3 23 3q28 0 42 -24q8 -13 8 -25q0 -20 -20 -40q-170 -104 -281.5 -255t-111.5 -325q-4 -16 -19 -29h-6h-4q-23 0 -29 21q-33 72 -184 497q-31 84 -47 115z" />
<glyph unicode="w" horiz-adv-x="724" d="M27 612q12 42 56 42h2q46 -1 58 -46q0 -111 23 -202q2 -10 11 -42t14.5 -56.5t5.5 -45.5v-2q4 -14 11 -45l11 -47q68 213 90 250q4 4 13 8q4 4 8 6q12 6 28 0q2 0 4 -2q16 -16 15 -31q-3 -8 -3 -23q0 -40 20 -129q28 -122 93 -143q18 8 30.5 31t17 42.5t9.5 51t7 39.5 q8 53 10 120t2 102.5t-5 125t-5 109.5q12 42 56 42h2q46 -1 59 -46q0 -27 -1 -118t-4 -149.5t-13.5 -139.5t-33 -143t-59.5 -103q-34 -30 -68 -31q-8 0 -15 2q-42 8 -75 45q-43 43 -77 176v-6q-59 -221 -78 -240q-11 -4 -21 -4q-20 0 -35 17q-14 18 -27 61t-16 47 q-112 317 -120 477z" />
<glyph unicode="x" horiz-adv-x="708" d="M23 627q12 48 50 47q15 0 33 -6l3 -2q2 -2 4 -2q18 -20 22 -35q18 -23 51 -71t61.5 -84t61.5 -64l49 -43q0 2 4 6q25 31 64 88t74 102t73 80q22 15 42 15q22 0 39 -19q15 -17 16 -34q0 -21 -23 -44q-123 -70 -244 -231l84 -70q25 -20 70 -66.5t65.5 -89.5t26.5 -92 q-4 -37 -32 -51q-13 -7 -25 -7q-14 0 -29 9q-27 16 -28 53q2 113 -166 267l-73 -110l-99 -146q-23 -23 -47 -24l-35 13q-22 16 -22 38q0 19 18 42q125 115 211 226l-82 68q-68 56 -95 83q-14 14 -43 40l-44 40q-15 14 -27 36q-9 16 -9 29q0 5 1 9z" />
<glyph unicode="y" horiz-adv-x="741" d="M29 -424q-8 18 -8 32q0 24 21 40q14 11 30 10q21 0 45 -18q14 -27 26 -37q2 -2 13 -6q6 -4 6 -7q37 -13 75 -13q52 0 107 24q96 41 141 125q33 61 53.5 143t25.5 140.5t11 156.5l-4 -8q-72 -115 -149 -146q-34 -13 -64 -13q-40 0 -74 23q-60 40 -105.5 121.5t-61.5 186.5 q-9 55 -9 97q0 93 44 122q12 4 22 4q30 0 51 -31q4 -6 6 -20.5t5 -22.5q-2 -29 -21 -45q0 -51 7 -109.5t25.5 -125t58.5 -99.5q24 -19 54 -19q20 0 43 9q111 45 185 258q12 84 18 170q0 10 -5 35t-3 39q10 24 32 24q6 0 13 -2q31 -16 38 -71q4 -28 4 -53.5t-4 -48.5 q-7 -46 -19 -85q-4 -8 -8.5 -22.5t-6.5 -22.5q-2 -6 -2 -30q-2 -25 -6 -137.5t-9 -176t-23.5 -149.5t-49.5 -133q-6 -10 -18.5 -34t-23.5 -40.5t-26 -26.5q-10 -8 -29.5 -25.5t-35.5 -28.5t-33 -17q-84 -23 -138 -30q-14 -2 -29 -2q-42 0 -90 15q-64 21 -105 80z" />
<glyph unicode="z" horiz-adv-x="761" d="M45 66q33 68 92 104q4 4 15.5 7t17.5 5q31 33 153.5 178.5t198.5 210.5q-51 5 -97 6q-184 0 -310 -83q-7 -1 -13 -2q-33 0 -45 38q-4 13 -4 25q0 30 27 53q109 64 289 64q74 0 159 -10q10 -2 53.5 -12.5t65.5 -10.5h2l10 4v-6q20 -10 22.5 -37t-19.5 -41 q-57 -20 -111.5 -55t-115 -97.5t-88.5 -95.5l-97 -116h27q108 0 236 -28q144 -32 202 -77q23 -26 23 -52q0 -18 -11 -38q-15 -22 -35 -22q-14 0 -30 12q-53 43 -135.5 68.5t-129.5 30.5t-143 13q-68 0 -80 -4q-51 -63 -82 -86q-27 -18 -43 11q-2 0 -2 4q-5 13 -5 23 q0 9 3 16z" />
<glyph unicode="{" horiz-adv-x="583" d="M33 1317q0 84 104.5 167t184.5 70q4 -2 49 -26q37 -33 18.5 -69t-63.5 -27q-68 37 -150 -33t-57 -146q10 -43 65.5 -104.5t69.5 -93.5q76 -174 -14 -271q84 -27 110.5 -125t-4.5 -180q-14 -39 -76.5 -90t-72.5 -88q-10 -39 2 -111q4 -23 11 -38t19.5 -25t24.5 -16.5 t32.5 -7.5t35 -1t41 6.5t42 9.5t47 10t46.5 11q47 0 54 -42t-32 -64q-180 -31 -244 -23q-141 16 -155 168q-16 111 6 152q18 35 79.5 85t78.5 87q29 47 16.5 128t-68.5 101q-25 6 -34 5t-31.5 -8t-32.5 -9q-25 -4 -34 16.5t14 36.5q129 59 110 164q-16 82 -102 176 q-2 2 -18.5 19.5t-24.5 28.5t-20.5 32.5t-18.5 53.5t-8 71z" />
<glyph unicode="|" horiz-adv-x="315" d="M70 455q0 199 30 702q8 123 9 277q0 12 -1.5 38.5t-1.5 41t3.5 37t9.5 40.5q33 41 76 27t38 -66q-10 -27 -26.5 -174t-16.5 -168q-57 -442 -36 -757q4 -72 26.5 -203t26.5 -195q-4 -37 -34 -50t-58.5 1t-30.5 51q4 74 -5 208.5t-9 189.5z" />
<glyph unicode="}" horiz-adv-x="620" d="M43 73.5q2 20.5 18.5 36t40.5 15.5q90 -14 186.5 16.5t160 111.5t45.5 193q-8 55 -52.5 118t-89.5 112t-80.5 99t-31.5 99.5t61 96.5q-49 12 -77.5 40.5t-41.5 90.5q-20 92 4 141q14 33 65.5 121t91.5 165t40 109q-53 29 -164 -12q0 -39 -33.5 -52t-60.5 21 q-31 53 -6.5 91t78 49.5t106.5 16.5t80 -5q14 -2 70 -39q12 -12 22 -39q-4 -14 -4 -39.5t-2 -38.5q-23 -70 -110 -187.5t-109 -186.5q-16 -31 -7 -99.5t50 -83.5q18 -6 49 -7t45 -3q25 -8 21 -39q-6 -12 -21.5 -27.5t-29 -24.5l-33.5 -22l-21 -12q-6 -41 -2 -47 q14 -45 106.5 -147.5t100.5 -112.5q12 -16 21.5 -36.5t19.5 -48.5t16 -40q14 -31 12 -83t-20 -85q-16 -25 -43 -72t-43 -71q-51 -84 -162.5 -119t-216.5 -27q-25 6 -38 24.5t-11 39z" />
<glyph unicode="~" horiz-adv-x="882" d="M39 598q-14 78 71 140.5t158 68.5q35 0 59.5 -24.5t49 -66.5t41.5 -59q55 -47 135 -31.5t129 64.5q10 8 17.5 15.5t14.5 16.5t9 13l10 20l12 23q37 35 71 3.5t13 -83.5q-74 -92 -179 -136t-199 1q-47 23 -88 69t-59.5 69.5t-56.5 11t-100 -81.5q0 -6 3 -8q-2 -2 -3 -7 q-4 -59 -53 -67h-4q-23 4 -33 14t-18 35z" />
<glyph unicode="&#xa0;" />
<glyph unicode="&#xa3;" horiz-adv-x="960" d="M21.5 58.5q1.5 29.5 37.5 45.5q45 20 168 21q2 4 12.5 3t12.5 -1q16 0 20 2q281 147 289 356q0 29 -10 74q-139 10 -229 -59q-45 -25 -71 14t19 68q96 45 262 30q-31 51 -69 80q-4 2 -29 18l-36 22q-11 7 -33.5 23.5t-34 29t-24.5 29.5t-19 34.5t-4 36.5q4 92 81.5 163.5 t174.5 59.5q6 0 53 -27q39 -33 13.5 -67.5t-70.5 -9.5q-53 31 -110.5 -17.5t-57.5 -105.5q0 -45 137 -133q61 -51 100 -146q203 -31 285 -51q35 -27 18.5 -60.5t-61.5 -25.5q-143 66 -223 84q6 -41 0 -74q-43 -199 -230 -332q246 29 367 -28q18 -10 47 -39t43 -39 q2 -2 14 -2q27 -10 36 -31.5t-4 -40t-42 -20.5q-47 4 -103.5 55t-91.5 63q-57 18 -120.5 19.5t-156.5 -8t-122 -11.5q-2 0 -6 -3t-8 -3q-127 -68 -189 -43q-37 17 -35.5 46.5z" />
<glyph unicode="&#xa4;" horiz-adv-x="745" d="M47.5 409.5q-22.5 22.5 1.5 55.5q74 25 94 43q6 6 16.5 15l14.5 12.5t11.5 9.5t13.5 8l15 5q9 3 22 5q25 -8 31.5 -26.5t-5.5 -35t-37 -18.5l-12 4q-2 0 -6 -2q2 2 5 3t7 2l4 2q-20 -2 -35.5 -9.5t-34 -25t-21.5 -22.5t-26 -32q-36 -16 -58.5 6.5zM121 995.5 q-2 30.5 39 42.5q29 -6 41 -15t21 -41t14 -42q6 -14 16 -26.5t28.5 -29t22.5 -20.5q12 -37 -20.5 -50t-57.5 13q-29 96 -61 129q-41 9 -43 39.5zM203 674q8 33 37 67q41 49 86 78q43 20 112 17q29 16 58 -7q51 -78 67 -135q39 -121 -71 -162q-96 -33 -201 11 q-106 47 -88 131zM289 705q-61 -78 16 -121q70 -37 146 -11q86 29 41 117q-4 6 -7 10q-20 35 -39 56q-8 2 -18 3t-14 2t-12 1h-13q-6 0 -13 -2t-18 -6q-42 -16 -69 -49zM471 478q-12 32 21 52q23 -2 31.5 1.5t19 -4t13.5 -10.5t12.5 -17.5t17.5 -24.5q14 -23 63 -53 q20 -37 -11.5 -59.5t-59.5 10.5q-14 70 -54 94q-4 0 2 -2q6 -6 11 -8q0 2 -9 2l-2 -2l-2 -2q-41 -9 -53 23zM515 857q-11 32 22 52h14q0 -4 -14 -8q20 -4 42.5 18.5t34 45t19.5 43.5q31 20 57.5 -0.5t9.5 -51.5q-59 -39 -67 -51q-47 -59 -66 -71q-41 -9 -52 23z" />
<glyph unicode="&#xa5;" horiz-adv-x="919" d="M15 307q-3 37 42 49q158 -4 295 17q0 4 -2 8t-2 8q-2 10 -9 53t-13 66q-88 -14 -185 -53l-2 -4q-41 -20 -64.5 9t1.5 64q59 39 233 43q8 27 35 37q-8 16 -20.5 44t-14.5 32l-50 103l-57 116l-58 106q-34 60 -66 105q-20 23 -6 50.5t51 27.5q10 -2 18.5 -7t14.5 -13.5 t9 -14.5l10 -19.5l9 -17.5q45 -96 178 -409q25 -59 41 -91q84 96 214.5 297t187.5 275q35 23 65.5 0t10.5 -60q-106 -123 -156 -188l-76 -99l-74 -98q-53 -80 -139 -165q272 16 330 12q41 -14 38 -52t-48 -42q-184 39 -346 24q2 -23 1 -62.5t-1 -58.5v-16q10 0 43 4 q16 2 61 9l60.5 9.5t50 6.5t55 4t51.5 -1t60.5 -4t62.5 -10q47 -20 35 -60t-62 -32q-182 61 -413 21q14 -250 12 -299q-20 -41 -56 -34t-40 52q43 145 28 270q-174 -41 -297 -57q-43 8 -46 45z" />
<glyph unicode="&#xa6;" horiz-adv-x="294" d="M43 47l17 110q13 85 18 132q4 41 4 123t2 123q10 31 41 39t55.5 -9.5t22.5 -50.5q-33 -84 -56 -184q-4 -4 -2 2q0 4 2 12q2 6 3 8q-20 -96 12 -307q-4 -33 -33 -46t-56.5 1t-29.5 47zM102 797q43 152 35 258q-2 8 -4 30.5t-2 26.5q0 6 -2 16.5t-2 16.5q-20 41 17.5 63.5 t78.5 -4.5q14 -45 9 -73.5t-17 -76.5t-12 -75q-2 -55 20 -184q-4 -33 -32.5 -46.5t-57.5 1t-31 47.5z" />
<glyph unicode="&#xa7;" horiz-adv-x="671" d="M38 50q-3 38 40 50q336 25 379 107q20 37 8 104q0 -4 2 -8v-2q0 2 -2 18.5t-5 32t-9 21.5q-43 31 -155 50t-157 58q-88 80 -72.5 160t93.5 142.5t170 74.5q33 0 47 -21.5t3 -45t-46 -25.5q-12 0 -38 -10.5t-38 -10.5l18 9q-51 -16 -91 -52t-49 -82.5t44 -93.5 q41 -35 160 -56t156 -69q12 -16 26 -88q10 -82 -6 -129q-39 -119 -432 -180q-43 8 -46 46zM98 1047q-25 104 91 216.5t225 104.5q10 0 37 -22l24 -23q20 -37 -5.5 -65.5t-61.5 -4.5q-4 4 -11.5 12.5t-13.5 12.5q-35 20 -100.5 -38t-98.5 -105q-20 -33 -18 -78q0 -2 -8 8h-2 q0 -4 8 -12q18 -25 26 -27q31 -18 192 -76.5t198 -105.5q78 -88 66.5 -180.5t-128.5 -131.5q-92 -31 -237 -10q-51 8 -45 51t55 43q20 -4 59 -8t58 -8q74 0 129 22.5t45 82.5q-2 6 -4.5 16t-3.5 13t-3 10.5t-3 10.5l-3 9q-2 6 -5 9t-6 9t-8 11.5t-11 13.5q-37 37 -143.5 74 t-194 76t-99.5 90z" />
<glyph unicode="&#xa8;" horiz-adv-x="577" d="M61 690q12 16 35 27q6 4 16.5 4t18.5 2q6 2 16.5 -2t18.5 -4q33 -29 22 -64v-4q8 -31 -24 -57q-55 -37 -96 12q-38 43 -7 86zM348.5 643q26.5 47 61.5 64q8 4 25 4h22q35 -14 39 -39q14 -6 24 -17q45 -53 -20 -90q-66 -35 -127 -10q-10 4 -19 10q-32 31 -5.5 78z" />
<glyph unicode="&#xa9;" horiz-adv-x="604" d="M24.5 1308.5q16.5 75.5 71 135t127.5 98.5q8 6 60 10q29 0 41 -22l16 -35q8 -37 -19.5 -51t-52.5 14q-4 12 -4 15q-59 -4 -130 -78t-54 -131q10 -49 58 -81t100.5 -42.5t101.5 -5.5q70 8 120 72.5t49 141t-65 113.5q-12 8 -40.5 14.5t-32.5 8.5q-31 18 -24 48t46 30 q6 -2 28.5 -10.5t32 -12.5t28 -14t27.5 -19.5t19.5 -24t16.5 -32.5q2 -10 9 -27.5t10 -32t3 -28.5q-2 -16 -1 -30.5t-1 -31t-8 -30.5q-90 -193 -215 -180q-2 0 -30.5 3t-36 4t-33 4t-35.5 6l-32 9q-22 6 -34 12.5l-27.5 15.5t-27.5 21q-78 68 -61.5 143.5zM169 1319 q-3 33 40 80q25 23 57 26q12 4 33 5h27q23 -8 29.5 -27t-4.5 -36t-34 -19l-20 5q-12 3 -17.5 4t-15.5 -1t-20 -6q-27 -10 -28 -34t28 -34q20 -8 40.5 -11t34 -3t41 2t39.5 2q23 -8 30 -26.5t-3 -35t-35 -18.5q-147 27 -172 51q-47 43 -50 76z" />
<glyph unicode="&#xaa;" horiz-adv-x="561" d="M33 1253q-23 72 41.5 113t130.5 27q0 37 47 53q6 0 19.5 3t20.5 4t21 -1q27 -6 47 -27q10 41 19 58q20 29 53 27.5t45 -24t-2 -54.5q-121 -131 -4 -261q-8 10 -6 11q10 -6 41 -37q29 -49 -11 -77t-77 13q-37 63 -51 121q-45 -74 -129 -74q-35 0 -101 17q-41 10 -61 35 q-35 38 -43 73zM109 1264q4 -41 61 -66q31 -12 66 -12q53 0 76.5 68.5t-17.5 93.5q-8 -2 -21 -7q-2 -2 -12 -2q0 -18 -10 -43q-27 -25 -54.5 -22.5t-39.5 26.5q-51 1 -49 -36z" />
<glyph unicode="&#xab;" horiz-adv-x="839" d="M57 647q215 246 246 293q-2 14 14 41q2 2 14.5 10l20.5 13q35 10 58.5 -7.5t19.5 -54.5q-10 -25 -35.5 -57.5t-63.5 -69.5l-67 -62l-75 -65l-56 -47q16 -2 44 -5t48.5 -5t28.5 -4q49 -16 100.5 -41t112.5 -59.5t96 -51.5q45 -37 15.5 -78t-80.5 -12l-64 46l-66 49 q-24 17 -61 41t-71 40q-20 8 -85 16.5t-90 28.5q-14 21 -4 41zM346 668q-12 23 10 39q70 45 181.5 154.5t175.5 154.5q49 12 71.5 -21.5t-14.5 -70.5q-66 -37 -177.5 -121t-168.5 -119q18 -6 68.5 -13t64.5 -16q98 -47 242 -198q29 -49 -12.5 -79t-79.5 13l-43 63.5t-32 47 t-29.5 32t-57.5 46.5q-23 18 -101 36.5t-98 51.5z" />
<glyph unicode="&#xac;" horiz-adv-x="929" d="M19.5 784.5q-3.5 51.5 56.5 67.5q131 -6 405 14l122 6q81 4 122 9q10 0 33.5 10t36.5 12q25 2 43 -15.5t27 -53t14.5 -60t8.5 -66.5t3 -44q6 -197 6 -199q-4 -45 -36 -61.5t-63.5 2t-33.5 63.5q2 35 13 115t12.5 118.5t-9.5 116.5q-39 -14 -115.5 -16t-97.5 -4 q-45 -6 -218 -37t-267 -41q-59 12 -62.5 63.5z" />
<glyph unicode="&#xad;" horiz-adv-x="946" d="M15 592q-3 51 57 67q229 -18 395 -10q270 12 407 -6q66 -25 49.5 -82t-83.5 -45q-70 25 -140.5 38t-116.5 18.5t-128 0t-111 -8.5t-133 -17l-133 -19q-60 13 -63 64z" />
<glyph unicode="&#xae;" horiz-adv-x="530" d="M37 1350q12 51 26 65q53 57 93.5 68.5t124.5 5.5q12 16 34 16q12 -6 40 -14t40 -16q82 -53 80 -166t-80 -170q-39 -27 -80 -31t-86 4q-16 0 -51 10q-2 0 -2 1t-2 1q-74 27 -121 92.5t-16 133.5zM82 1333q-25 -94 72 -155q14 72 14 88v71q-16 18 0 43v2q23 31 45 15 q53 8 99 -10.5t32 -61.5q-10 -27 -47 -41q61 -23 104 -65q55 78 0 161q-31 37 -94 52q-8 -14 -28 -15q-12 2 -36 5t-34 4t-27.5 -2t-38.5 -13q-49 -29 -61 -78zM205 1266q-2 -45 18 -107q-2 -2 -2 -8q4 -4 10 -4q63 -12 121 24q-39 47 -92 76l-22 6q-23 7 -33 13zM213 1307 q53 10 55 12q20 4 31 18q-14 4 -55 0q-4 -4 -13 -6h-8q-4 -8 -10 -24z" />
<glyph unicode="&#xb0;" horiz-adv-x="430" d="M43 1260q-4 72 0 86q16 61 68.5 79.5t99.5 -10.5q0 27 17.5 42.5t43.5 2.5q41 -27 76 -80t45 -114.5t-41 -108.5q-35 -31 -85 -34t-91 10.5t-82 37.5q-51 28 -51 89zM97 1264.5q3 -19.5 24 -39.5q43 -47 110.5 -47t100.5 59q-12 55 -28.5 79.5t-53.5 43.5 q2 -29 -18.5 -44.5t-47.5 3.5l-4 2q-4 2 -4 4q-8 8 -6 8q-14 8 -25 8q-14 2 -14 0v2q-4 0 -6 -2t-4 -2q-4 -2 -10 -6l-2 -2q-8 -10 -9 -14q-6 -33 -3 -52.5zM119 1339l2 2zM135 1343q8 0 10 3z" />
<glyph unicode="&#xb1;" horiz-adv-x="931" d="M56.5 301q13.5 49 74.5 49q37 -14 75 -21t94 -14.5t79 -11.5q2 -2 -2 -2q51 -2 112.5 1t96.5 7t114.5 15.5t104.5 13.5q43 0 62.5 -31t3 -63.5t-59.5 -36.5q-293 23 -322 22q-8 0 -198.5 -7t-194.5 1q-53 29 -39.5 78zM109.5 832.5q11.5 33.5 54.5 46.5q39 0 237 -15 q8 92 13 191q-31 20 -35 63q8 47 41 74t65.5 12.5t40.5 -67.5q2 -25 -2 -56.5t-13 -69.5t-11 -57q-10 -53 -13 -96q78 -6 279 8q57 -20 51 -71.5t-65 -59.5q-193 41 -271 47q-4 -66 -4 -96l6 -166q-4 -45 -35.5 -61.5t-63.5 2t-34 63.5q6 29 43 260q-59 0 -127 -12h4 q-14 -6 -41.5 -12t-35.5 -10q-43 -4 -69 22.5t-14.5 60z" />
<glyph unicode="&#xb2;" horiz-adv-x="487" d="M45 1161q-4 14 4 25.5t30.5 18.5t31 10.5t30.5 7.5q35 2 68 0q57 31 82 69q10 14 19 37t15.5 49.5t-5 44t-44.5 15.5q-10 0 -94 -29q-39 -4 -50 21.5t20 44.5q84 20 120 22q74 4 100.5 -53.5t0.5 -108.5q-35 -74 -111 -125q31 -8 80 -26.5t68 -24.5q29 -20 14.5 -44.5 t-49.5 -18.5q-156 70 -187 75q-12 -8 -38 -14q-51 -20 -82 -14q-19 0 -23 18z" />
<glyph unicode="&#xb3;" horiz-adv-x="452" d="M29 1194q4 43 43 43q143 -31 209 -25q57 4 71.5 24.5t-11.5 41t-71 25.5q-43 0 -61 6q-16 10 -15 26.5t17 26.5q14 4 30.5 10t22.5 8t16.5 8.5t20.5 15.5t25 26q-23 2 -46.5 -1.5t-56.5 -10.5t-45 -9q-4 -2 0 -2q12 -2 25 6q-12 -4 -35 -9t-29 -7q-27 -4 -40 15.5t-6 45 t30 35.5q10 2 46 7t54.5 7t48 3t54 -4t45.5 -15q16 -14 22 -33q-8 -78 -69 -112q2 0 7 -2.5t11 -4.5l12 -4q47 -25 47 -80t-45 -84q-33 -23 -76.5 -32t-64 -10t-84 5.5t-68.5 6.5q-38 10 -34 53zM203 1413q4 0 6 2q-2 -2 -6 -2z" />
<glyph unicode="&#xb5;" horiz-adv-x="698" d="M38.5 -415.5q-22.5 28.5 2.5 57.5q2 4 9 19t11 22v-5q-2 -2 -2 -4q76 184 52 443q-49 72 -33 250q-14 78 -6 135q12 35 51 45q4 0 6 2q37 0 64 -33q4 -4 6 -13t6 -14q10 -29 -6 -47q-2 -20 -13.5 -82.5t-13.5 -95.5v-49q2 -33 21 -63q20 -39 57 -31t68.5 31.5t48.5 46.5 q27 37 57 104q14 115 47 213q0 2 2 4q2 0 2 2t2 4q20 25 48 17t26 -39q-4 -12 -9 -39l-7 -37q-12 -109 -7 -209q0 -104 37 -115q4 -2 31 -2q53 -16 49 -58t-61 -46q-2 0 -37 4t-49 14q-57 41 -74 144q-27 -35 -43 -45q-104 -86 -201 -54q10 -127 10 -231v-46q0 -9 -2 -47 t-7 -56l-13 -47q-8 -28 -23.5 -45t-35.5 -27q-48 -6 -70.5 22.5zM51 -342l6 12zM57 -330q0 2 2 4q-2 -2 -2 -4z" />
<glyph unicode="&#xb6;" horiz-adv-x="897" d="M15.5 889q-15.5 74 31.5 141.5t139 122.5q84 47 133 41q12 12 35 18q2 -2 13 -2q27 8 51 -6q96 -10 168 -8q45 0 130 11.5t111 13.5q47 -14 44 -55.5t-56 -45.5q-121 20 -205 19v-15q-6 -12 -18 -32.5l-21.5 -38t-15.5 -33.5q-51 -131 -53 -300t17.5 -374t15.5 -313 q-16 -27 -42 -34t-46.5 8.5t-22.5 45.5q33 207 22 557q0 27 -2 104t-2 113.5t3.5 97t11.5 111.5q6 33 35 94q-6 0 -26 -3t-30 -5l-12 -71l-10 -60q-2 6 -2 10q-14 -96 -25 -188q0 -12 -2 -14q-14 -106 -16 -193q-6 -125 18 -559q-4 -35 -30.5 -47t-53.5 2t-29 47 q29 375 37 559l6 135q-18 -12 -86 -14q-57 -8 -108 29q-92 57 -107.5 131z" />
<glyph unicode="&#xb7;" horiz-adv-x="356" d="M58.5 692.5q9.5 26.5 47.5 36.5h5q25 0 39 -8q20 12 38 12h17h10h2q45 12 70 -20q12 -33 -0.5 -89.5t-50.5 -66.5q-8 -2 -29 -2q-25 0 -35 4q-6 -2 -13 -6t-13.5 -5t-28.5 1q-18 8 -26.5 26.5t-20.5 71.5q-21 19 -11.5 45.5z" />
<glyph unicode="&#xb9;" horiz-adv-x="571" d="M38 42q-15 30 3 56q-10 37 25 64q51 16 100 28q2 0 23.5 3.5t37.5 7.5q-8 39 2 149q6 57 7 221q0 57 -3.5 170t-4.5 169.5t1 170.5q-18 -27 -43 -45q-53 -29 -88 12.5t2 88.5q25 18 44.5 49t29.5 56.5t23.5 66.5t21.5 61q6 16 22.5 43t22.5 39q27 41 65 24.5t33 -61.5 q-49 -147 -58 -421.5t3 -424.5q0 -29 2 -110.5t2 -110.5q0 -20 -2 -47l-3 -41q-1 -14 2 -32.5t14 -37.5q215 0 215 -98q-8 -35 -29 -55q-16 -16 -41 -21q-41 -6 -64 15q-35 -8 -135 -4q-43 2 -174 -23q-41 8 -56 38zM276 211l3 2q-1 -2 -3 -2z" />
<glyph unicode="&#xba;" horiz-adv-x="698" d="M43 261v15q0 126 68 234q72 115 180 131q3 1 9 1q23 0 85 -13l2 -2q13 13 36 12q14 0 32 -4q10 -8 60 -43t73 -60q41 -49 63 -128q11 -39 11.5 -72t-11.5 -60l-12 -38q-8 -26 -16.5 -43t-22.5 -31q-6 -6 -34.5 -43t-51.5 -49q-124 -62 -221 -62q-92 0 -160 55 q-86 66 -90 200zM124 210q7 -71 52 -99q60 -41 126 -42q12 0 25 2q79 9 140 48t91 111q16 38 16 78q0 35 -13 71q-12 31 -29.5 54.5t-28.5 33.5t-46 31.5t-49 31.5q-27 -16 -54 -8q-37 12 -51 13q-51 -4 -97 -59.5t-68 -125.5q-16 -52 -16 -105q0 -17 2 -35z" />
<glyph unicode="&#xbb;" horiz-adv-x="1003" d="M22.5 388q-14.5 38 22.5 63q78 18 219.5 67t169.5 57q6 2 30.5 8.5t42 12.5t34 15.5t20.5 21.5q-35 29 -98.5 49t-147.5 36.5t-116 26.5q-31 16 -33 42t22.5 42.5t57.5 6.5q37 -16 124 -44t149.5 -59t101.5 -78q8 -14 8 -26q-14 -25 -35 -42.5t-34 -24.5t-49 -20l-52 -20 q-57 -23 -180 -81t-193 -83q-49 -8 -63.5 30zM459 321.5q0 24.5 26 45.5q217 96 328 178l18 16l31 28q14 13 31.5 33.5t18.5 33t-9 24.5q-33 25 -80 35t-108.5 15t-85.5 9q-23 8 -35 35v6q-6 39 24.5 53.5t55.5 -4.5l68 -17q52 -13 78 -22l68 -26q42 -16 57.5 -33.5 t26.5 -43t-6.5 -57.5t-58.5 -71q-63 -63 -125 -110q-100 -80 -241 -166q-31 -16 -56.5 -1t-25.5 39.5z" />
<glyph unicode="&#xbd;" horiz-adv-x="886" d="M37 74q63 92 336 452q72 98 315 461q18 23 46 23t39 -19.5t-1 -46.5l-114 -135l-136 -166l-104 -137q-131 -178 -295 -473q-31 -27 -64.5 -11.5t-21.5 52.5zM166 750q51 113 20 206q12 37 49 36t50 -40q-35 -123 -23 -221q-14 -23 -36.5 -29t-40 7.5t-19.5 40.5zM442 430 v14q6 20 27 33q47 23 108.5 28t111.5 -10.5t74.5 -53.5t-3.5 -99q-16 -35 -49 -64.5t-86.5 -63.5t-73.5 -48q14 2 38.5 5t35.5 3q100 2 198 -18q49 -16 36 -53t-62 -29q-100 33 -219 37q-90 0 -105 4q-27 14 -16 39q25 31 95.5 69.5t117.5 81.5t37 103q-4 23 -36 27.5 t-68 -2.5t-66 -19q-12 -37 -51.5 -32t-43.5 48z" />
<glyph unicode="&#xc0;" horiz-adv-x="1081" d="M449 1712l10 20q12 29 51 29q31 -12 46.5 -29.5t30 -52.5t22.5 -47q35 -57 69 -104q8 -25 -10 -39.5t-42.5 -10.5t-35.5 27q-23 131 -67 172q-23 -12 -46.5 -3t-27.5 38zM16 438q0 35 30 63.5t55.5 42t77.5 32t54 18.5q82 23 91 24q6 29 8 31q92 268 123 338 q16 39 48 108l56 126q25 57 41 112q0 14 14 23h9q14 0 20 -23q0 -2 2 -4q0 -6 -2 -16t-2 -15q-1 -10 -1 -24q0 -28 3 -70q16 -274 21 -325q18 -150 28 -197q36 2 72 2q136 0 264 -31q23 -10 28 -36q1 -7 1 -13q0 -17 -10 -31q-14 -18 -39 -10q-162 51 -301 53 q47 -184 118 -305q10 -16 125 -186l13 -25q12 -25 20 -34q0 -2 2 -3q18 -14 29 -43v-10q-5 -48 -44 -48q-6 0 -12 1q-14 6 -79.5 114.5t-79.5 139.5q-104 182 -146 397q-131 -2 -282 -49l-41 -147q-6 -29 -23.5 -99.5t-25.5 -107.5q-2 -4 -10.5 -53t-23 -83t-36.5 -42 q-35 -4 -46 26.5t9 53.5q14 31 35 131l43 147l45 152q-10 -2 -10 -4q-72 -25 -144 -62q-10 -6 -34 -31l-5 -4q4 -49 -41 -57q-10 0 -22 6q-23 20 -25 47zM391 637q133 31 248 39q-35 197 -35 532q-23 -59 -92 -221q-4 -4 -4 0q-68 -172 -117 -350z" />
<glyph unicode="&#xc2;" horiz-adv-x="1081" d="M434 1618q6 16 25 22q10 10 10 9l-2 -2q0 -4 -2 -4h2q18 14 81.5 112t117.5 105q8 0 20 -7q25 -31 62 -137q49 -129 79 -186q8 -37 -20.5 -48t-52.5 13q-2 6 -14.5 38t-16.5 50q-2 8 -12.5 67.5t-22.5 106.5t-26 62q-12 -10 -79 -130t-112 -120q-23 4 -33 18.5t-4 30.5z M461 1636l4 4h-2q0 -2 -2 -4zM16 438q0 35 30 63.5t55.5 42t77.5 32t54 18.5q82 23 91 24q6 29 8 31q92 268 123 338q16 39 48 108l56 126q25 57 41 112q0 14 14 23h9q14 0 20 -23q0 -2 2 -4q0 -6 -2 -16t-2 -15q-1 -10 -1 -24q0 -28 3 -70q16 -274 21 -325q18 -150 28 -197 q36 2 72 2q136 0 264 -31q23 -10 28 -36q1 -7 1 -13q0 -17 -10 -31q-14 -18 -39 -10q-162 51 -301 53q47 -184 118 -305q10 -16 125 -186l13 -25q12 -25 20 -34q0 -2 2 -3q18 -14 29 -43v-10q-5 -48 -44 -48q-6 0 -12 1q-14 6 -79.5 114.5t-79.5 139.5q-104 182 -146 397 q-131 -2 -282 -49l-41 -147q-6 -29 -23.5 -99.5t-25.5 -107.5q-2 -4 -10.5 -53t-23 -83t-36.5 -42q-35 -4 -46 26.5t9 53.5q14 31 35 131l43 147l45 152q-10 -2 -10 -4q-72 -25 -144 -62q-10 -6 -34 -31l-5 -4q4 -49 -41 -57q-10 0 -22 6q-23 20 -25 47zM391 637 q133 31 248 39q-35 197 -35 532q-23 -59 -92 -221q-4 -4 -4 0q-68 -172 -117 -350z" />
<glyph unicode="&#xc3;" horiz-adv-x="1081" d="M236 1536q-14 78 71 140.5t158 68.5q35 0 59.5 -24.5t49 -66.5t41.5 -59q55 -47 135 -31.5t129 64.5q10 8 17.5 15.5t14.5 16.5t9 13l10 20l12 23q37 35 71 3.5t13 -83.5q-74 -92 -179 -136t-199 1q-47 23 -88 69t-59.5 69.5t-56.5 11t-100 -81.5q0 -6 3 -8q-2 -2 -3 -7 q-4 -59 -53 -67h-4q-23 4 -33 14t-18 35zM16 438q0 35 30 63.5t55.5 42t77.5 32t54 18.5q82 23 91 24q6 29 8 31q92 268 123 338q16 39 48 108l56 126q25 57 41 112q0 14 14 23h9q14 0 20 -23q0 -2 2 -4q0 -6 -2 -16t-2 -15q-1 -10 -1 -24q0 -28 3 -70q16 -274 21 -325 q18 -150 28 -197q36 2 72 2q136 0 264 -31q23 -10 28 -36q1 -7 1 -13q0 -17 -10 -31q-14 -18 -39 -10q-162 51 -301 53q47 -184 118 -305q10 -16 125 -186l13 -25q12 -25 20 -34q0 -2 2 -3q18 -14 29 -43v-10q-5 -48 -44 -48q-6 0 -12 1q-14 6 -79.5 114.5t-79.5 139.5 q-104 182 -146 397q-131 -2 -282 -49l-41 -147q-6 -29 -23.5 -99.5t-25.5 -107.5q-2 -4 -10.5 -53t-23 -83t-36.5 -42q-35 -4 -46 26.5t9 53.5q14 31 35 131l43 147l45 152q-10 -2 -10 -4q-72 -25 -144 -62q-10 -6 -34 -31l-5 -4q4 -49 -41 -57q-10 0 -22 6q-23 20 -25 47z M391 637q133 31 248 39q-35 197 -35 532q-23 -59 -92 -221q-4 -4 -4 0q-68 -172 -117 -350z" />
<glyph unicode="&#xc4;" horiz-adv-x="1081" d="M403 1624q12 16 35 27q6 4 16.5 4t18.5 2q6 2 16.5 -2t18.5 -4q33 -29 22 -64v-4q8 -31 -24 -57q-55 -37 -96 12q-38 43 -7 86zM690.5 1577q26.5 47 61.5 64q8 4 25 4h22q35 -14 39 -39q14 -6 24 -17q45 -53 -20 -90q-66 -35 -127 -10q-10 4 -19 10q-32 31 -5.5 78z M16 438q0 35 30 63.5t55.5 42t77.5 32t54 18.5q82 23 91 24q6 29 8 31q92 268 123 338q16 39 48 108l56 126q25 57 41 112q0 14 14 23h9q14 0 20 -23q0 -2 2 -4q0 -6 -2 -16t-2 -15q-1 -10 -1 -24q0 -28 3 -70q16 -274 21 -325q18 -150 28 -197q36 2 72 2q136 0 264 -31 q23 -10 28 -36q1 -7 1 -13q0 -17 -10 -31q-14 -18 -39 -10q-162 51 -301 53q47 -184 118 -305q10 -16 125 -186l13 -25q12 -25 20 -34q0 -2 2 -3q18 -14 29 -43v-10q-5 -48 -44 -48q-6 0 -12 1q-14 6 -79.5 114.5t-79.5 139.5q-104 182 -146 397q-131 -2 -282 -49l-41 -147 q-6 -29 -23.5 -99.5t-25.5 -107.5q-2 -4 -10.5 -53t-23 -83t-36.5 -42q-35 -4 -46 26.5t9 53.5q14 31 35 131l43 147l45 152q-10 -2 -10 -4q-72 -25 -144 -62q-10 -6 -34 -31l-5 -4q4 -49 -41 -57q-10 0 -22 6q-23 20 -25 47zM391 637q133 31 248 39q-35 197 -35 532 q-23 -59 -92 -221q-4 -4 -4 0q-68 -172 -117 -350z" />
<glyph unicode="&#xc5;" horiz-adv-x="1081" d="M453 1481q-4 72 0 86q16 61 68.5 79.5t99.5 -10.5q0 27 17.5 42.5t43.5 2.5q41 -27 76 -80t45 -114.5t-41 -108.5q-35 -31 -85 -34t-91 10.5t-82 37.5q-51 28 -51 89zM507 1485.5q3 -19.5 24 -39.5q43 -47 110.5 -47t100.5 59q-12 55 -28.5 79.5t-53.5 43.5 q2 -29 -18.5 -44.5t-47.5 3.5l-4 2q-4 2 -4 4q-8 8 -6 8q-14 8 -25 8q-14 2 -14 0v2q-4 0 -6 -2t-4 -2q-4 -2 -10 -6l-2 -2q-8 -10 -9 -14q-6 -33 -3 -52.5zM529 1560l2 2zM545 1564q8 0 10 3zM16 438q0 35 30 63.5t55.5 42t77.5 32t54 18.5q82 23 91 24q6 29 8 31 q92 268 123 338q16 39 48 108l56 126q25 57 41 112q0 14 14 23h9q14 0 20 -23q0 -2 2 -4q0 -6 -2 -16t-2 -15q-1 -10 -1 -24q0 -28 3 -70q16 -274 21 -325q18 -150 28 -197q36 2 72 2q136 0 264 -31q23 -10 28 -36q1 -7 1 -13q0 -17 -10 -31q-14 -18 -39 -10 q-162 51 -301 53q47 -184 118 -305q10 -16 125 -186l13 -25q12 -25 20 -34q0 -2 2 -3q18 -14 29 -43v-10q-5 -48 -44 -48q-6 0 -12 1q-14 6 -79.5 114.5t-79.5 139.5q-104 182 -146 397q-131 -2 -282 -49l-41 -147q-6 -29 -23.5 -99.5t-25.5 -107.5q-2 -4 -10.5 -53t-23 -83 t-36.5 -42q-35 -4 -46 26.5t9 53.5q14 31 35 131l43 147l45 152q-10 -2 -10 -4q-72 -25 -144 -62q-10 -6 -34 -31l-5 -4q4 -49 -41 -57q-10 0 -22 6q-23 20 -25 47zM391 637q133 31 248 39q-35 197 -35 532q-23 -59 -92 -221q-4 -4 -4 0q-68 -172 -117 -350z" />
<glyph unicode="&#xc8;" d="M582 1700l10 20q12 29 51 29q31 -12 46.5 -29.5t30 -52.5t22.5 -47q35 -57 69 -104q8 -25 -10 -39.5t-42.5 -10.5t-35.5 27q-23 131 -67 172q-23 -12 -46.5 -3t-27.5 38zM55 138q6 62 23.5 166t17.5 159q0 10 -4 76q-4 18 0 41q-12 172 -12 275.5t12 139.5q16 53 42 91 t69 65t69.5 39t86 31.5t75.5 25.5q12 4 60.5 23.5l68 27t57 19.5t68.5 18t64 8q50 0 50 -66q0 -53 -46 -60q-158 -6 -475 -127q-117 -43 -131 -125q-10 -39 -11 -142q0 -79 6 -196q31 4 88.5 29.5t79.5 31.5q147 27 266 27q73 0 136 -10q29 -16 35 -50t-12.5 -58t-49.5 -15 q-4 2 -26.5 9t-34.5 15q-93 28 -173 28q-36 0 -69 -5h6q-18 -8 -57 -20.5t-60 -20.5q-25 -12 -64.5 -43t-59.5 -41q0 -20 -5 -53q-2 -29 -14 -115t-18 -157q-4 -42 -4 -78q0 -24 2 -46q10 14 32 33q109 72 239 88q65 8 147.5 8t183.5 -8q201 -16 248 -16q36 -19 36 -64 q0 -57 -47 -61q-45 2 -235 32q-149 23 -259 23q-30 0 -57 -2q-125 -8 -227 -70q-12 -6 -30.5 -28.5t-28.5 -28.5q-11 -7 -20 -7q-17 0 -25 28q-14 71 -14 123q-1 17 1 33zM365 625q8 0 10 2q-4 -2 -10 -2zM375 627q4 0 6 2h2l-2 -2h-6zM627 606l2 -2q-2 0 -2 2zM637 602 l20 -6z" />
<glyph unicode="&#xca;" d="M567 1606q6 16 25 22q10 10 10 9l-2 -2q0 -4 -2 -4h2q18 14 81.5 112t117.5 105q8 0 20 -7q25 -31 62 -137q49 -129 79 -186q8 -37 -20.5 -48t-52.5 13q-2 6 -14.5 38t-16.5 50q-2 8 -12.5 67.5t-22.5 106.5t-26 62q-12 -10 -79 -130t-112 -120q-23 4 -33 18.5t-4 30.5z M594 1624l4 4h-2q0 -2 -2 -4zM55 138q6 62 23.5 166t17.5 159q0 10 -4 76q-4 18 0 41q-12 172 -12 275.5t12 139.5q16 53 42 91t69 65t69.5 39t86 31.5t75.5 25.5q12 4 60.5 23.5l68 27t57 19.5t68.5 18t64 8q50 0 50 -66q0 -53 -46 -60q-158 -6 -475 -127 q-117 -43 -131 -125q-10 -39 -11 -142q0 -79 6 -196q31 4 88.5 29.5t79.5 31.5q147 27 266 27q73 0 136 -10q29 -16 35 -50t-12.5 -58t-49.5 -15q-4 2 -26.5 9t-34.5 15q-93 28 -173 28q-36 0 -69 -5h6q-18 -8 -57 -20.5t-60 -20.5q-25 -12 -64.5 -43t-59.5 -41 q0 -20 -5 -53q-2 -29 -14 -115t-18 -157q-4 -42 -4 -78q0 -24 2 -46q10 14 32 33q109 72 239 88q65 8 147.5 8t183.5 -8q201 -16 248 -16q36 -19 36 -64q0 -57 -47 -61q-45 2 -235 32q-149 23 -259 23q-30 0 -57 -2q-125 -8 -227 -70q-12 -6 -30.5 -28.5t-28.5 -28.5 q-11 -7 -20 -7q-17 0 -25 28q-14 71 -14 123q-1 17 1 33zM365 625q8 0 10 2q-4 -2 -10 -2zM375 627q4 0 6 2h2l-2 -2h-6zM627 606l2 -2q-2 0 -2 2zM637 602l20 -6z" />
<glyph unicode="&#xcb;" d="M536 1612q12 16 35 27q6 4 16.5 4t18.5 2q6 2 16.5 -2t18.5 -4q33 -29 22 -64v-4q8 -31 -24 -57q-55 -37 -96 12q-38 43 -7 86zM823.5 1565q26.5 47 61.5 64q8 4 25 4h22q35 -14 39 -39q14 -6 24 -17q45 -53 -20 -90q-66 -35 -127 -10q-10 4 -19 10q-32 31 -5.5 78z M55 138q6 62 23.5 166t17.5 159q0 10 -4 76q-4 18 0 41q-12 172 -12 275.5t12 139.5q16 53 42 91t69 65t69.5 39t86 31.5t75.5 25.5q12 4 60.5 23.5l68 27t57 19.5t68.5 18t64 8q50 0 50 -66q0 -53 -46 -60q-158 -6 -475 -127q-117 -43 -131 -125q-10 -39 -11 -142 q0 -79 6 -196q31 4 88.5 29.5t79.5 31.5q147 27 266 27q73 0 136 -10q29 -16 35 -50t-12.5 -58t-49.5 -15q-4 2 -26.5 9t-34.5 15q-93 28 -173 28q-36 0 -69 -5h6q-18 -8 -57 -20.5t-60 -20.5q-25 -12 -64.5 -43t-59.5 -41q0 -20 -5 -53q-2 -29 -14 -115t-18 -157 q-4 -42 -4 -78q0 -24 2 -46q10 14 32 33q109 72 239 88q65 8 147.5 8t183.5 -8q201 -16 248 -16q36 -19 36 -64q0 -57 -47 -61q-45 2 -235 32q-149 23 -259 23q-30 0 -57 -2q-125 -8 -227 -70q-12 -6 -30.5 -28.5t-28.5 -28.5q-11 -7 -20 -7q-17 0 -25 28q-14 71 -14 123 q-1 17 1 33zM365 625q8 0 10 2q-4 -2 -10 -2zM375 627q4 0 6 2h2l-2 -2h-6zM627 606l2 -2q-2 0 -2 2zM637 602l20 -6z" />
<glyph unicode="&#xcc;" horiz-adv-x="641" d="M149 1692l10 20q12 29 51 29q31 -12 46.5 -29.5t30 -52.5t22.5 -47q35 -57 69 -104q8 -25 -10 -39.5t-42.5 -10.5t-35.5 27q-23 131 -67 172q-23 -12 -46.5 -3t-27.5 38zM57 70q4 16 11.5 28.5t14.5 19.5t21 13l22 9q7 3 27.5 8.5t26.5 7.5q18 6 41 6q2 14 6 38.5t4 30.5 q0 20 2.5 50l4.5 55q4 133 20 416.5t21 433.5q-59 -18 -121 -60q-37 -4 -50 30q-4 10 -4 19q0 23 23 42q141 29 158 30q10 23 29 25h4q17 0 32 -17q34 3 68.5 3t68.5 -3q27 -10 33 -35.5t-10 -44t-43 -10.5q-41 18 -45 21q-41 10 -64 10q-6 -61 -23.5 -190t-27.5 -227.5 t-12 -190.5v-28q0 -62 6 -178q4 -72 4 -127.5t-4 -94.5l75 -12q51 -8 67 -7h6q10 2 73 9q27 0 39 -22q7 -12 7 -24q0 -10 -5 -21q-10 -24 -37 -28q-61 0 -132.5 24.5t-82.5 26.5q-10 -35 -37 -34q-6 0 -14 2q-23 6 -31 24q-66 -29 -90 -43v-4q-18 -32 -44 -32h-7 q-31 6 -31 51zM444 1178h2h-2z" />
<glyph unicode="&#xce;" horiz-adv-x="641" d="M135 1597q6 16 25 22q10 10 10 9l-2 -2q0 -4 -2 -4h2q18 14 81.5 112t117.5 105q8 0 20 -7q25 -31 62 -137q49 -129 79 -186q8 -37 -20.5 -48t-52.5 13q-2 6 -14.5 38t-16.5 50q-2 8 -12.5 67.5t-22.5 106.5t-26 62q-12 -10 -79 -130t-112 -120q-23 4 -33 18.5t-4 30.5z M162 1615l4 4h-2q0 -2 -2 -4zM57 70q4 16 11.5 28.5t14.5 19.5t21 13l22 9q7 3 27.5 8.5t26.5 7.5q18 6 41 6q2 14 6 38.5t4 30.5q0 20 2.5 50l4.5 55q4 133 20 416.5t21 433.5q-59 -18 -121 -60q-37 -4 -50 30q-4 10 -4 19q0 23 23 42q141 29 158 30q10 23 29 25h4 q17 0 32 -17q34 3 68.5 3t68.5 -3q27 -10 33 -35.5t-10 -44t-43 -10.5q-41 18 -45 21q-41 10 -64 10q-6 -61 -23.5 -190t-27.5 -227.5t-12 -190.5v-28q0 -62 6 -178q4 -72 4 -127.5t-4 -94.5l75 -12q51 -8 67 -7h6q10 2 73 9q27 0 39 -22q7 -12 7 -24q0 -10 -5 -21 q-10 -24 -37 -28q-61 0 -132.5 24.5t-82.5 26.5q-10 -35 -37 -34q-6 0 -14 2q-23 6 -31 24q-66 -29 -90 -43v-4q-18 -32 -44 -32h-7q-31 6 -31 51zM444 1178h2h-2z" />
<glyph unicode="&#xcf;" horiz-adv-x="641" d="M104 1603q12 16 35 27q6 4 16.5 4t18.5 2q6 2 16.5 -2t18.5 -4q33 -29 22 -64v-4q8 -31 -24 -57q-55 -37 -96 12q-38 43 -7 86zM391.5 1556q26.5 47 61.5 64q8 4 25 4h22q35 -14 39 -39q14 -6 24 -17q45 -53 -20 -90q-66 -35 -127 -10q-10 4 -19 10q-32 31 -5.5 78z M57 70q4 16 11.5 28.5t14.5 19.5t21 13l22 9q7 3 27.5 8.5t26.5 7.5q18 6 41 6q2 14 6 38.5t4 30.5q0 20 2.5 50l4.5 55q4 133 20 416.5t21 433.5q-59 -18 -121 -60q-37 -4 -50 30q-4 10 -4 19q0 23 23 42q141 29 158 30q10 23 29 25h4q17 0 32 -17q34 3 68.5 3t68.5 -3 q27 -10 33 -35.5t-10 -44t-43 -10.5q-41 18 -45 21q-41 10 -64 10q-6 -61 -23.5 -190t-27.5 -227.5t-12 -190.5v-28q0 -62 6 -178q4 -72 4 -127.5t-4 -94.5l75 -12q51 -8 67 -7h6q10 2 73 9q27 0 39 -22q7 -12 7 -24q0 -10 -5 -21q-10 -24 -37 -28q-61 0 -132.5 24.5 t-82.5 26.5q-10 -35 -37 -34q-6 0 -14 2q-23 6 -31 24q-66 -29 -90 -43v-4q-18 -32 -44 -32h-7q-31 6 -31 51zM444 1178h2h-2z" />
<glyph unicode="&#xd1;" horiz-adv-x="980" d="M518 1516q-14 78 71 140.5t158 68.5q35 0 59.5 -24.5t49 -66.5t41.5 -59q55 -47 135 -31.5t129 64.5q10 8 17.5 15.5t14.5 16.5t9 13l10 20l12 23q37 35 71 3.5t13 -83.5q-74 -92 -179 -136t-199 1q-47 23 -88 69t-59.5 69.5t-56.5 11t-100 -81.5q0 -6 3 -8q-2 -2 -3 -7 q-4 -59 -53 -67h-4q-23 4 -33 14t-18 35zM49 1184v6h2q10 24 34 23h2q26 -1 36 -29h2q0 -162 58.5 -316.5t182 -367.5t160.5 -289v39q27 264 92 471q43 156 115 278q8 16 54.5 70.5t52.5 83.5q-2 7 -2 14q0 28 28 42q14 7 30 8q21 0 42 -15q21 -23 21 -48q0 -18 -11 -37 q-12 -22 -26.5 -40t-36 -40.5t-29.5 -35.5q-31 -43 -53 -86q-133 -250 -185 -577q-4 -20 -17 -160.5t-21 -159.5q-15 -26 -33 -25q-15 0 -33 17v-2q-4 0 -4 8q-10 4 -10 23q-10 27 -15 86q-4 31 -19 68.5t-25.5 58l-37 69t-30.5 56.5l-84 148l-101.5 184.5t-68.5 150.5 q4 -242 18 -358q4 -55 28 -205q22 -138 22 -216q0 -7 -1 -13q-4 -35 -31.5 -47.5t-54 2t-28.5 49.5q1 8 0 21q0 54 -13 198q0 -27 2 -41q-25 250 -25 526q0 197 13 408zM61 250q0 -14 2 -19v-2q0 13 -2 21z" />
<glyph unicode="&#xd2;" horiz-adv-x="929" d="M268 1694l10 20q12 29 51 29q31 -12 46.5 -29.5t30 -52.5t22.5 -47q35 -57 69 -104q8 -25 -10 -39.5t-42.5 -10.5t-35.5 27q-23 131 -67 172q-23 -12 -46.5 -3t-27.5 38zM43 575q16 242 123 476q18 35 58 97t46 73q23 39 67 73.5t87 40.5q7 1 14 1q14 0 28 -3 q22 -4 48.5 -13t42.5 -13q29 -10 38 -33t-3 -43q35 -8 65.5 -27.5t56 -55.5t43 -63.5t36.5 -78.5l26 -75q8 -24 23.5 -78t17.5 -62q40 -160 40 -296q0 -121 -32 -223q-47 -133 -218 -205q-131 -56 -248 -56q-37 0 -72 5q-113 12 -194 114.5t-85 215.5q-9 123 -9 191 q0 22 1 38zM117 350q10 -66 19 -101.5t39 -68.5t47 -45l85 -57q16 -12 64 -12q20 -2 41 -3q92 0 194 45q125 54 180 148q42 65 43 178q0 12 -1 26q-5 132 -28.5 239.5t-58.5 203.5q-49 129 -110 193q-14 14 -30.5 22t-26 13.5t-32 3.5t-26.5 -3l-34 -9q-30 -7 -33 -7 q-8 -2 -16 -1q-31 0 -46 28q-8 14 -7 27q0 18 15 32q-27 -16 -45 -35q-125 -139 -186 -368q-56 -185 -56 -336q0 -59 9 -113zM422 1217q2 0 2 2q27 6 33 6l-15 6q-2 -2 -9 -6t-11 -8z" />
<glyph unicode="&#xd4;" horiz-adv-x="929" d="M254 1600q6 16 25 22q10 10 10 9l-2 -2q0 -4 -2 -4h2q18 14 81.5 112t117.5 105q8 0 20 -7q25 -31 62 -137q49 -129 79 -186q8 -37 -20.5 -48t-52.5 13q-2 6 -14.5 38t-16.5 50q-2 8 -12.5 67.5t-22.5 106.5t-26 62q-12 -10 -79 -130t-112 -120q-23 4 -33 18.5t-4 30.5z M281 1618l4 4h-2q0 -2 -2 -4zM43 575q16 242 123 476q18 35 58 97t46 73q23 39 67 73.5t87 40.5q7 1 14 1q14 0 28 -3q22 -4 48.5 -13t42.5 -13q29 -10 38 -33t-3 -43q35 -8 65.5 -27.5t56 -55.5t43 -63.5t36.5 -78.5l26 -75q8 -24 23.5 -78t17.5 -62q40 -160 40 -296 q0 -121 -32 -223q-47 -133 -218 -205q-131 -56 -248 -56q-37 0 -72 5q-113 12 -194 114.5t-85 215.5q-9 123 -9 191q0 22 1 38zM117 350q10 -66 19 -101.5t39 -68.5t47 -45l85 -57q16 -12 64 -12q20 -2 41 -3q92 0 194 45q125 54 180 148q42 65 43 178q0 12 -1 26 q-5 132 -28.5 239.5t-58.5 203.5q-49 129 -110 193q-14 14 -30.5 22t-26 13.5t-32 3.5t-26.5 -3l-34 -9q-30 -7 -33 -7q-8 -2 -16 -1q-31 0 -46 28q-8 14 -7 27q0 18 15 32q-27 -16 -45 -35q-125 -139 -186 -368q-56 -185 -56 -336q0 -59 9 -113zM422 1217q2 0 2 2 q27 6 33 6l-15 6q-2 -2 -9 -6t-11 -8z" />
<glyph unicode="&#xd5;" horiz-adv-x="929" d="M55 1516q-14 78 71 140.5t158 68.5q35 0 59.5 -24.5t49 -66.5t41.5 -59q55 -47 135 -31.5t129 64.5q10 8 17.5 15.5t14.5 16.5t9 13l10 20l12 23q37 35 71 3.5t13 -83.5q-74 -92 -179 -136t-199 1q-47 23 -88 69t-59.5 69.5t-56.5 11t-100 -81.5q0 -6 3 -8q-2 -2 -3 -7 q-4 -59 -53 -67h-4q-23 4 -33 14t-18 35zM43 575q16 242 123 476q18 35 58 97t46 73q23 39 67 73.5t87 40.5q7 1 14 1q14 0 28 -3q22 -4 48.5 -13t42.5 -13q29 -10 38 -33t-3 -43q35 -8 65.5 -27.5t56 -55.5t43 -63.5t36.5 -78.5l26 -75q8 -24 23.5 -78t17.5 -62 q40 -160 40 -296q0 -121 -32 -223q-47 -133 -218 -205q-131 -56 -248 -56q-37 0 -72 5q-113 12 -194 114.5t-85 215.5q-9 123 -9 191q0 22 1 38zM117 350q10 -66 19 -101.5t39 -68.5t47 -45l85 -57q16 -12 64 -12q20 -2 41 -3q92 0 194 45q125 54 180 148q42 65 43 178 q0 12 -1 26q-5 132 -28.5 239.5t-58.5 203.5q-49 129 -110 193q-14 14 -30.5 22t-26 13.5t-32 3.5t-26.5 -3l-34 -9q-30 -7 -33 -7q-8 -2 -16 -1q-31 0 -46 28q-8 14 -7 27q0 18 15 32q-27 -16 -45 -35q-125 -139 -186 -368q-56 -185 -56 -336q0 -59 9 -113zM422 1217 q2 0 2 2q27 6 33 6l-15 6q-2 -2 -9 -6t-11 -8z" />
<glyph unicode="&#xd6;" horiz-adv-x="929" d="M221 1603q12 16 35 27q6 4 16.5 4t18.5 2q6 2 16.5 -2t18.5 -4q33 -29 22 -64v-4q8 -31 -24 -57q-55 -37 -96 12q-38 43 -7 86zM508.5 1556q26.5 47 61.5 64q8 4 25 4h22q35 -14 39 -39q14 -6 24 -17q45 -53 -20 -90q-66 -35 -127 -10q-10 4 -19 10q-32 31 -5.5 78z M43 575q16 242 123 476q18 35 58 97t46 73q23 39 67 73.5t87 40.5q7 1 14 1q14 0 28 -3q22 -4 48.5 -13t42.5 -13q29 -10 38 -33t-3 -43q35 -8 65.5 -27.5t56 -55.5t43 -63.5t36.5 -78.5l26 -75q8 -24 23.5 -78t17.5 -62q40 -160 40 -296q0 -121 -32 -223 q-47 -133 -218 -205q-131 -56 -248 -56q-37 0 -72 5q-113 12 -194 114.5t-85 215.5q-9 123 -9 191q0 22 1 38zM117 350q10 -66 19 -101.5t39 -68.5t47 -45l85 -57q16 -12 64 -12q20 -2 41 -3q92 0 194 45q125 54 180 148q42 65 43 178q0 12 -1 26q-5 132 -28.5 239.5 t-58.5 203.5q-49 129 -110 193q-14 14 -30.5 22t-26 13.5t-32 3.5t-26.5 -3l-34 -9q-30 -7 -33 -7q-8 -2 -16 -1q-31 0 -46 28q-8 14 -7 27q0 18 15 32q-27 -16 -45 -35q-125 -139 -186 -368q-56 -185 -56 -336q0 -59 9 -113zM422 1217q2 0 2 2q27 6 33 6l-15 6q-2 -2 -9 -6 t-11 -8z" />
<glyph unicode="&#xd9;" horiz-adv-x="966" d="M625 1692l10 20q12 29 51 29q31 -12 46.5 -29.5t30 -52.5t22.5 -47q35 -57 69 -104q8 -25 -10 -39.5t-42.5 -10.5t-35.5 27q-23 131 -67 172q-23 -12 -46.5 -3t-27.5 38zM39 580q-9 105 -9 213q0 130 13 266q-4 8 -4 10t2 9t2 12q16 40 56 39h2q42 -1 55 -42v-20l-2 -2 q-2 -2 -2 -4v-10h-2q-4 -39 -11 -64q-16 -152 -16 -248q-1 -26 -1 -50q0 -170 25 -279q14 -68 38 -124.5t64 -111.5t104 -85q53 -25 121 -25q14 0 28 2q47 0 88 34q78 53 135 201q6 14 27 70q25 70 28 94q8 12 18.5 49t14.5 45q2 25 6 85.5t5 92t2 81.5q0 13 1 25 q0 36 -3 68q-3 43 -9 84q-2 12 -8 52t-13.5 73t-21.5 56q-37 -4 -54 23q-7 11 -7 24q0 17 14 37q4 4 12 8l13 6q20 11 41 11l40 -11q57 -51 76 -207q12 -91 13 -183q0 -184 -50 -370q0 -2 -4 -81t-4 -83q-12 -59 -11 -120q0 -152 73 -316q2 -8 2 -16q0 -20 -16 -34 q-16 -15 -37 -15q-7 0 -14 1q-30 6 -44 39q-43 244 -55 330q-16 -43 -41 -69q-10 -10 -27.5 -30t-34 -35t-32.5 -28q-80 -49 -162 -49q-20 0 -41 3q-102 15 -186 83t-115 158q-72 201 -82 328zM139 1008l2 2q2 2 2 6v-2q-2 -2 -4 -6z" />
<glyph unicode="&#xdb;" horiz-adv-x="966" d="M608 1597q6 16 25 22q10 10 10 9l-2 -2q0 -4 -2 -4h2q18 14 81.5 112t117.5 105q8 0 20 -7q25 -31 62 -137q49 -129 79 -186q8 -37 -20.5 -48t-52.5 13q-2 6 -14.5 38t-16.5 50q-2 8 -12.5 67.5t-22.5 106.5t-26 62q-12 -10 -79 -130t-112 -120q-23 4 -33 18.5t-4 30.5z M635 1615l4 4h-2q0 -2 -2 -4zM39 580q-9 105 -9 213q0 130 13 266q-4 8 -4 10t2 9t2 12q16 40 56 39h2q42 -1 55 -42v-20l-2 -2q-2 -2 -2 -4v-10h-2q-4 -39 -11 -64q-16 -152 -16 -248q-1 -26 -1 -50q0 -170 25 -279q14 -68 38 -124.5t64 -111.5t104 -85q53 -25 121 -25 q14 0 28 2q47 0 88 34q78 53 135 201q6 14 27 70q25 70 28 94q8 12 18.5 49t14.5 45q2 25 6 85.5t5 92t2 81.5q0 13 1 25q0 36 -3 68q-3 43 -9 84q-2 12 -8 52t-13.5 73t-21.5 56q-37 -4 -54 23q-7 11 -7 24q0 17 14 37q4 4 12 8l13 6q20 11 41 11l40 -11q57 -51 76 -207 q12 -91 13 -183q0 -184 -50 -370q0 -2 -4 -81t-4 -83q-12 -59 -11 -120q0 -152 73 -316q2 -8 2 -16q0 -20 -16 -34q-16 -15 -37 -15q-7 0 -14 1q-30 6 -44 39q-43 244 -55 330q-16 -43 -41 -69q-10 -10 -27.5 -30t-34 -35t-32.5 -28q-80 -49 -162 -49q-20 0 -41 3 q-102 15 -186 83t-115 158q-72 201 -82 328zM139 1008l2 2q2 2 2 6v-2q-2 -2 -4 -6z" />
<glyph unicode="&#xdc;" horiz-adv-x="966" d="M577 1603q12 16 35 27q6 4 16.5 4t18.5 2q6 2 16.5 -2t18.5 -4q33 -29 22 -64v-4q8 -31 -24 -57q-55 -37 -96 12q-38 43 -7 86zM864.5 1556q26.5 47 61.5 64q8 4 25 4h22q35 -14 39 -39q14 -6 24 -17q45 -53 -20 -90q-66 -35 -127 -10q-10 4 -19 10q-32 31 -5.5 78z M39 580q-9 105 -9 213q0 130 13 266q-4 8 -4 10t2 9t2 12q16 40 56 39h2q42 -1 55 -42v-20l-2 -2q-2 -2 -2 -4v-10h-2q-4 -39 -11 -64q-16 -152 -16 -248q-1 -26 -1 -50q0 -170 25 -279q14 -68 38 -124.5t64 -111.5t104 -85q53 -25 121 -25q14 0 28 2q47 0 88 34 q78 53 135 201q6 14 27 70q25 70 28 94q8 12 18.5 49t14.5 45q2 25 6 85.5t5 92t2 81.5q0 13 1 25q0 36 -3 68q-3 43 -9 84q-2 12 -8 52t-13.5 73t-21.5 56q-37 -4 -54 23q-7 11 -7 24q0 17 14 37q4 4 12 8l13 6q20 11 41 11l40 -11q57 -51 76 -207q12 -91 13 -183 q0 -184 -50 -370q0 -2 -4 -81t-4 -83q-12 -59 -11 -120q0 -152 73 -316q2 -8 2 -16q0 -20 -16 -34q-16 -15 -37 -15q-7 0 -14 1q-30 6 -44 39q-43 244 -55 330q-16 -43 -41 -69q-10 -10 -27.5 -30t-34 -35t-32.5 -28q-80 -49 -162 -49q-20 0 -41 3q-102 15 -186 83t-115 158 q-72 201 -82 328zM139 1008l2 2q2 2 2 6v-2q-2 -2 -4 -6z" />
<glyph unicode="&#xe0;" horiz-adv-x="987" d="M518 1131l10 20q12 29 51 29q31 -12 46.5 -29.5t30 -52.5t22.5 -47q35 -57 69 -104q8 -25 -10 -39.5t-42.5 -10.5t-35.5 27q-23 131 -67 172q-23 -12 -46.5 -3t-27.5 38zM33 322q6 96 67 251q6 14 13.5 26.5t12.5 23t15 22.5l16 19q5 6 18 18t19 16l21 17q16 12 19.5 15 t21.5 16.5t23 15.5q15 5 27 5q28 0 43 -27q8 -14 8 -28q0 -23 -21 -44q-78 -47 -88 -56q-113 -104 -139 -301q-3 -24 -4 -46q0 -79 40 -131q38 -50 109 -50q24 0 51 6q78 14 143.5 63.5t104.5 122.5q-5 41 -5 86q0 76 15 162q-20 41 -61 58q-14 6 -42 7t-38 3q-52 11 -52 52 q0 58 64 58q8 -2 40 -6t52.5 -10t34.5 -20q6 -6 15.5 -13.5t13.5 -11.5q4 14 20 66q2 10 8.5 18t17.5 17.5t15 15.5q19 16 37 15q18 0 36 -14q21 -18 21 -40q0 -15 -10 -33q-41 -35 -84 -139l5 -10q3 -6 6.5 -14.5t5.5 -14.5q4 -10 5 -24.5t1 -30t-1 -27.5t-1 -23l-2 -10 q-2 -84 -49 -155q18 -57 55 -80q27 -18 60.5 -20.5t58 5t64.5 23.5t54 20q49 0 59 -42q2 -7 1 -13q0 -32 -37 -53q-20 -2 -77.5 -14.5t-84.5 -14.5h-9q-24 0 -59 8q-42 10 -75 39q-33 33 -56 82q-68 -74 -162 -115q-87 -37 -167 -37q-8 0 -16 1q-87 4 -145 79 q-53 69 -53 190q0 13 1 26z" />
<glyph unicode="&#xe2;" horiz-adv-x="987" d="M504 1036q6 16 25 22q10 10 10 9l-2 -2q0 -4 -2 -4h2q18 14 81.5 112t117.5 105q8 0 20 -7q25 -31 62 -137q49 -129 79 -186q8 -37 -20.5 -48t-52.5 13q-2 6 -14.5 38t-16.5 50q-2 8 -12.5 67.5t-22.5 106.5t-26 62q-12 -10 -79 -130t-112 -120q-23 4 -33 18.5t-4 30.5z M531 1054l4 4h-2q0 -2 -2 -4zM33 322q6 96 67 251q6 14 13.5 26.5t12.5 23t15 22.5l16 19q5 6 18 18t19 16l21 17q16 12 19.5 15t21.5 16.5t23 15.5q15 5 27 5q28 0 43 -27q8 -14 8 -28q0 -23 -21 -44q-78 -47 -88 -56q-113 -104 -139 -301q-3 -24 -4 -46q0 -79 40 -131 q38 -50 109 -50q24 0 51 6q78 14 143.5 63.5t104.5 122.5q-5 41 -5 86q0 76 15 162q-20 41 -61 58q-14 6 -42 7t-38 3q-52 11 -52 52q0 58 64 58q8 -2 40 -6t52.5 -10t34.5 -20q6 -6 15.5 -13.5t13.5 -11.5q4 14 20 66q2 10 8.5 18t17.5 17.5t15 15.5q19 16 37 15 q18 0 36 -14q21 -18 21 -40q0 -15 -10 -33q-41 -35 -84 -139l5 -10q3 -6 6.5 -14.5t5.5 -14.5q4 -10 5 -24.5t1 -30t-1 -27.5t-1 -23l-2 -10q-2 -84 -49 -155q18 -57 55 -80q27 -18 60.5 -20.5t58 5t64.5 23.5t54 20q49 0 59 -42q2 -7 1 -13q0 -32 -37 -53 q-20 -2 -77.5 -14.5t-84.5 -14.5h-9q-24 0 -59 8q-42 10 -75 39q-33 33 -56 82q-68 -74 -162 -115q-87 -37 -167 -37q-8 0 -16 1q-87 4 -145 79q-53 69 -53 190q0 13 1 26z" />
<glyph unicode="&#xe3;" horiz-adv-x="987" d="M305 954q-14 78 71 140.5t158 68.5q35 0 59.5 -24.5t49 -66.5t41.5 -59q55 -47 135 -31.5t129 64.5q10 8 17.5 15.5t14.5 16.5t9 13l10 20l12 23q37 35 71 3.5t13 -83.5q-74 -92 -179 -136t-199 1q-47 23 -88 69t-59.5 69.5t-56.5 11t-100 -81.5q0 -6 3 -8q-2 -2 -3 -7 q-4 -59 -53 -67h-4q-23 4 -33 14t-18 35zM33 322q6 96 67 251q6 14 13.5 26.5t12.5 23t15 22.5l16 19q5 6 18 18t19 16l21 17q16 12 19.5 15t21.5 16.5t23 15.5q15 5 27 5q28 0 43 -27q8 -14 8 -28q0 -23 -21 -44q-78 -47 -88 -56q-113 -104 -139 -301q-3 -24 -4 -46 q0 -79 40 -131q38 -50 109 -50q24 0 51 6q78 14 143.5 63.5t104.5 122.5q-5 41 -5 86q0 76 15 162q-20 41 -61 58q-14 6 -42 7t-38 3q-52 11 -52 52q0 58 64 58q8 -2 40 -6t52.5 -10t34.5 -20q6 -6 15.5 -13.5t13.5 -11.5q4 14 20 66q2 10 8.5 18t17.5 17.5t15 15.5 q19 16 37 15q18 0 36 -14q21 -18 21 -40q0 -15 -10 -33q-41 -35 -84 -139l5 -10q3 -6 6.5 -14.5t5.5 -14.5q4 -10 5 -24.5t1 -30t-1 -27.5t-1 -23l-2 -10q-2 -84 -49 -155q18 -57 55 -80q27 -18 60.5 -20.5t58 5t64.5 23.5t54 20q49 0 59 -42q2 -7 1 -13q0 -32 -37 -53 q-20 -2 -77.5 -14.5t-84.5 -14.5h-9q-24 0 -59 8q-42 10 -75 39q-33 33 -56 82q-68 -74 -162 -115q-87 -37 -167 -37q-8 0 -16 1q-87 4 -145 79q-53 69 -53 190q0 13 1 26z" />
<glyph unicode="&#xe4;" horiz-adv-x="987" d="M473 1042q12 16 35 27q6 4 16.5 4t18.5 2q6 2 16.5 -2t18.5 -4q33 -29 22 -64v-4q8 -31 -24 -57q-55 -37 -96 12q-38 43 -7 86zM760.5 995q26.5 47 61.5 64q8 4 25 4h22q35 -14 39 -39q14 -6 24 -17q45 -53 -20 -90q-66 -35 -127 -10q-10 4 -19 10q-32 31 -5.5 78z M33 322q6 96 67 251q6 14 13.5 26.5t12.5 23t15 22.5l16 19q5 6 18 18t19 16l21 17q16 12 19.5 15t21.5 16.5t23 15.5q15 5 27 5q28 0 43 -27q8 -14 8 -28q0 -23 -21 -44q-78 -47 -88 -56q-113 -104 -139 -301q-3 -24 -4 -46q0 -79 40 -131q38 -50 109 -50q24 0 51 6 q78 14 143.5 63.5t104.5 122.5q-5 41 -5 86q0 76 15 162q-20 41 -61 58q-14 6 -42 7t-38 3q-52 11 -52 52q0 58 64 58q8 -2 40 -6t52.5 -10t34.5 -20q6 -6 15.5 -13.5t13.5 -11.5q4 14 20 66q2 10 8.5 18t17.5 17.5t15 15.5q19 16 37 15q18 0 36 -14q21 -18 21 -40 q0 -15 -10 -33q-41 -35 -84 -139l5 -10q3 -6 6.5 -14.5t5.5 -14.5q4 -10 5 -24.5t1 -30t-1 -27.5t-1 -23l-2 -10q-2 -84 -49 -155q18 -57 55 -80q27 -18 60.5 -20.5t58 5t64.5 23.5t54 20q49 0 59 -42q2 -7 1 -13q0 -32 -37 -53q-20 -2 -77.5 -14.5t-84.5 -14.5h-9 q-24 0 -59 8q-42 10 -75 39q-33 33 -56 82q-68 -74 -162 -115q-87 -37 -167 -37q-8 0 -16 1q-87 4 -145 79q-53 69 -53 190q0 13 1 26z" />
<glyph unicode="&#xe5;" horiz-adv-x="987" d="M530 1033q-4 72 0 86q16 61 68.5 79.5t99.5 -10.5q0 27 17.5 42.5t43.5 2.5q41 -27 76 -80t45 -114.5t-41 -108.5q-35 -31 -85 -34t-91 10.5t-82 37.5q-51 28 -51 89zM584 1037.5q3 -19.5 24 -39.5q43 -47 110.5 -47t100.5 59q-12 55 -28.5 79.5t-53.5 43.5 q2 -29 -18.5 -44.5t-47.5 3.5l-4 2q-4 2 -4 4q-8 8 -6 8q-14 8 -25 8q-14 2 -14 0v2q-4 0 -6 -2t-4 -2q-4 -2 -10 -6l-2 -2q-8 -10 -9 -14q-6 -33 -3 -52.5zM606 1112l2 2zM622 1116q8 0 10 3zM33 322q6 96 67 251q6 14 13.5 26.5t12.5 23t15 22.5l16 19q5 6 18 18t19 16 l21 17q16 12 19.5 15t21.5 16.5t23 15.5q15 5 27 5q28 0 43 -27q8 -14 8 -28q0 -23 -21 -44q-78 -47 -88 -56q-113 -104 -139 -301q-3 -24 -4 -46q0 -79 40 -131q38 -50 109 -50q24 0 51 6q78 14 143.5 63.5t104.5 122.5q-5 41 -5 86q0 76 15 162q-20 41 -61 58q-14 6 -42 7 t-38 3q-52 11 -52 52q0 58 64 58q8 -2 40 -6t52.5 -10t34.5 -20q6 -6 15.5 -13.5t13.5 -11.5q4 14 20 66q2 10 8.5 18t17.5 17.5t15 15.5q19 16 37 15q18 0 36 -14q21 -18 21 -40q0 -15 -10 -33q-41 -35 -84 -139l5 -10q3 -6 6.5 -14.5t5.5 -14.5q4 -10 5 -24.5t1 -30 t-1 -27.5t-1 -23l-2 -10q-2 -84 -49 -155q18 -57 55 -80q27 -18 60.5 -20.5t58 5t64.5 23.5t54 20q49 0 59 -42q2 -7 1 -13q0 -32 -37 -53q-20 -2 -77.5 -14.5t-84.5 -14.5h-9q-24 0 -59 8q-42 10 -75 39q-33 33 -56 82q-68 -74 -162 -115q-87 -37 -167 -37q-8 0 -16 1 q-87 4 -145 79q-53 69 -53 190q0 13 1 26z" />
<glyph unicode="&#xe8;" horiz-adv-x="829" d="M244 1079l10 20q12 29 51 29q31 -12 46.5 -29.5t30 -52.5t22.5 -47q35 -57 69 -104q8 -25 -10 -39.5t-42.5 -10.5t-35.5 27q-23 131 -67 172q-23 -12 -46.5 -3t-27.5 38zM53 299q-15 47 -15 88q0 45 19 82q14 25 43 68t35 51q14 20 34.5 36.5t52.5 34t46 27.5 q51 36 145 36h24q112 -5 163 -60l18 -17q18 -16 34 -33l38 -41q23 -25 35 -47t18.5 -44.5t-6 -41t-41.5 -28.5q-27 -10 -57.5 -14.5t-67 -7.5t-59.5 -7q-20 -4 -57 -8t-56 -8q-4 0 -49 -10.5t-77.5 -13.5t-61.5 -1h-8q-4 2 -17 2q-37 25 -37 63q0 43 50 60q2 0 7 1t8 1h9 q6 0 4 0q2 0 8.5 -1t8.5 -1q68 2 262 20q84 4 135 11q-37 68 -90 104q-49 39 -131 49h-12q-88 0 -169 -54q-87 -58 -116 -153q-9 -29 -9 -55q0 -59 44 -109q63 -73 168.5 -103t216.5 -38q20 -1 38 -1q84 0 138 30q16 6 29 6q34 0 48 -39q5 -14 5 -27q0 -35 -39 -59 q-74 -29 -152 -31h-10q-73 0 -156 26q-88 28 -143 51.5t-149 70.5q-66 35 -99 135zM678 500q2 0 2 2h-2v-2z" />
<glyph unicode="&#xea;" horiz-adv-x="829" d="M229 985q6 16 25 22q10 10 10 9l-2 -2q0 -4 -2 -4h2q18 14 81.5 112t117.5 105q8 0 20 -7q25 -31 62 -137q49 -129 79 -186q8 -37 -20.5 -48t-52.5 13q-2 6 -14.5 38t-16.5 50q-2 8 -12.5 67.5t-22.5 106.5t-26 62q-12 -10 -79 -130t-112 -120q-23 4 -33 18.5t-4 30.5z M256 1003l4 4h-2q0 -2 -2 -4zM53 299q-15 47 -15 88q0 45 19 82q14 25 43 68t35 51q14 20 34.5 36.5t52.5 34t46 27.5q51 36 145 36h24q112 -5 163 -60l18 -17q18 -16 34 -33l38 -41q23 -25 35 -47t18.5 -44.5t-6 -41t-41.5 -28.5q-27 -10 -57.5 -14.5t-67 -7.5t-59.5 -7 q-20 -4 -57 -8t-56 -8q-4 0 -49 -10.5t-77.5 -13.5t-61.5 -1h-8q-4 2 -17 2q-37 25 -37 63q0 43 50 60q2 0 7 1t8 1h9q6 0 4 0q2 0 8.5 -1t8.5 -1q68 2 262 20q84 4 135 11q-37 68 -90 104q-49 39 -131 49h-12q-88 0 -169 -54q-87 -58 -116 -153q-9 -29 -9 -55 q0 -59 44 -109q63 -73 168.5 -103t216.5 -38q20 -1 38 -1q84 0 138 30q16 6 29 6q34 0 48 -39q5 -14 5 -27q0 -35 -39 -59q-74 -29 -152 -31h-10q-73 0 -156 26q-88 28 -143 51.5t-149 70.5q-66 35 -99 135zM678 500q2 0 2 2h-2v-2z" />
<glyph unicode="&#xeb;" horiz-adv-x="829" d="M196 991q12 16 35 27q6 4 16.5 4t18.5 2q6 2 16.5 -2t18.5 -4q33 -29 22 -64v-4q8 -31 -24 -57q-55 -37 -96 12q-38 43 -7 86zM483.5 944q26.5 47 61.5 64q8 4 25 4h22q35 -14 39 -39q14 -6 24 -17q45 -53 -20 -90q-66 -35 -127 -10q-10 4 -19 10q-32 31 -5.5 78zM53 299 q-15 47 -15 88q0 45 19 82q14 25 43 68t35 51q14 20 34.5 36.5t52.5 34t46 27.5q51 36 145 36h24q112 -5 163 -60l18 -17q18 -16 34 -33l38 -41q23 -25 35 -47t18.5 -44.5t-6 -41t-41.5 -28.5q-27 -10 -57.5 -14.5t-67 -7.5t-59.5 -7q-20 -4 -57 -8t-56 -8q-4 0 -49 -10.5 t-77.5 -13.5t-61.5 -1h-8q-4 2 -17 2q-37 25 -37 63q0 43 50 60q2 0 7 1t8 1h9q6 0 4 0q2 0 8.5 -1t8.5 -1q68 2 262 20q84 4 135 11q-37 68 -90 104q-49 39 -131 49h-12q-88 0 -169 -54q-87 -58 -116 -153q-9 -29 -9 -55q0 -59 44 -109q63 -73 168.5 -103t216.5 -38 q20 -1 38 -1q84 0 138 30q16 6 29 6q34 0 48 -39q5 -14 5 -27q0 -35 -39 -59q-74 -29 -152 -31h-10q-73 0 -156 26q-88 28 -143 51.5t-149 70.5q-66 35 -99 135zM678 500q2 0 2 2h-2v-2z" />
<glyph unicode="&#xec;" horiz-adv-x="382" d="M-2 1385l10 20q12 29 51 29q31 -12 46.5 -29.5t30 -52.5t22.5 -47q35 -57 69 -104q8 -25 -10 -39.5t-42.5 -10.5t-35.5 27q-23 131 -67 172q-23 -12 -46.5 -3t-27.5 38zM50 932q11 41 50 63q14 33 68 33q80 -30 79 -73q0 -14 -7 -29q-27 -49 -101 -60q-12 -2 -22 -2 q-26 0 -47 10q-22 12 -23 38q0 9 3 20zM74 539q0 78 4 100q4 49 15 70.5t50 48.5q24 14 45 14q22 0 41 -16q18 -15 18 -32t-20 -36l-4 -4q-41 -20 -60 -103q-16 -69 -16 -132v-26q4 -75 7 -124q0 -18 16 -86t33 -80q6 6 18 20.5t19 20.5q23 14 44 14q19 0 37 -12 q22 -15 22 -36q0 -13 -9 -29q-4 -2 -28.5 -23.5t-41.5 -30.5q-29 -14 -51 -17q-6 -1 -12 -1q-15 0 -28 6q-17 8 -30.5 18.5t-21.5 32.5l-15 39q-6 16 -10 44t-5 43.5t-3 40t-2 28.5q-12 119 -12 248z" />
<glyph unicode="&#xee;" horiz-adv-x="382" d="M-17 1290q6 16 25 22q10 10 10 9l-2 -2q0 -4 -2 -4h2q18 14 81.5 112t117.5 105q8 0 20 -7q25 -31 62 -137q49 -129 79 -186q8 -37 -20.5 -48t-52.5 13q-2 6 -14.5 38t-16.5 50q-2 8 -12.5 67.5t-22.5 106.5t-26 62q-12 -10 -79 -130t-112 -120q-23 4 -33 18.5t-4 30.5z M10 1308l4 4h-2q0 -2 -2 -4zM50 932q11 41 50 63q14 33 68 33q80 -30 79 -73q0 -14 -7 -29q-27 -49 -101 -60q-12 -2 -22 -2q-26 0 -47 10q-22 12 -23 38q0 9 3 20zM74 539q0 78 4 100q4 49 15 70.5t50 48.5q24 14 45 14q22 0 41 -16q18 -15 18 -32t-20 -36l-4 -4 q-41 -20 -60 -103q-16 -69 -16 -132v-26q4 -75 7 -124q0 -18 16 -86t33 -80q6 6 18 20.5t19 20.5q23 14 44 14q19 0 37 -12q22 -15 22 -36q0 -13 -9 -29q-4 -2 -28.5 -23.5t-41.5 -30.5q-29 -14 -51 -17q-6 -1 -12 -1q-15 0 -28 6q-17 8 -30.5 18.5t-21.5 32.5l-15 39 q-6 16 -10 44t-5 43.5t-3 40t-2 28.5q-12 119 -12 248z" />
<glyph unicode="&#xef;" horiz-adv-x="382" d="M-48 1296q12 16 35 27q6 4 16.5 4t18.5 2q6 2 16.5 -2t18.5 -4q33 -29 22 -64v-4q8 -31 -24 -57q-55 -37 -96 12q-38 43 -7 86zM239.5 1249q26.5 47 61.5 64q8 4 25 4h22q35 -14 39 -39q14 -6 24 -17q45 -53 -20 -90q-66 -35 -127 -10q-10 4 -19 10q-32 31 -5.5 78z M50 932q11 41 50 63q14 33 68 33q80 -30 79 -73q0 -14 -7 -29q-27 -49 -101 -60q-12 -2 -22 -2q-26 0 -47 10q-22 12 -23 38q0 9 3 20zM74 539q0 78 4 100q4 49 15 70.5t50 48.5q24 14 45 14q22 0 41 -16q18 -15 18 -32t-20 -36l-4 -4q-41 -20 -60 -103q-16 -69 -16 -132 v-26q4 -75 7 -124q0 -18 16 -86t33 -80q6 6 18 20.5t19 20.5q23 14 44 14q19 0 37 -12q22 -15 22 -36q0 -13 -9 -29q-4 -2 -28.5 -23.5t-41.5 -30.5q-29 -14 -51 -17q-6 -1 -12 -1q-15 0 -28 6q-17 8 -30.5 18.5t-21.5 32.5l-15 39q-6 16 -10 44t-5 43.5t-3 40t-2 28.5 q-12 119 -12 248z" />
<glyph unicode="&#xf1;" horiz-adv-x="782" d="M49 840q-14 78 71 140.5t158 68.5q35 0 59.5 -24.5t49 -66.5t41.5 -59q55 -47 135 -31.5t129 64.5q10 8 17.5 15.5t14.5 16.5t9 13l10 20l12 23q37 35 71 3.5t13 -83.5q-74 -92 -179 -136t-199 1q-47 23 -88 69t-59.5 69.5t-56.5 11t-100 -81.5q0 -6 3 -8q-2 -2 -3 -7 q-4 -59 -53 -67h-4q-23 4 -33 14t-18 35zM80 588q0 14 2 18q10 39 40 49q8 3 17 3q22 0 45 -19q31 -51 35 -243.5t17 -243.5q23 53 71 196q6 16 26.5 81t33.5 89q47 101 101 101q91 0 200 -283l20 -53q12 -35 17 -45q14 -41 47 -103q3 -13 3 -23q0 -35 -31 -51 q-13 -7 -26 -6q-26 0 -51 27q-12 27 -47 142.5t-69.5 207.5t-59.5 105q-33 -18 -75 -122t-85 -230t-67 -169q-13 -15 -30 -15q-4 0 -7 1q-20 4 -31 27q-8 41 -18.5 101t-16.5 100t-6 42q-18 100 -35 232q-6 18 -10 47q-10 17 -10 37z" />
<glyph unicode="&#xf2;" horiz-adv-x="698" d="M131 1000l10 20q12 29 51 29q31 -12 46.5 -29.5t30 -52.5t22.5 -47q35 -57 69 -104q8 -25 -10 -39.5t-42.5 -10.5t-35.5 27q-23 131 -67 172q-23 -12 -46.5 -3t-27.5 38zM43 261v15q0 126 68 234q72 115 180 131q3 1 9 1q23 0 85 -13l2 -2q13 13 36 12q14 0 32 -4 q10 -8 60 -43t73 -60q41 -49 63 -128q11 -39 11.5 -72t-11.5 -60l-12 -38q-8 -26 -16.5 -43t-22.5 -31q-6 -6 -34.5 -43t-51.5 -49q-124 -62 -221 -62q-92 0 -160 55q-86 66 -90 200zM124 210q7 -71 52 -99q60 -41 126 -42q12 0 25 2q79 9 140 48t91 111q16 38 16 78 q0 35 -13 71q-12 31 -29.5 54.5t-28.5 33.5t-46 31.5t-49 31.5q-27 -16 -54 -8q-37 12 -51 13q-51 -4 -97 -59.5t-68 -125.5q-16 -52 -16 -105q0 -17 2 -35z" />
<glyph unicode="&#xf4;" horiz-adv-x="698" d="M114 905q6 16 25 22q10 10 10 9l-2 -2q0 -4 -2 -4h2q18 14 81.5 112t117.5 105q8 0 20 -7q25 -31 62 -137q49 -129 79 -186q8 -37 -20.5 -48t-52.5 13q-2 6 -14.5 38t-16.5 50q-2 8 -12.5 67.5t-22.5 106.5t-26 62q-12 -10 -79 -130t-112 -120q-23 4 -33 18.5t-4 30.5z M141 923l4 4h-2q0 -2 -2 -4zM43 261v15q0 126 68 234q72 115 180 131q3 1 9 1q23 0 85 -13l2 -2q13 13 36 12q14 0 32 -4q10 -8 60 -43t73 -60q41 -49 63 -128q11 -39 11.5 -72t-11.5 -60l-12 -38q-8 -26 -16.5 -43t-22.5 -31q-6 -6 -34.5 -43t-51.5 -49q-124 -62 -221 -62 q-92 0 -160 55q-86 66 -90 200zM124 210q7 -71 52 -99q60 -41 126 -42q12 0 25 2q79 9 140 48t91 111q16 38 16 78q0 35 -13 71q-12 31 -29.5 54.5t-28.5 33.5t-46 31.5t-49 31.5q-27 -16 -54 -8q-37 12 -51 13q-51 -4 -97 -59.5t-68 -125.5q-16 -52 -16 -105q0 -17 2 -35z " />
<glyph unicode="&#xf5;" horiz-adv-x="698" d="M-82 823q-14 78 71 140.5t158 68.5q35 0 59.5 -24.5t49 -66.5t41.5 -59q55 -47 135 -31.5t129 64.5q10 8 17.5 15.5t14.5 16.5t9 13l10 20l12 23q37 35 71 3.5t13 -83.5q-74 -92 -179 -136t-199 1q-47 23 -88 69t-59.5 69.5t-56.5 11t-100 -81.5q0 -6 3 -8q-2 -2 -3 -7 q-4 -59 -53 -67h-4q-23 4 -33 14t-18 35zM43 261v15q0 126 68 234q72 115 180 131q3 1 9 1q23 0 85 -13l2 -2q13 13 36 12q14 0 32 -4q10 -8 60 -43t73 -60q41 -49 63 -128q11 -39 11.5 -72t-11.5 -60l-12 -38q-8 -26 -16.5 -43t-22.5 -31q-6 -6 -34.5 -43t-51.5 -49 q-124 -62 -221 -62q-92 0 -160 55q-86 66 -90 200zM124 210q7 -71 52 -99q60 -41 126 -42q12 0 25 2q79 9 140 48t91 111q16 38 16 78q0 35 -13 71q-12 31 -29.5 54.5t-28.5 33.5t-46 31.5t-49 31.5q-27 -16 -54 -8q-37 12 -51 13q-51 -4 -97 -59.5t-68 -125.5 q-16 -52 -16 -105q0 -17 2 -35z" />
<glyph unicode="&#xf6;" horiz-adv-x="698" d="M84 909q12 16 35 27q6 4 16.5 4t18.5 2q6 2 16.5 -2t18.5 -4q33 -29 22 -64v-4q8 -31 -24 -57q-55 -37 -96 12q-38 43 -7 86zM371.5 862q26.5 47 61.5 64q8 4 25 4h22q35 -14 39 -39q14 -6 24 -17q45 -53 -20 -90q-66 -35 -127 -10q-10 4 -19 10q-32 31 -5.5 78zM43 261 v15q0 126 68 234q72 115 180 131q3 1 9 1q23 0 85 -13l2 -2q13 13 36 12q14 0 32 -4q10 -8 60 -43t73 -60q41 -49 63 -128q11 -39 11.5 -72t-11.5 -60l-12 -38q-8 -26 -16.5 -43t-22.5 -31q-6 -6 -34.5 -43t-51.5 -49q-124 -62 -221 -62q-92 0 -160 55q-86 66 -90 200z M124 210q7 -71 52 -99q60 -41 126 -42q12 0 25 2q79 9 140 48t91 111q16 38 16 78q0 35 -13 71q-12 31 -29.5 54.5t-28.5 33.5t-46 31.5t-49 31.5q-27 -16 -54 -8q-37 12 -51 13q-51 -4 -97 -59.5t-68 -125.5q-16 -52 -16 -105q0 -17 2 -35z" />
<glyph unicode="&#xf9;" horiz-adv-x="671" d="M350 1047l10 20q12 29 51 29q31 -12 46.5 -29.5t30 -52.5t22.5 -47q35 -57 69 -104q8 -25 -10 -39.5t-42.5 -10.5t-35.5 27q-23 131 -67 172q-23 -12 -46.5 -3t-27.5 38zM30 389q19 203 87 279q24 15 43 14q30 0 51 -33q0 -2 2 -6q3 -10 3 -19q0 -24 -19 -42 q-37 -57 -63 -167q-17 -74 -17 -146q0 -34 4 -67q12 -103 76 -122q19 -6 36 -6q83 0 160 114q43 68 66 119q12 131 14 176v54q0 35 1 63.5t5 52.5v2q0 2 2 4q8 27 33 30h5q21 0 36 -21q21 -57 21 -121q0 -61 -19 -129q0 -6 -1 -68q-1 -31 -0.5 -51.5t0.5 -32.5 q1 -23 5 -68.5t15.5 -75.5t27.5 -52q12 -21 12 -38q0 -24 -23 -41q-16 -12 -33 -12q-24 0 -48 25q-43 72 -53 178q0 -2 -3 -8l-5 -10q-72 -135 -189 -157q-17 -3 -33 -3q-96 0 -168 111q-37 52 -37 172q1 46 6 102z" />
<glyph unicode="&#xfb;" horiz-adv-x="671" d="M334 952q6 16 25 22q10 10 10 9l-2 -2q0 -4 -2 -4h2q18 14 81.5 112t117.5 105q8 0 20 -7q25 -31 62 -137q49 -129 79 -186q8 -37 -20.5 -48t-52.5 13q-2 6 -14.5 38t-16.5 50q-2 8 -12.5 67.5t-22.5 106.5t-26 62q-12 -10 -79 -130t-112 -120q-23 4 -33 18.5t-4 30.5z M361 970l4 4h-2q0 -2 -2 -4zM30 389q19 203 87 279q24 15 43 14q30 0 51 -33q0 -2 2 -6q3 -10 3 -19q0 -24 -19 -42q-37 -57 -63 -167q-17 -74 -17 -146q0 -34 4 -67q12 -103 76 -122q19 -6 36 -6q83 0 160 114q43 68 66 119q12 131 14 176v54q0 35 1 63.5t5 52.5v2q0 2 2 4 q8 27 33 30h5q21 0 36 -21q21 -57 21 -121q0 -61 -19 -129q0 -6 -1 -68q-1 -31 -0.5 -51.5t0.5 -32.5q1 -23 5 -68.5t15.5 -75.5t27.5 -52q12 -21 12 -38q0 -24 -23 -41q-16 -12 -33 -12q-24 0 -48 25q-43 72 -53 178q0 -2 -3 -8l-5 -10q-72 -135 -189 -157q-17 -3 -33 -3 q-96 0 -168 111q-37 52 -37 172q1 46 6 102z" />
<glyph unicode="&#xfc;" horiz-adv-x="671" d="M303 958q12 16 35 27q6 4 16.5 4t18.5 2q6 2 16.5 -2t18.5 -4q33 -29 22 -64v-4q8 -31 -24 -57q-55 -37 -96 12q-38 43 -7 86zM590.5 911q26.5 47 61.5 64q8 4 25 4h22q35 -14 39 -39q14 -6 24 -17q45 -53 -20 -90q-66 -35 -127 -10q-10 4 -19 10q-32 31 -5.5 78zM30 389 q19 203 87 279q24 15 43 14q30 0 51 -33q0 -2 2 -6q3 -10 3 -19q0 -24 -19 -42q-37 -57 -63 -167q-17 -74 -17 -146q0 -34 4 -67q12 -103 76 -122q19 -6 36 -6q83 0 160 114q43 68 66 119q12 131 14 176v54q0 35 1 63.5t5 52.5v2q0 2 2 4q8 27 33 30h5q21 0 36 -21 q21 -57 21 -121q0 -61 -19 -129q0 -6 -1 -68q-1 -31 -0.5 -51.5t0.5 -32.5q1 -23 5 -68.5t15.5 -75.5t27.5 -52q12 -21 12 -38q0 -24 -23 -41q-16 -12 -33 -12q-24 0 -48 25q-43 72 -53 178q0 -2 -3 -8l-5 -10q-72 -135 -189 -157q-17 -3 -33 -3q-96 0 -168 111 q-37 52 -37 172q1 46 6 102z" />
<glyph unicode="&#xff;" horiz-adv-x="741" d="M415 909q12 16 35 27q6 4 16.5 4t18.5 2q6 2 16.5 -2t18.5 -4q33 -29 22 -64v-4q8 -31 -24 -57q-55 -37 -96 12q-38 43 -7 86zM702.5 862q26.5 47 61.5 64q8 4 25 4h22q35 -14 39 -39q14 -6 24 -17q45 -53 -20 -90q-66 -35 -127 -10q-10 4 -19 10q-32 31 -5.5 78z M29 -424q-8 18 -8 32q0 24 21 40q14 11 30 10q21 0 45 -18q14 -27 26 -37q2 -2 13 -6q6 -4 6 -7q37 -13 75 -13q52 0 107 24q96 41 141 125q33 61 53.5 143t25.5 140.5t11 156.5l-4 -8q-72 -115 -149 -146q-34 -13 -64 -13q-40 0 -74 23q-60 40 -105.5 121.5t-61.5 186.5 q-9 55 -9 97q0 93 44 122q12 4 22 4q30 0 51 -31q4 -6 6 -20.5t5 -22.5q-2 -29 -21 -45q0 -51 7 -109.5t25.5 -125t58.5 -99.5q24 -19 54 -19q20 0 43 9q111 45 185 258q12 84 18 170q0 10 -5 35t-3 39q10 24 32 24q6 0 13 -2q31 -16 38 -71q4 -28 4 -53.5t-4 -48.5 q-7 -46 -19 -85q-4 -8 -8.5 -22.5t-6.5 -22.5q-2 -6 -2 -30q-2 -25 -6 -137.5t-9 -176t-23.5 -149.5t-49.5 -133q-6 -10 -18.5 -34t-23.5 -40.5t-26 -26.5q-10 -8 -29.5 -25.5t-35.5 -28.5t-33 -17q-84 -23 -138 -30q-14 -2 -29 -2q-42 0 -90 15q-64 21 -105 80z" />
<glyph unicode="&#x152;" horiz-adv-x="1953" d="M985 138q6 62 23.5 166t17.5 159q0 10 -4 76q-4 18 0 41q-12 172 -12 275.5t12 139.5q16 53 42 91t69 65t69.5 39t86 31.5t75.5 25.5q12 4 60.5 23.5l68 27t57 19.5t68.5 18t64 8q50 0 50 -66q0 -53 -46 -60q-158 -6 -475 -127q-117 -43 -131 -125q-10 -39 -11 -142 q0 -79 6 -196q31 4 88.5 29.5t79.5 31.5q147 27 266 27q73 0 136 -10q29 -16 35 -50t-12.5 -58t-49.5 -15q-4 2 -26.5 9t-34.5 15q-93 28 -173 28q-36 0 -69 -5h6q-18 -8 -57 -20.5t-60 -20.5q-25 -12 -64.5 -43t-59.5 -41q0 -20 -5 -53q-2 -29 -14 -115t-18 -157 q-4 -42 -4 -78q0 -24 2 -46q10 14 32 33q109 72 239 88q65 8 147.5 8t183.5 -8q201 -16 248 -16q36 -19 36 -64q0 -57 -47 -61q-45 2 -235 32q-149 23 -259 23q-30 0 -57 -2q-125 -8 -227 -70q-12 -6 -30.5 -28.5t-28.5 -28.5q-11 -7 -20 -7q-17 0 -25 28q-14 71 -14 123 q-1 17 1 33zM1295 625q8 0 10 2q-4 -2 -10 -2zM1305 627q4 0 6 2h2l-2 -2h-6zM1557 606l2 -2q-2 0 -2 2zM1567 602l20 -6zM43 575q16 242 123 476q18 35 58 97t46 73q23 39 67 73.5t87 40.5q7 1 14 1q14 0 28 -3q22 -4 48.5 -13t42.5 -13q29 -10 38 -33t-3 -43 q35 -8 65.5 -27.5t56 -55.5t43 -63.5t36.5 -78.5l26 -75q8 -24 23.5 -78t17.5 -62q40 -160 40 -296q0 -121 -32 -223q-47 -133 -218 -205q-131 -56 -248 -56q-37 0 -72 5q-113 12 -194 114.5t-85 215.5q-9 123 -9 191q0 22 1 38zM117 350q10 -66 19 -101.5t39 -68.5t47 -45 l85 -57q16 -12 64 -12q20 -2 41 -3q92 0 194 45q125 54 180 148q42 65 43 178q0 12 -1 26q-5 132 -28.5 239.5t-58.5 203.5q-49 129 -110 193q-14 14 -30.5 22t-26 13.5t-32 3.5t-26.5 -3l-34 -9q-30 -7 -33 -7q-8 -2 -16 -1q-31 0 -46 28q-8 14 -7 27q0 18 15 32 q-27 -16 -45 -35q-125 -139 -186 -368q-56 -185 -56 -336q0 -59 9 -113zM422 1217q2 0 2 2q27 6 33 6l-15 6q-2 -2 -9 -6t-11 -8z" />
<glyph unicode="&#x153;" horiz-adv-x="1527" d="M751 299q-15 47 -15 88q0 45 19 82q14 25 43 68t35 51q14 20 34.5 36.5t52.5 34t46 27.5q51 36 145 36h24q112 -5 163 -60l18 -17q18 -16 34 -33l38 -41q23 -25 35 -47t18.5 -44.5t-6 -41t-41.5 -28.5q-27 -10 -57.5 -14.5t-67 -7.5t-59.5 -7q-20 -4 -57 -8t-56 -8 q-4 0 -49 -10.5t-77.5 -13.5t-61.5 -1h-8q-4 2 -17 2q-37 25 -37 63q0 43 50 60q2 0 7 1t8 1h9q6 0 4 0q2 0 8.5 -1t8.5 -1q68 2 262 20q84 4 135 11q-37 68 -90 104q-49 39 -131 49h-12q-88 0 -169 -54q-87 -58 -116 -153q-9 -29 -9 -55q0 -59 44 -109q63 -73 168.5 -103 t216.5 -38q20 -1 38 -1q84 0 138 30q16 6 29 6q34 0 48 -39q5 -14 5 -27q0 -35 -39 -59q-74 -29 -152 -31h-10q-73 0 -156 26q-88 28 -143 51.5t-149 70.5q-66 35 -99 135zM1376 500q2 0 2 2h-2v-2zM43 261v15q0 126 68 234q72 115 180 131q3 1 9 1q23 0 85 -13l2 -2 q13 13 36 12q14 0 32 -4q10 -8 60 -43t73 -60q41 -49 63 -128q11 -39 11.5 -72t-11.5 -60l-12 -38q-8 -26 -16.5 -43t-22.5 -31q-6 -6 -34.5 -43t-51.5 -49q-124 -62 -221 -62q-92 0 -160 55q-86 66 -90 200zM124 210q7 -71 52 -99q60 -41 126 -42q12 0 25 2q79 9 140 48 t91 111q16 38 16 78q0 35 -13 71q-12 31 -29.5 54.5t-28.5 33.5t-46 31.5t-49 31.5q-27 -16 -54 -8q-37 12 -51 13q-51 -4 -97 -59.5t-68 -125.5q-16 -52 -16 -105q0 -17 2 -35z" />
<glyph unicode="&#x178;" horiz-adv-x="960" d="M665 1632q12 16 35 27q6 4 16.5 4t18.5 2q6 2 16.5 -2t18.5 -4q33 -29 22 -64v-4q8 -31 -24 -57q-55 -37 -96 12q-38 43 -7 86zM952.5 1585q26.5 47 61.5 64q8 4 25 4h22q35 -14 39 -39q14 -6 24 -17q45 -53 -20 -90q-66 -35 -127 -10q-10 4 -19 10q-32 31 -5.5 78z M45 1239q-8 17 -8 32q0 24 22 40q15 11 32 11q20 0 40 -17q106 -172 238 -455q14 -35 47 -105q18 6 37 0q68 131 192 306l199 297q19 16 38 16q17 0 32 -13q20 -16 20 -38q0 -15 -10 -33l-275 -348l-44 -58l-46 -61l-37.5 -56.5t-36.5 -64.5v-8q0 -2 -5 -22.5t-11 -28.5v-2 q-6 -37 -9 -75t-5 -67q-1 -19 -2 -44q0 -13 1 -26q1 -42 2 -64.5t5 -72t6 -65.5t8 -73.5t8 -71.5q-4 -35 -29 -48q-12 -6 -25 -7q-13 0 -26 8q-25 14 -26 51q14 186 14 325q0 35 -7 133q-5 62 -5 106q0 26 2 46q-2 6 -72 131q-135 254 -264 422z" />
<glyph unicode="&#x2c6;" horiz-adv-x="466" d="M53 1364q6 16 25 22q10 10 10 9l-2 -2q0 -4 -2 -4h2q18 14 81.5 112t117.5 105q8 0 20 -7q25 -31 62 -137q49 -129 79 -186q8 -37 -20.5 -48t-52.5 13q-2 6 -14.5 38t-16.5 50q-2 8 -12.5 67.5t-22.5 106.5t-26 62q-12 -10 -79 -130t-112 -120q-23 4 -33 18.5t-4 30.5z M80 1382l4 4h-2q0 -2 -2 -4z" />
<glyph unicode="&#x2000;" horiz-adv-x="929" />
<glyph unicode="&#x2001;" horiz-adv-x="1859" />
<glyph unicode="&#x2002;" horiz-adv-x="929" />
<glyph unicode="&#x2003;" horiz-adv-x="1859" />
<glyph unicode="&#x2004;" horiz-adv-x="618" />
<glyph unicode="&#x2005;" horiz-adv-x="464" />
<glyph unicode="&#x2006;" horiz-adv-x="309" />
<glyph unicode="&#x2007;" horiz-adv-x="309" />
<glyph unicode="&#x2008;" horiz-adv-x="231" />
<glyph unicode="&#x2009;" horiz-adv-x="370" />
<glyph unicode="&#x200a;" horiz-adv-x="102" />
<glyph unicode="&#x2010;" horiz-adv-x="946" d="M15 592q-3 51 57 67q229 -18 395 -10q270 12 407 -6q66 -25 49.5 -82t-83.5 -45q-70 25 -140.5 38t-116.5 18.5t-128 0t-111 -8.5t-133 -17l-133 -19q-60 13 -63 64z" />
<glyph unicode="&#x2011;" horiz-adv-x="946" d="M15 592q-3 51 57 67q229 -18 395 -10q270 12 407 -6q66 -25 49.5 -82t-83.5 -45q-70 25 -140.5 38t-116.5 18.5t-128 0t-111 -8.5t-133 -17l-133 -19q-60 13 -63 64z" />
<glyph unicode="&#x2012;" horiz-adv-x="946" d="M15 592q-3 51 57 67q229 -18 395 -10q270 12 407 -6q66 -25 49.5 -82t-83.5 -45q-70 25 -140.5 38t-116.5 18.5t-128 0t-111 -8.5t-133 -17l-133 -19q-60 13 -63 64z" />
<glyph unicode="&#x2013;" horiz-adv-x="856" d="M28 612q-1 45 44 62q186 -16 344 -8q37 2 116.5 10t117.5 9t116 -3q33 -14 39 -44t-13.5 -52.5t-52.5 -14.5q-61 14 -121.5 21.5t-104.5 9.5t-108.5 -3t-98.5 -9t-113.5 -15.5t-116.5 -15.5q-47 8 -48 53z" />
<glyph unicode="&#x2014;" horiz-adv-x="1366" d="M38 642.5q11 21.5 40 29.5q49 -2 138 9t101 11q57 4 172 4t173 4q141 12 319 8.5t313 -46.5q37 -29 18.5 -63t-65.5 -26q-131 55 -305 72t-303 7.5t-317 -34.5q-27 -4 -74 -15t-87 -18t-75 -10q-33 4 -46 25t-2 42.5z" />
<glyph unicode="&#x2018;" horiz-adv-x="409" d="M45 1292q-47 213 158 365q47 29 84 -2q33 -29 0 -62q-4 -4 -8 -6q-51 -33 -100.5 -94t-61.5 -121q4 6 16 16.5l19 16.5q86 57 172 4q70 -43 57 -109q-8 -49 -68 -83q-70 -45 -162 -21t-106 96z" />
<glyph unicode="&#x2019;" horiz-adv-x="452" d="M41 1487v4q-4 59 54.5 93t119.5 -1l4 -4h8q16 16 39 12t31 -28h2q4 -39 8 -47q6 -29 15 -48l18 -45q12 -31 20 -47q37 -78 24 -140t-91 -116q-37 -16 -64.5 -1.5t-25.5 41t30 48.5q37 20 43.5 59.5t-1 63t-27.5 76.5q-2 -2 -21 -8q-14 -31 -59 -29q-59 -25 -109 16 q-59 40 -18 101zM307 1505v6v-6z" />
<glyph unicode="&#x201a;" horiz-adv-x="378" d="M46 361q11 42 43 71t71 38t76 -28q2 2 8 2q18 0 28 -16q47 -37 51.5 -105.5t-17 -130t-52.5 -108.5q-31 -39 -125 -68q-39 -6 -61.5 17.5t-13.5 53.5t48 40q51 4 72 18q23 20 46.5 65.5t29.5 86.5q-43 -43 -100.5 -49t-94.5 43q-20 28 -9 70z" />
<glyph unicode="&#x201c;" horiz-adv-x="645" d="M39 1313q-2 96 55.5 189t122.5 126q10 6 53 10q47 0 55.5 -36.5t-32.5 -57.5q-27 0 -37 -4q-41 -12 -87 -74.5t-58 -124.5q4 2 10 4.5t10 2.5q27 76 96 65q10 -2 18.5 -6t15.5 -10t11 -10.5t12.5 -15.5t12.5 -15q51 -70 -19.5 -134.5t-146.5 -35.5q-90 31 -92 127z M356.5 1244.5q-10.5 64.5 -0.5 103.5q14 96 66.5 177t138.5 91q33 0 48.5 -22.5t3 -47t-47.5 -26.5q-66 -8 -125 -150q63 45 119 0q49 -47 35 -106q-4 -43 -41 -66q-68 -57 -137 -31q-49 13 -59.5 77.5z" />
<glyph unicode="&#x201d;" horiz-adv-x="735" d="M45 1423.5q-16 77.5 38 134t144 37.5q76 -14 85.5 -93t-17.5 -152.5t-59 -122.5q-27 -37 -93 -84q-33 -16 -58.5 -2t-23.5 38.5t29 45.5q37 25 80 78q-10 0 -23 6q-86 37 -102 114.5zM328 1174v2q12 35 45 43h6q43 23 113 116l-9 4q-61 23 -88 70q-43 68 56 145 q39 49 88 45q31 16 41 19q14 0 36 -12q33 -33 35 -37q0 -8 2 -10.5t6.5 -10.5t6.5 -10q4 -8 10 -25q4 -29 4 -40q20 -41 5 -89.5t-67 -66.5l-8 -4q-4 -2 -7 -3l-9 -3q-6 -2 -10 -4q-80 -139 -176 -175q-27 -14 -51.5 -1.5t-28.5 47.5z" />
<glyph unicode="&#x201e;" horiz-adv-x="651" d="M23.5 -239q-3.5 40 46.5 53q61 0 82 4q70 14 92 77.5t8 139.5q-47 -37 -117 -12q-57 18 -60 74.5t42 98.5t106 23q18 8 33 -6q63 -51 39 -121q18 -51 22 -65q25 -96 -10 -181.5t-131 -115.5q-18 -6 -55 -10.5t-45 -6.5q-49 8 -52.5 48zM360 162q43 68 111 78q39 6 61 -21 q0 -2 5 -6q18 -12 36 -53q12 -49 5 -78q18 -55 24 -91t3 -80t-31.5 -80t-81.5 -64q-33 -16 -59.5 -1t-26.5 39.5t28 44.5q53 25 64 39q25 41 10 125q-66 -25 -135 25q-66 43 -13 123z" />
<glyph unicode="&#x2022;" horiz-adv-x="430" d="M68 659q16 37 32 52q4 6 11 10q2 4 12 14q-4 31 22 47q59 35 115 13q63 10 88 -50q2 -4 2 -49q25 -82 -35 -127q-37 -33 -130 -25.5t-107 54.5q-22 41 -10 61z" />
<glyph unicode="&#x2026;" horiz-adv-x="641" d="M37 82q2 12 3 19.5t3 10.5t5 5t7 7l11 13q43 29 71 -4q31 -25 29 -54.5t-29 -41.5q-6 -18 -33 -25q-27 -8 -49 19.5t-18 50.5zM219 113q12 20 45 20q6 6 21 8q61 0 76.5 -55t-37.5 -72q-35 -37 -83.5 -0.5t-21.5 99.5zM428 33q-8 29 29 98q25 12 47 6q23 12 49 4 q61 -41 61 -73q0 -20 -8 -29q-2 -8 -10 -19q-29 -35 -92.5 -34.5t-75.5 47.5z" />
<glyph unicode="&#x202f;" horiz-adv-x="370" />
<glyph unicode="&#x2039;" horiz-adv-x="776" d="M35 562.5q-8 19.5 6 41.5q16 14 81.5 66.5t100.5 83.5l-12 -11l-16 -12q14 14 42 39l43 38q15 13 35.5 35.5t36.5 45.5q6 35 40 46t73 -15q0 -4 4 -5q25 -45 4 -81q-31 -35 -72 -70t-68 -53l-83 -56l-76 -51q170 -20 299 -52t258 -97q33 -27 28 -65t-35 -51t-69 7 q-133 92 -368 172h-2q-119 23 -217 21q-25 4 -33 23.5zM293 518q35 -14 35 -6q-8 0 -18.5 2t-16.5 4z" />
<glyph unicode="&#x203a;" horiz-adv-x="741" d="M34.5 388q-16.5 38 24.5 63q78 25 250 96t269 98l-39 17l-99 48q-70 34 -121 55t-104 36q-41 25 -30.5 60.5t59.5 35.5q55 -18 106 -46t119 -70t100 -60q35 -20 64 -29.5t63 -27.5q16 -12 14.5 -27.5t-20.5 -24.5q-12 -4 -43 -3t-41 -7q-98 -37 -267 -125t-241 -119 q-47 -8 -63.5 30z" />
<glyph unicode="&#x205f;" horiz-adv-x="464" />
<glyph unicode="&#x20ac;" horiz-adv-x="970" d="M21.5 227q-13.5 39 21.5 68q41 14 78 42t76 44q-6 43 4 100l-8 -4q-10 -4 -30 -16t-24 -15q4 -25 -14.5 -43t-48.5 -10q-35 23 -48.5 43.5t-2 38t29 31.5t50.5 28l57 21q23 8 53 16q55 203 211 383q31 35 67.5 69t88 68.5t98.5 53t96 12.5t84 -47q16 -31 5 -57.5 t-34.5 -28.5t-48.5 23q-35 43 -146.5 -27t-162.5 -121q-135 -135 -194 -311q283 82 626 71q41 -20 38 -59t-48 -47q-303 53 -506 -2q-74 -23 -133 -45q-12 -45 -8 -107q201 72 477 82q41 -14 38 -57t-50 -47q-287 33 -455 -45q37 -131 178 -199q72 -33 180 -37 q117 -8 248 66q49 16 64.5 -29t-27.5 -70q-164 -68 -291 -55q-115 10 -204 60q-154 78 -195 235q-23 -16 -66 -53t-65 -53q-45 -9 -58.5 30z" />
<glyph unicode="&#x2122;" horiz-adv-x="681" d="M34.5 1495.5q-18.5 22.5 2.5 50.5q31 16 92 17q20 18 47 2q18 0 127 16q25 -12 29 -31q16 23 43 15q18 6 33 -2q18 -31 26 -68q18 -84 35 -82q14 2 41 86q33 102 55 115q16 6 31 -6q16 -18 26.5 -65.5t15.5 -108t9 -76.5q-2 -27 -20.5 -36t-37 2t-20.5 36q0 115 -4 151 q-33 -90 -49 -110q-29 -33 -60.5 -20.5t-45.5 49.5q-12 25 -17 55q-2 -2 -6 -15q-4 -23 -6 -48t-4 -42q-2 -20 -17.5 -28.5t-30 -1t-16.5 27.5q4 115 9 140q-8 -8 -27 -13q-70 18 -100 19q0 -16 -4.5 -47t-4.5 -45q0 -41 17 -119q-2 -27 -20.5 -35t-36 2t-19.5 35 q39 141 0 196q-2 -2 -14 -6q-6 -2 -27 -14l-10 -6l2 2q6 0 8 2q-33 -16 -51.5 6.5z" />
<glyph unicode="&#xe000;" horiz-adv-x="675" d="M0 675h675v-675h-675v675z" />
<glyph unicode="&#xfb01;" horiz-adv-x="1191" d="M859 932q11 41 50 63q14 33 68 33q80 -30 79 -73q0 -14 -7 -29q-27 -49 -101 -60q-12 -2 -22 -2q-26 0 -47 10q-22 12 -23 38q0 9 3 20zM883 539q0 78 4 100q4 49 15 70.5t50 48.5q24 14 45 14q22 0 41 -16q18 -15 18 -32t-20 -36l-4 -4q-41 -20 -60 -103 q-16 -69 -16 -132v-26q4 -75 7 -124q0 -18 16 -86t33 -80q6 6 18 20.5t19 20.5q23 14 44 14q19 0 37 -12q22 -15 22 -36q0 -13 -9 -29q-4 -2 -28.5 -23.5t-41.5 -30.5q-29 -14 -51 -17q-6 -1 -12 -1q-15 0 -28 6q-17 8 -30.5 18.5t-21.5 32.5l-15 39q-6 16 -10 44t-5 43.5 t-3 40t-2 28.5q-12 119 -12 248zM29 596q-4 16 -5 29q0 30 23 48q33 26 92 42q4 178 25 356q6 43 57 180q37 106 144 144q57 20 115 19q50 0 102 -14q111 -32 174 -108q12 -23 12 -42q0 -26 -24 -44q-16 -12 -32 -12q-24 0 -48 27q-14 23 -33 37t-30 20t-41 16.5t-44 16.5 l25 -4l-27 4q-27 4 -51 4q-119 0 -176 -101q-90 -153 -90 -412q0 -36 2 -75q110 24 204 24q138 0 246 -51q28 -22 28 -46q0 -17 -13 -37q-19 -27 -44 -26q-18 0 -38 13q-99 80 -213 80q-79 0 -166 -39l11 -122q7 -77 9 -103l11 -78q9 -63 14.5 -111.5t7.5 -111.5v-17 q0 -48 -10 -61q-22 -43 -55 -43q-11 0 -22 4q-36 14 -36 51q0 13 4 29l2 4q0 4 2 6q0 84 -2 250t-2 250q-14 -39 -52 -41h-3q-35 0 -53 45z" />
<glyph unicode="&#xfb02;" horiz-adv-x="1423" d="M832 323q-1 5 -1 10q0 25 25 40l2 4q6 4 16.5 19.5t18.5 19.5l4 4q2 2 2 4q16 117 68.5 250t100.5 223t128 227l27 45q84 160 139 170q14 0 31 -16q3 -10 3 -26q0 -61 -44 -210q-72 -242 -287 -581q-4 -6 -37 -63.5t-57 -90.5q0 -12 -1 -23q0 -116 38 -204l20 20 q18 13 35 13q16 0 31 -12q18 -14 18 -33q0 -13 -8 -29q-6 -4 -22.5 -21.5t-29 -27.5t-26.5 -15q-17 -7 -32 -7q-45 0 -69 66q-32 87 -32 208q-2 0 -6 -1t-8 -1q-41 6 -47 38zM1004 569q25 39 47 70q168 248 241 475q12 18 41 133q-25 -33 -57.5 -88t-53 -93t-24.5 -46 q-151 -291 -194 -451zM29 596q-4 16 -5 29q0 30 23 48q33 26 92 42q4 178 25 356q6 43 57 180q37 106 144 144q57 20 115 19q50 0 102 -14q111 -32 174 -108q12 -23 12 -42q0 -26 -24 -44q-16 -12 -32 -12q-24 0 -48 27q-14 23 -33 37t-30 20t-41 16.5t-44 16.5l25 -4l-27 4 q-27 4 -51 4q-119 0 -176 -101q-90 -153 -90 -412q0 -36 2 -75q110 24 204 24q138 0 246 -51q28 -22 28 -46q0 -17 -13 -37q-19 -27 -44 -26q-18 0 -38 13q-99 80 -213 80q-79 0 -166 -39l11 -122q7 -77 9 -103l11 -78q9 -63 14.5 -111.5t7.5 -111.5v-17q0 -48 -10 -61 q-22 -43 -55 -43q-11 0 -22 4q-36 14 -36 51q0 13 4 29l2 4q0 4 2 6q0 84 -2 250t-2 250q-14 -39 -52 -41h-3q-35 0 -53 45z" />
<glyph unicode="&#xfb03;" horiz-adv-x="2000" d="M1668 932q11 41 50 63q14 33 68 33q80 -30 79 -73q0 -14 -7 -29q-27 -49 -101 -60q-12 -2 -22 -2q-26 0 -47 10q-22 12 -23 38q0 9 3 20zM1692 539q0 78 4 100q4 49 15 70.5t50 48.5q24 14 45 14q22 0 41 -16q18 -15 18 -32t-20 -36l-4 -4q-41 -20 -60 -103 q-16 -69 -16 -132v-26q4 -75 7 -124q0 -18 16 -86t33 -80q6 6 18 20.5t19 20.5q23 14 44 14q19 0 37 -12q22 -15 22 -36q0 -13 -9 -29q-4 -2 -28.5 -23.5t-41.5 -30.5q-29 -14 -51 -17q-6 -1 -12 -1q-15 0 -28 6q-17 8 -30.5 18.5t-21.5 32.5l-15 39q-6 16 -10 44t-5 43.5 t-3 40t-2 28.5q-12 119 -12 248zM838 596q-4 16 -5 29q0 30 23 48q33 26 92 42q4 178 25 356q6 43 57 180q37 106 144 144q57 20 115 19q50 0 102 -14q111 -32 174 -108q12 -23 12 -42q0 -26 -24 -44q-16 -12 -32 -12q-24 0 -48 27q-14 23 -33 37t-30 20t-41 16.5t-44 16.5 l25 -4l-27 4q-27 4 -51 4q-119 0 -176 -101q-90 -153 -90 -412q0 -36 2 -75q110 24 204 24q138 0 246 -51q28 -22 28 -46q0 -17 -13 -37q-19 -27 -44 -26q-18 0 -38 13q-99 80 -213 80q-79 0 -166 -39l11 -122q7 -77 9 -103l11 -78q9 -63 14.5 -111.5t7.5 -111.5v-17 q0 -48 -10 -61q-22 -43 -55 -43q-11 0 -22 4q-36 14 -36 51q0 13 4 29l2 4q0 4 2 6q0 84 -2 250t-2 250q-14 -39 -52 -41h-3q-35 0 -53 45zM29 596q-4 16 -5 29q0 30 23 48q33 26 92 42q4 178 25 356q6 43 57 180q37 106 144 144q57 20 115 19q50 0 102 -14 q111 -32 174 -108q12 -23 12 -42q0 -26 -24 -44q-16 -12 -32 -12q-24 0 -48 27q-14 23 -33 37t-30 20t-41 16.5t-44 16.5l25 -4l-27 4q-27 4 -51 4q-119 0 -176 -101q-90 -153 -90 -412q0 -36 2 -75q110 24 204 24q138 0 246 -51q28 -22 28 -46q0 -17 -13 -37 q-19 -27 -44 -26q-18 0 -38 13q-99 80 -213 80q-79 0 -166 -39l11 -122q7 -77 9 -103l11 -78q9 -63 14.5 -111.5t7.5 -111.5v-17q0 -48 -10 -61q-22 -43 -55 -43q-11 0 -22 4q-36 14 -36 51q0 13 4 29l2 4q0 4 2 6q0 84 -2 250t-2 250q-14 -39 -52 -41h-3q-35 0 -53 45z" />
<glyph unicode="&#xfb04;" horiz-adv-x="2232" d="M1641 323q-1 5 -1 10q0 25 25 40l2 4q6 4 16.5 19.5t18.5 19.5l4 4q2 2 2 4q16 117 68.5 250t100.5 223t128 227l27 45q84 160 139 170q14 0 31 -16q3 -10 3 -26q0 -61 -44 -210q-72 -242 -287 -581q-4 -6 -37 -63.5t-57 -90.5q0 -12 -1 -23q0 -116 38 -204l20 20 q18 13 35 13q16 0 31 -12q18 -14 18 -33q0 -13 -8 -29q-6 -4 -22.5 -21.5t-29 -27.5t-26.5 -15q-17 -7 -32 -7q-45 0 -69 66q-32 87 -32 208q-2 0 -6 -1t-8 -1q-41 6 -47 38zM1813 569q25 39 47 70q168 248 241 475q12 18 41 133q-25 -33 -57.5 -88t-53 -93t-24.5 -46 q-151 -291 -194 -451zM838 596q-4 16 -5 29q0 30 23 48q33 26 92 42q4 178 25 356q6 43 57 180q37 106 144 144q57 20 115 19q50 0 102 -14q111 -32 174 -108q12 -23 12 -42q0 -26 -24 -44q-16 -12 -32 -12q-24 0 -48 27q-14 23 -33 37t-30 20t-41 16.5t-44 16.5l25 -4 l-27 4q-27 4 -51 4q-119 0 -176 -101q-90 -153 -90 -412q0 -36 2 -75q110 24 204 24q138 0 246 -51q28 -22 28 -46q0 -17 -13 -37q-19 -27 -44 -26q-18 0 -38 13q-99 80 -213 80q-79 0 -166 -39l11 -122q7 -77 9 -103l11 -78q9 -63 14.5 -111.5t7.5 -111.5v-17 q0 -48 -10 -61q-22 -43 -55 -43q-11 0 -22 4q-36 14 -36 51q0 13 4 29l2 4q0 4 2 6q0 84 -2 250t-2 250q-14 -39 -52 -41h-3q-35 0 -53 45zM29 596q-4 16 -5 29q0 30 23 48q33 26 92 42q4 178 25 356q6 43 57 180q37 106 144 144q57 20 115 19q50 0 102 -14 q111 -32 174 -108q12 -23 12 -42q0 -26 -24 -44q-16 -12 -32 -12q-24 0 -48 27q-14 23 -33 37t-30 20t-41 16.5t-44 16.5l25 -4l-27 4q-27 4 -51 4q-119 0 -176 -101q-90 -153 -90 -412q0 -36 2 -75q110 24 204 24q138 0 246 -51q28 -22 28 -46q0 -17 -13 -37 q-19 -27 -44 -26q-18 0 -38 13q-99 80 -213 80q-79 0 -166 -39l11 -122q7 -77 9 -103l11 -78q9 -63 14.5 -111.5t7.5 -111.5v-17q0 -48 -10 -61q-22 -43 -55 -43q-11 0 -22 4q-36 14 -36 51q0 13 4 29l2 4q0 4 2 6q0 84 -2 250t-2 250q-14 -39 -52 -41h-3q-35 0 -53 45z" />
</font>
</defs>
</svg>
